<?xml version="1.0" encoding="UTF-8" standalone="no"?>
<!DOCTYPE svg PUBLIC "-//W3C//DTD SVG 1.1//EN" "http://www.w3.org/Graphics/SVG/1.1/DTD/svg11.dtd">
<svg width="100%" height="100%" viewBox="0 0 571 644" version="1.1" xmlns="http://www.w3.org/2000/svg" xmlns:xlink="http://www.w3.org/1999/xlink" xml:space="preserve" xmlns:serif="http://www.serif.com/" style="fill-rule:evenodd;clip-rule:evenodd;stroke-linejoin:round;stroke-miterlimit:2;">
    <g transform="matrix(1,0,0,1,-36.395,-10.3637)">
        <g id="path197" transform="matrix(0.809698,0,0,0.681738,452.801,150.213)">
            <path d="M-415.266,202.939C-416.227,180.747 -414.301,146.789 -413.542,143.378C-411.466,134.042 -409.539,124.657 -406.789,115.498C-397.087,83.182 -378.95,53.921 -357.528,28.164C-329.434,-5.613 -297.854,-36.946 -260.553,-60.555C-231.397,-79.01 -197.684,-88.921 -164.898,-98.342C-154.832,-101.234 -144.715,-104.087 -134.39,-105.838C-116.027,-108.953 -95.538,-108.672 -77.028,-108.819C-65.095,-108.914 -48.074,-109.244 -36.225,-107.091C19.678,-96.935 51.35,-41.701 66.731,7.439C71.008,21.103 74.092,35.11 77.433,49.032C81.061,64.151 84.601,79.297 87.692,94.536C90.415,107.955 93.057,121.416 94.797,134.998C98.704,165.492 101.812,196.086 104.699,226.693C107.137,252.53 108.034,283.997 108.762,310.421C108.762,310.421 108.762,407.118 108.762,407.118C108.762,426.779 105.015,451.414 102.813,470.863C99.556,499.631 97.26,528.515 93.292,557.193L93.225,557.613L93.165,558.034L93.098,558.402L93.042,558.75L92.968,559.112C90.254,574.49 83.812,582.411 75.625,596.729C58.51,626.66 27.805,640.52 -2.565,639.488C-13.947,639.101 -78.367,641.979 -81.776,641.813C-82.929,641.756 -84.015,641.632 -85.035,641.438C-118.11,642.41 -136.229,643.534 -174.323,640.712C-205.246,638.421 -229.779,634.914 -260.244,629.197C-287.439,624.094 -324.818,618.251 -348.963,602.162C-377.14,583.387 -387.825,550.587 -395.875,519.812C-403.627,490.176 -408.477,466.209 -412.667,435.871C-416.408,408.786 -419.388,381.602 -422.743,354.466C-424.744,338.281 -429.817,295.039 -432.541,271.728C-435.146,249.434 -430.602,221.847 -415.266,202.939ZM56.891,311.448C56.222,287.131 55.431,257.725 53.151,233.553C50.339,203.75 47.32,173.958 43.516,144.266C41.998,132.412 39.64,120.678 37.264,108.966C34.34,94.549 30.981,80.223 27.548,65.919C24.578,53.54 21.914,41.056 18.111,28.906C8.442,-1.987 -8.924,-39.808 -44.068,-46.192C-53.536,-47.912 -67.145,-47.289 -76.68,-47.213C-92.932,-47.084 -110.932,-47.585 -127.055,-44.85C-135.74,-43.377 -144.235,-40.894 -152.701,-38.462C-181.247,-30.26 -210.772,-22.254 -236.158,-6.187C-268.706,14.415 -296.112,41.987 -320.625,71.46C-336.611,90.68 -350.691,112.076 -357.932,136.191C-359.989,143.043 -361.414,150.072 -362.945,157.063C-363.088,160.003 -363.7,173.386 -363.774,185.814C-343.542,183.754 -323.331,181.331 -303.027,180.234C-229.462,176.257 -187.955,176.807 -114.382,180.007C-85.082,181.281 -60.068,185.704 -30.681,185.704C-16.367,185.704 -4.746,199.507 -4.746,216.508C-4.746,233.509 -16.367,247.311 -30.681,247.311C-60.733,247.311 -86.317,242.876 -116.281,241.573C-188.193,238.445 -228.764,237.89 -300.669,241.777C-320.291,242.838 -339.822,245.209 -359.371,247.199C-365.914,247.865 -373.012,248.826 -380.01,248.538C-382.075,252.886 -381.684,258.791 -381.162,263.259C-378.454,286.434 -373.412,329.424 -371.422,345.515C-368.109,372.31 -365.173,399.154 -361.48,425.899C-357.704,453.236 -353.324,474.829 -346.339,501.534C-341.956,518.289 -338.923,538.212 -323.583,548.433C-304.241,561.321 -273.935,564.257 -252.149,568.345C-223.409,573.738 -200.266,577.063 -171.094,579.224C-129.225,582.326 -112.492,580.367 -70.569,579.44L-70.34,579.442L-70.09,579.434L-69.625,579.448L-69.235,579.451L-69.026,579.465L-68.77,579.473L-68.292,579.515L-67.917,579.541L-67.718,579.566L-67.466,579.589L-66.991,579.66L-66.617,579.708L-66.433,579.743C-46.244,578.966 -9.196,577.63 -1.082,577.906C11.732,578.342 25.494,574.744 32.715,562.116C34.874,558.339 36.977,555.133 38.942,552.14C40.173,550.266 41.735,549.067 42.196,546.525C46.029,518.665 48.24,490.601 51.405,462.653C53.324,445.696 56.891,424.259 56.891,407.118L56.891,311.448Z"/>
        </g>
        <g transform="matrix(1.1877,0,0,1,-25.3399,-66.6623)">
            <circle cx="343.806" cy="220.685" r="24.078"/>
        </g>
        <g transform="matrix(1.1877,0,0,1,-121.309,-21.7381)">
            <circle cx="343.806" cy="220.685" r="24.078"/>
        </g>
    </g>
</svg>
