<?xml version="1.0" encoding="UTF-8" standalone="no"?>
<!DOCTYPE svg PUBLIC "-//W3C//DTD SVG 1.1//EN" "http://www.w3.org/Graphics/SVG/1.1/DTD/svg11.dtd">
<svg width="100%" height="100%" viewBox="0 0 480 728" version="1.1" xmlns="http://www.w3.org/2000/svg" xmlns:xlink="http://www.w3.org/1999/xlink" xml:space="preserve" xmlns:serif="http://www.serif.com/" style="fill-rule:evenodd;clip-rule:evenodd;stroke-linejoin:round;stroke-miterlimit:2;">
    <g>
        <g id="path197">
            <path d="M15.047,213.089C14.269,197.96 15.829,174.809 16.443,172.484C18.124,166.119 19.684,159.721 21.911,153.477C29.767,131.446 44.452,111.498 61.798,93.938C84.545,70.911 110.116,49.55 140.318,33.455C163.926,20.874 191.223,14.117 217.77,7.694C225.92,5.723 234.112,3.778 242.472,2.584C257.34,0.46 273.93,0.652 288.918,0.552C298.58,0.487 312.362,0.262 321.956,1.73C367.221,8.653 392.865,46.308 405.319,79.809C408.782,89.124 411.279,98.673 413.985,108.165C416.922,118.472 419.789,128.797 422.291,139.186C424.496,148.335 426.635,157.512 428.044,166.771C431.208,187.56 433.724,208.417 436.062,229.283C438.036,246.897 438.762,268.349 439.352,286.363L439.352,352.285C439.352,365.689 436.318,382.484 434.535,395.743C431.898,415.355 430.039,435.046 426.826,454.597L426.771,454.884L426.723,455.171L426.669,455.421L426.623,455.659L426.563,455.906C424.366,466.389 419.15,471.789 412.521,481.55C398.663,501.956 373.801,511.404 349.21,510.701C339.994,510.437 287.834,512.399 285.073,512.286C284.14,512.247 283.261,512.163 282.435,512.03C255.654,512.693 240.983,513.459 210.138,511.535C185.1,509.973 165.236,507.583 140.568,503.685C118.549,500.206 88.283,496.223 68.733,485.254C45.918,472.455 37.266,450.094 30.748,429.113C24.471,408.909 20.544,392.57 17.152,371.887C14.123,353.423 11.71,334.89 8.993,316.391C7.373,305.357 3.265,275.877 1.06,259.985C-1.05,244.786 2.63,225.979 15.047,213.089ZM397.352,287.064C396.81,270.486 396.17,250.439 394.324,233.96C392.047,213.642 389.602,193.331 386.522,173.089C385.293,165.008 383.384,157.008 381.46,149.024C379.092,139.195 376.373,129.429 373.593,119.677C371.188,111.238 369.031,102.727 365.952,94.444C358.123,73.383 344.062,47.599 315.606,43.247C307.939,42.074 296.92,42.499 289.2,42.551C276.04,42.639 261.466,42.297 248.411,44.162C241.379,45.166 234.501,46.859 227.646,48.517C204.532,54.108 180.626,59.566 160.071,70.52C133.717,84.565 111.526,103.362 91.678,123.455C78.734,136.558 67.334,151.144 61.47,167.584C59.805,172.255 58.651,177.047 57.411,181.813C57.296,183.818 56.8,192.941 56.74,201.414C73.122,200.01 89.487,198.358 105.927,197.61C165.492,194.899 199.101,195.274 258.672,197.455C282.397,198.324 302.65,201.339 326.445,201.339C338.035,201.339 347.444,210.749 347.444,222.339C347.444,233.93 338.035,243.339 326.445,243.339C302.112,243.339 281.397,240.315 257.135,239.427C198.908,237.295 166.058,236.916 107.836,239.566C91.948,240.29 76.134,241.906 60.305,243.263C55.007,243.717 49.26,244.372 43.594,244.175C41.922,247.14 42.239,251.165 42.661,254.211C44.854,270.011 48.936,299.318 50.548,310.288C53.23,328.556 55.607,346.856 58.598,365.089C61.655,383.726 65.202,398.447 70.857,416.652C74.406,428.075 76.862,441.657 89.283,448.625C104.944,457.411 129.483,459.413 147.123,462.2C170.394,465.877 189.132,468.143 212.753,469.617C246.654,471.731 260.203,470.396 294.148,469.764L294.333,469.765L294.536,469.76L294.912,469.769L295.228,469.771L295.397,469.781L295.604,469.786L295.991,469.815L296.295,469.833L296.456,469.85L296.66,469.865L297.045,469.914L297.348,469.947L297.497,469.97C313.844,469.441 343.841,468.53 350.411,468.718C360.787,469.015 371.93,466.562 377.777,457.953C379.525,455.379 381.228,453.193 382.819,451.152C383.815,449.875 385.08,449.057 385.453,447.324C388.557,428.331 390.347,409.199 392.91,390.146C394.464,378.586 397.352,363.971 397.352,352.285L397.352,287.064Z" style="fill:rgb(242,242,242);stroke:rgb(242,242,242);stroke-width:1px;"/>
        </g>
        <g>
            <ellipse cx="281.485" cy="78.547" rx="28.597" ry="24.078" style="fill:rgb(242,242,242);"/>
        </g>
        <g>
            <ellipse cx="185.516" cy="123.472" rx="28.597" ry="24.078" style="fill:rgb(242,242,242);"/>
        </g>
    </g>
</svg>
