<?xml version="1.0" encoding="UTF-8" standalone="no"?>
<!DOCTYPE svg PUBLIC "-//W3C//DTD SVG 1.1//EN" "http://www.w3.org/Graphics/SVG/1.1/DTD/svg11.dtd">
<svg width="100%" height="100%" viewBox="0 0 1001 534" version="1.1" xmlns="http://www.w3.org/2000/svg" xmlns:xlink="http://www.w3.org/1999/xlink" xml:space="preserve" xmlns:serif="http://www.serif.com/" style="fill-rule:evenodd;clip-rule:evenodd;stroke-linejoin:round;stroke-miterlimit:2;">
    <path id="path4260" d="M0.27,208.833C-4.853,224.425 64.342,241.749 94.565,230.496C105.756,226.33 114.512,212.164 115.731,201.595C116.951,191.026 116.454,157.309 116.454,157.309C122.059,155.769 125.939,154.229 130.681,155.276C142.859,182.474 153.887,203.348 170.089,231.12C181.418,228.201 191.883,225.57 196.026,212.878C201.988,212.2 209.099,210.948 217.36,209.121C220.542,200.737 221.138,197.814 221.733,184.543C229.35,179.559 234.954,176.299 235.96,160.967C224.016,147.557 202.028,135.195 164.216,127.534C162.454,122.385 160.998,117.541 159.236,112.392C180.191,113.472 202.163,120.024 215.624,106.203C225.546,98.291 231.966,23.593 212.384,0C186.78,20.69 168.119,30.338 122.145,48.778C115.801,73.217 116.643,78.685 116.048,91.052C111.256,81.417 104.358,78.138 93.432,78.451C65.003,73.093 50.944,74.058 44.071,81.058C48.674,88.749 74.894,97.595 84.034,110.453C86.414,113.801 94.045,115.957 98.014,117.067C76.798,115.768 61.328,122.228 47.779,126.01C35.966,173.45 23.579,188.411 0.27,208.833Z" style="fill-rule:nonzero;"/>
    <path id="path4312" d="M96.752,94.771C96.752,96.49 95.465,97.885 93.878,97.885C92.29,97.885 91.003,96.49 91.003,94.771C91.003,93.051 92.29,91.657 93.878,91.657C95.465,91.657 96.752,93.051 96.752,94.771ZM211.846,6.77C184.968,28.955 151.57,41.559 125.608,53.21C118.121,85.099 120.437,109.819 121.681,117.364L127.231,118.582C123.256,96 125.875,72.518 129.069,57.564C158.348,44.409 185.864,35.209 210.673,14.194C213.159,23.972 212.41,31.767 209.39,38.028C205.965,45.128 199.727,50.549 192.198,54.661C177.14,62.886 157.154,65.548 147.432,66.271L147.823,71.63C157.949,70.876 178.416,68.281 194.766,59.35C202.94,54.885 210.126,48.797 214.19,40.372C217.236,31.314 219.953,23.103 211.846,6.77ZM218.317,37.431C217.42,39.83 216.172,42.387 213.972,44.527C216.39,58.828 214.262,65.693 210.673,71.63C207.085,77.567 201.339,80.659 194.152,82.291C179.776,85.555 160.634,82.141 147.879,84.077L148.66,89.324C159.553,87.671 179.242,91.133 195.324,87.482C203.364,85.657 210.756,81.858 215.251,74.421C219.745,66.983 220.861,52.478 218.317,37.431ZM213.854,79.518C213.343,91.209 211.038,94.759 206.655,99.985C202.723,103.858 197.437,105.218 191.082,105.455C184.726,105.693 177.516,104.718 170.485,104.06C163.454,103.401 155.428,103.251 149.431,105.29C150.355,115.505 160.743,137.511 163.886,148.262C166.7,149.061 166.51,149.124 169.515,150.345C166.966,143.786 158.281,120.151 155.867,109.697C160.059,108.928 164.425,108.898 169.983,109.418C176.834,110.06 184.197,111.077 191.249,110.814C198.301,110.55 204.67,108.236 210.45,103.781C217.68,98.209 218.442,84.784 218.987,72.299C217.276,76.059 215.903,77.788 213.854,79.518ZM129.127,128.158L123.315,127.307C128.662,144.814 149.731,186.627 172.387,225.588C180.794,223.859 190.832,216.76 193.086,210.126L188.853,205.52C186.481,212.837 180.919,215.838 175.229,219.155C158.507,188.317 138.752,157.798 129.127,128.158ZM50.857,82.611C64.86,89.587 74.152,95.476 82.74,102.72C86.189,106.993 90.994,110.159 95.411,112.097C99.969,114.078 103.167,113.866 106.007,116.935L112.846,116.916C108.931,112.684 101.897,109.083 97.532,107.186C92.654,104.69 88.829,102.342 86.312,98.701C79.259,92.736 71.701,88.405 62.423,83.575C72.189,83.658 82.931,85.757 91.448,88.375C97.591,88.438 104.355,89.67 107.858,94.013C110.591,97.483 114.508,104.347 118.658,107.429L118.682,100.425C116.729,98.974 115.555,95.121 112.044,90.664C108.617,86.312 102.709,82.645 92.732,83.128C84.886,80.705 76.538,79.144 69.344,78.44C64.473,77.747 50.1,80.128 50.857,82.611L50.857,82.611ZM106.735,118.907C78.931,121.756 57.487,126.411 52.549,130.116C46.778,145.653 42.284,161.356 36.077,174.39C29.87,187.423 19.571,198.695 6.491,209.794C10.692,219.559 27.916,222.114 40.096,217.983C48.532,215.246 54.114,208.625 57.846,200.903C65.309,185.458 66.09,164.76 67.893,155.3L62.646,154.295C60.646,164.79 59.734,184.773 53.045,198.614C49.701,205.535 45.137,210.725 38.421,212.904C32.479,214.831 24.339,214.216 13.527,209.778C26.665,200.323 34.986,189.048 40.877,176.678C47.179,163.447 52.844,144.889 56.562,134.313C76.292,128.601 93.08,125.379 107.802,124.266C123.11,124.14 138.784,127.811 156.463,133.478L153.839,126.841C136.454,122.314 123.267,117.702 106.735,118.907ZM163.566,128.484L165.712,134.161C196.312,142.037 216.73,154.066 226.916,164.063C224.804,170.018 221.395,175.568 215.744,176.291L219.121,179.619C227.609,177.239 230.846,168.061 232.107,161.44C220.937,149.635 197.422,136.669 163.566,128.484ZM127.498,145.153C121.288,146.513 106.859,147.963 106.016,152.286C105.799,165.722 107.966,183.758 105.179,198.168C102.319,214.553 89.544,222.981 75.986,223.397C74.03,225.183 72.919,225.746 69.557,227.966C85.551,229.217 107.787,223.957 110.426,199.173C113.331,184.157 111.429,166.941 111.43,154.295C116.592,152.358 124.28,150.352 129.754,150.352L127.498,145.153ZM137.899,144.105L140.101,149.479C167.789,153.847 201.695,171.69 213.074,184.883C212.672,190.867 212.239,195.742 211.064,201.461C206.379,201.919 202.263,202.454 197.222,203.582C184.1,190.459 178.572,176.312 172.674,161.975L166.938,158.962C172.571,173.159 180.29,194.402 194.375,208.327C201.678,207.415 210.081,206.863 214.792,205.378C216.647,196.782 218.417,188.736 217.93,182.204C205.835,167.896 182.245,152.268 137.899,144.105ZM85.475,152.677C82.516,167.692 82.905,189.171 77.996,204.252C75.541,211.792 71.94,217.475 66.274,220.439C60.608,223.403 51.852,223.184 40.789,220.032C36.082,221.613 34.92,221.147 29.718,221.963C42.007,225.795 60.354,229.397 67.693,225.558C75.033,221.719 80.439,214.195 83.131,205.926C88.515,189.388 87.98,167.649 90.722,153.737L85.475,152.677Z" style="fill:rgb(51,51,51);fill-rule:nonzero;"/>
    <path d="M182.301,380.268C158.423,367.515 131.879,361.873 107.458,364.838C106.151,364.996 104.859,365.176 103.583,365.378C94.655,363.466 83.355,353.882 83.042,345.277C82.856,339.872 75.612,344.805 73.465,351.73C71.863,356.926 73.7,363.256 84.082,366.648C86.289,367.366 89.187,367.729 92.263,367.815C86.183,369.493 80.521,371.69 75.291,374.328C64.476,369.456 53.54,358.532 53.223,348.516C52.984,340.981 42.889,347.901 39.871,357.576C37.609,364.851 40.121,373.671 54.554,378.341C57.58,379.322 61.551,379.813 65.775,379.924C37.944,398.852 25.905,431.821 33.248,463.101C43.595,507.19 86.407,535.505 123.936,532.997C162.392,530.428 182.729,499.01 175.553,468.56C168.366,438.127 138.381,419.514 113.077,422.109C88.168,424.666 75.53,445.383 80.118,464.908C84.7,484.431 100.925,495.087 117.417,493.787L117.416,493.789C134.086,492.478 132.472,490.879 117.314,492.08C102.316,493.275 87.815,483.734 83.633,465.966C79.456,448.201 90.979,429.378 113.633,427.086C136.624,424.762 163.823,441.691 170.344,469.315C176.863,496.945 158.43,525.504 123.506,527.899C89.352,530.224 50.308,504.484 40.872,464.319C31.454,424.187 57.101,381.109 108.538,375.041C134.068,372.033 162.108,379.37 186.057,394.961C199.586,369.79 220.666,349.897 244.508,340.285C292.547,320.924 335.72,346.411 346.716,386.139C357.713,425.906 335.81,467.225 304.73,481.575C272.941,496.233 243.064,480.022 235.524,452.654C227.989,425.289 243.727,397.385 265.013,388.391C285.989,379.53 305.131,390.514 309.991,408.104C314.849,425.699 306.705,441.029 292.973,447.178C279.098,453.398 278.45,455.576 293.704,448.727L293.702,448.725C308.795,441.951 317.916,424.816 312.568,405.49C307.223,386.158 286.194,374.047 263.113,383.757C239.668,393.623 222.292,424.343 230.592,454.491C238.909,484.65 271.827,502.454 306.799,486.254C340.927,470.445 364.901,425.058 352.821,381.413C344.252,350.445 317.869,327.298 284.369,324.047C288.022,321.923 291.269,319.587 293.454,317.274C303.875,306.251 301.846,297.307 296.371,292.01C289.08,284.97 276.903,283.743 280.308,290.469C284.837,299.409 280.485,314.24 273.334,323.704C267.48,323.9 261.458,324.69 255.319,326.135C257.976,324.583 260.345,322.874 261.936,321.185C269.417,313.227 267.991,306.792 264.092,303.002C258.885,297.957 250.163,297.105 252.593,301.937C256.448,309.636 251.133,323.467 244.218,329.429C243.001,329.865 241.782,330.326 240.559,330.814C217.711,339.933 197.131,357.621 182.301,380.268Z" style="fill-rule:nonzero;"/>
    <path d="M452.542,394.452C464.857,386.955 467.702,369.471 459.637,357.863C453.969,351.202 444.29,352.686 436.711,354.194C429.437,361.739 427.648,372.79 429.104,382.853C432.009,392.389 443.211,397.589 452.542,394.452Z" style="fill-rule:nonzero;"/>
    <path d="M942.786,520.173C947.579,510.085 949.526,498.963 951.239,488.016C952.275,482.694 951.094,477.308 950.674,471.985C950.361,470.735 950.747,469.192 949.855,468.172C949.907,465.922 949.495,463.711 949.076,461.52C947.254,452.324 944.999,442.909 939.736,435.008C938.476,433.248 937.083,431.606 935.562,430.088C932.954,436.063 930.99,442.325 929.733,448.723C926.777,462.79 926.911,477.484 929.695,491.574C931.918,501.882 936.104,511.94 942.786,520.173ZM943.813,473.039C943.985,478.537 943.442,484.117 941.421,489.279C939.986,487.338 938.711,485.274 937.843,483.024C934.182,472.788 935.429,461.576 937.558,451.152C940.996,457.962 943.393,465.378 943.813,473.039Z" style="fill-rule:nonzero;"/>
    <path d="M696.562,219.812C694.042,218.795 691.261,217.886 688.625,218.923C680.842,221.329 674.623,227.385 670.807,234.448L670.571,234.414C669.232,240.354 667.516,246.497 668.46,252.644C669.4,258.839 676.723,261.879 682.346,260.792C695.482,258.443 706.215,245.388 704.439,231.852C703.254,227.174 700.841,222.218 696.562,219.812Z" style="fill-rule:nonzero;"/>
    <path d="M416.901,219.951C416.777,223.853 418.388,227.716 421.001,230.581C425.792,235.817 433.197,237.442 439.998,237.877C446.193,238.277 452.58,238.351 458.556,236.459L458.635,236.553C463.822,235.022 468.722,232.537 472.857,229.035C475.504,226.728 477.856,224.095 479.896,221.245C481.881,218.78 482.677,215.58 482.988,212.492L483.175,212.354C484.376,203.063 480.785,193.914 475.746,186.288C472.629,181.264 468.633,176.883 465.052,172.205C454.951,159.634 445.042,146.899 434.748,134.486C433.399,131.596 433.34,128.238 433.602,125.111C433.977,121.283 436.289,117.993 439.193,115.607C442.029,113.957 444.913,112.342 448.089,111.443C452.466,110.346 457.183,110.494 461.402,112.125C463.101,113.093 464.652,114.288 466.331,115.286C468.618,116.763 470.94,118.18 473.276,119.568C476.947,121.643 480.72,123.901 483.096,127.501C484.618,129.882 485.986,132.619 485.779,135.523C485.379,137.356 484.825,139.194 483.709,140.74C481.862,143.53 479.006,145.388 476.398,147.393C473.469,149.596 470.599,151.883 467.774,154.215C467.873,155.084 467.828,156.062 468.505,156.739C472.59,161.807 477.742,165.907 483.146,169.478C489.706,173.697 496.26,177.935 502.554,182.539C508.456,185.626 514.315,188.851 520.405,191.529C525.498,194.24 530.773,196.621 536.133,198.755C535.97,200.237 535.041,201.773 535.283,203.216L535.022,203.063C533.466,208.867 531.85,214.676 529.608,220.257C531.361,220.247 533.105,220.282 534.849,220.282C536.632,220.41 537.98,218.889 538.825,217.506C540.687,214.078 540.174,210.052 540.737,206.328C541.023,204.683 541.25,202.969 542.144,201.536C543.221,200.533 544.837,200.331 546.23,200.583C548.23,200.963 549.549,202.786 550.315,204.539C551.54,207.454 550.344,210.581 549.43,213.406C548.482,216.049 547.321,218.696 547.227,221.551C550.072,220.475 553.145,219.704 555.565,217.783L555.402,217.654C558.544,213.717 558.144,208.387 559.813,203.858L559.917,203.843C560.431,202.781 561.083,201.808 561.794,200.894C565.099,199.891 567.875,202.401 570.033,204.539C570.315,209.385 570.275,214.359 568.882,219.057C571.239,219.502 574.005,219.813 575.941,218.089C578.846,215.491 579.009,211.302 579.552,207.721C580.135,204.347 581.824,200.662 585.425,199.718C585.707,199.753 586.265,199.822 586.542,199.857C588.745,201.931 590.627,204.579 591.022,207.651C592.741,207.572 594.504,207.686 596.169,207.227C598.051,206.362 598.288,203.996 598.579,202.203C598.905,198.518 599.128,194.517 597.226,191.193C595.971,188.906 593.141,187.893 590.651,188.352C586.082,189.158 581.469,189.721 576.855,190.2C563.938,191.306 550.833,190.916 538.143,188.145L538.119,188.11C531.282,186.461 524.604,184.04 518.523,180.479C511.306,176.626 504.006,172.842 497.12,168.441C492.704,164.751 488.021,161.091 484.825,156.196L484.731,156.136C484.475,154.462 483.852,152.422 485.171,151.034C488.332,147.951 491.533,144.904 494.774,141.905C498.562,138.255 502.563,134.447 507.789,133.054C509.024,132.861 510.363,132.382 511.484,133.172C514.863,134.837 518.681,137.331 519.012,141.471C518.192,141.732 517.367,142.004 516.533,142.296C514.646,142.735 512.699,142.888 510.758,142.79C510.101,143.516 509.439,144.247 508.782,144.998C506.352,148.045 503.502,151.226 503.043,155.257C503.428,158.329 505.018,161.575 508.022,162.825C516.044,166.465 525.572,166.327 533.737,163.205C534.384,162.899 535.041,162.587 535.674,162.306C536.647,161.713 537.659,161.185 538.539,160.478C539.551,158.428 539.013,155.82 540.485,153.963C541.789,152.343 544.15,152.609 545.948,153C547.85,153.508 549.865,154.472 550.957,156.156C550.809,160.197 546.496,161.935 544.98,165.309C544.431,166.46 544.876,168.377 546.254,168.688C548.936,169.528 552.093,169.468 554.513,167.972C556.336,165.522 557.571,162.662 558.287,159.708C558.741,158.147 560.05,157.075 561.221,156.062C563.009,155.282 564.906,154.571 566.882,154.635C568.932,155.114 570.957,155.805 572.8,156.828C574.034,157.475 574.988,158.789 574.845,160.231C574.573,161.753 573.802,163.16 573.718,164.726C574.395,166.085 576.065,166.401 577.364,166.895C579.932,167.898 583.089,166.401 583.899,163.763C584.902,160.345 585.341,156.601 587.525,153.667C588.468,152.303 590.207,152.165 591.639,151.686C594.183,151.928 597.29,151.557 598.965,153.948C600.076,154.897 599.256,157.174 600.931,157.445C603.361,158.008 605.994,157.554 608.182,156.393C609.659,155.608 610.76,154.002 610.578,152.293C610.168,149.631 607.303,148.105 607.001,145.412C608.498,142.207 610.657,139.189 613.433,136.966C617.597,136.116 621.865,138.067 626.049,137.233C628,136.763 629.21,135.015 630.045,133.33C630.81,131.947 630.716,130.258 629.936,128.909C626.449,125.353 620.798,124.301 618.367,119.657C619.005,119.099 619.637,118.531 620.254,117.988C621.272,117.232 622.171,116.338 623.174,115.582C625.594,114.92 628.168,114.876 630.558,114.09C631.922,113.557 633.349,112.426 633.26,110.816C633.665,107.847 631.546,105.194 628.938,104.063C625.89,102.715 622.507,101.603 620.289,98.96C618.753,96.748 617.804,93.804 619.069,91.24L619.237,91.279C621.499,88.093 625.431,86.76 627.881,83.761C626.676,82.536 625.288,81.425 623.598,80.961C619.894,79.869 615.932,80.531 612.277,81.509C610.301,82.146 609.689,84.394 609.585,86.251C609.669,87.431 609.59,88.691 610.178,89.778C611.862,93.181 612.954,96.866 613.393,100.635L613.517,100.758C613.808,104.28 613.907,107.837 613.571,111.369C613.314,114.56 612.391,117.637 611.724,120.749L611.773,121.169L611.566,121.169C610.77,122.774 610.247,124.508 609.456,126.128C608.32,128.746 606.33,130.86 604.467,132.984C600.491,137.144 595.566,140.448 590.118,142.355C587.362,143.451 584.398,143.871 581.528,144.533C571.244,145.452 560.441,144.464 551.278,139.352C544.036,135.449 538.514,128.302 536.928,120.206C537.363,117.706 539.586,116.051 541.206,114.273C541.576,113.947 541.937,113.631 542.293,113.325C545.765,116.743 549.223,120.181 552.666,123.639C555.56,126.8 559.759,128.425 563.889,129.22C569.302,130.09 574.934,129.798 580.199,128.242L580.278,128.302C585.134,126.869 589.535,124.187 593.373,120.922C596.856,117.899 599.31,113.774 600.313,109.279C601.84,101.979 599.824,94.189 595.24,88.355C593.166,85.861 591.096,83.075 587.969,81.85C583.128,79.632 578.243,77.374 573.022,76.189C573.565,74.001 574.731,71.901 576.638,70.642C579.592,68.498 583.36,68.32 586.853,67.935C592.143,67.243 597.898,66.621 602.096,62.975C604.033,61.375 604.739,58.821 604.561,56.396C603.173,54.87 601.242,53.659 599.098,53.911C595.932,54.326 593.274,56.337 590.172,57.008C588.443,57.473 586.388,57.418 584.951,56.223C582.56,53.956 583.38,50.053 581.197,47.687C579.33,47.154 577.334,47.332 575.408,47.095C574.4,48.853 573.56,50.705 572.73,52.563L572.765,52.711C571.486,55.625 571.431,58.866 570.434,61.869C568.142,68.814 562.861,74.386 556.795,78.278L556.761,78.352C553.347,80.313 549.663,81.855 545.76,82.512C542.535,83.06 539.008,83.579 535.916,82.186C533.787,81.252 532.996,78.802 532.641,76.688C532.389,75.315 533.085,73.823 534.424,73.344C536.795,72.43 539.349,72.099 541.68,71.086C542.312,71.111 542.94,70.899 543.532,70.815C545.864,70.054 548.21,68.893 549.554,66.754C550.734,64.813 551.574,62.674 552.33,60.545C553.723,56.253 552.942,51.372 550.468,47.633C549.277,47.154 547.973,47.03 546.689,46.976C544.792,46.803 543.394,48.774 543.439,50.528C543.478,52.879 543.656,55.23 544.061,57.557C542.708,59.424 541.053,61.079 539.077,62.294C537.951,62.585 536.721,63.045 535.57,62.59C533.727,61.592 532.527,59.681 532.102,57.66C531.406,54.208 531.332,50.666 530.704,47.203C528.807,45.697 526.392,45 523.981,45C522.771,44.98 521.823,45.8 521.042,46.645L521.359,47.109L521.092,46.734C520.455,54.321 520.85,61.988 521.625,69.57L521.704,69.688C522.104,78.021 521.472,87.219 515.974,93.952C513.707,94.391 511.069,94.638 509.153,93.072C505.389,90.153 504.598,85.169 502.781,81.049C500.217,74.584 496.858,68.473 493.163,62.595C488.535,55.265 484.109,47.505 482.622,38.855C482.681,38.771 482.81,38.603 482.874,38.52C489.468,35.235 496.117,32.044 502.978,29.357C509.711,27.015 516.888,27.346 523.888,27.598C524.377,27.825 524.935,27.845 525.444,27.909C531.06,28.27 536.647,29.03 542.258,29.416C545.439,29.248 548.615,28.897 551.757,28.413C559.3,27.519 566.852,26.027 574.025,23.473L574.272,23.493C578.218,22.085 582.259,20.687 585.825,18.489C589.742,16.741 593.24,14.167 596.529,11.446C598.164,10.23 598.248,8.003 598.782,6.205C599.138,5.227 598.001,4.757 597.379,4.268C595.561,2.964 593.067,3.053 591.13,4.051C588.315,5.38 586.255,7.785 584.225,10.067C582.387,11.722 579.908,12.399 577.902,13.821C576.756,14.039 575.704,14.597 574.612,15.032L574.523,15.145C570.873,16.197 566.719,17.057 563.133,15.358C561.873,13.619 564.141,12.705 565.153,11.697C566.447,10.655 565.672,8.808 564.802,7.77C564.308,7.113 563.316,6.303 562.535,7.03C561.325,7.849 559.927,8.531 558.939,9.628C556.198,11.223 553.772,13.372 550.779,14.523C547.914,15.812 544.713,15.57 541.655,15.847L541.384,16.025C537.546,15.926 533.668,16.785 529.87,15.936C527.128,15.437 524.579,14.068 522.628,12.083C523.325,11.189 524.07,10.339 524.871,9.564C526.847,8.284 529.109,7.514 531.445,7.301C535.901,6.867 540.445,7.049 544.812,5.943C542.169,3.088 538.198,1.917 534.439,1.527C527.558,0.697 520.247,1.497 514.206,5.098L514.251,5.148C511.445,6.807 509.084,9.129 507.142,11.732C501.329,11.258 496.824,6.921 491.188,5.77C489.78,6.911 488.54,8.709 489.32,10.591C490.921,14.172 493.909,16.899 495.86,20.268C495.885,20.673 495.939,21.488 495.964,21.893C494.448,23.691 492.21,25.81 489.636,25C484.929,23.177 482.37,18.435 478.256,15.758C476.324,14.414 473.943,13.846 471.607,14.167C472.303,19.566 477.253,22.994 479.125,27.929L479.219,27.939C479.337,28.418 479.579,29.376 479.703,29.855C476.468,32.083 472.95,34.267 468.925,34.558C467.922,36.188 467.868,38.322 468.895,39.962C475.208,50.681 481.481,61.425 487.374,72.38C488.515,74.361 489.049,76.614 490.071,78.654C491.993,82.877 494.492,86.804 496.498,90.983C498.202,94.624 499.852,98.328 500.854,102.235C501.324,104.547 498.187,106.513 496.374,104.839C488.678,98.58 481.931,91.27 475.282,83.939C473.489,82.077 472.229,79.785 470.471,77.893C467.265,74.129 463.442,70.938 459.406,68.103C453.913,64.235 448.421,60.377 442.908,56.534C441.634,55.645 440.078,55.364 438.63,54.85C434.125,53.452 429.65,51.94 425.056,50.839C421.238,49.51 417.059,49.327 413.181,50.567C411.749,51.125 410.247,51.679 409.116,52.78C404.463,57.167 400.605,62.822 399.859,69.318C399.518,73.008 399.691,77.083 401.973,80.185C404.562,83.776 408.508,86.113 412.475,87.911C415.661,88.879 418.882,89.822 422.157,90.44C424.439,90.909 426.75,90.208 428.647,88.948C428.529,87.565 428.188,86.128 427.151,85.135C424.523,82.284 420.393,82.077 417.103,80.378C414.836,79.469 413.552,77.266 412.248,75.339C410.583,72.558 409.235,68.938 410.776,65.826C412.253,63.119 415.093,61.286 418.062,60.644L418.017,60.54C422.883,59.676 427.931,60.609 432.322,62.803L432.312,62.877C437.899,65.92 442.557,71.17 443.54,77.617C444.232,84.063 442.523,91.136 437.815,95.804C436.284,97.083 434.545,98.052 432.772,98.956C428.262,100.591 423.436,100.887 418.724,101.559C415.572,102.063 412.376,102.053 409.195,101.83L409.101,101.732C406.819,101.435 404.591,100.838 402.378,100.215C399.316,98.926 396.278,97.523 393.596,95.537C387.471,91.354 383.198,85.179 378.481,79.592C373.823,73.67 369.372,67.569 364.502,61.82C358.826,55.211 352.172,49.194 344.071,45.756L344.047,45.672C340.964,44.413 337.319,42.575 334.054,44.269C333.239,45.05 332.468,45.885 331.737,46.764L331.94,47.05C331.298,47.386 331.125,47.89 331.426,48.557L331.105,48.685C330.734,51.111 330.324,53.536 329.845,55.951C329.258,58.485 330.033,61.044 330.216,63.578C330.848,71.353 330.739,79.153 330.616,86.943C330.226,95.73 329.944,104.523 329.322,113.3C329.154,118.689 328.749,124.108 329.169,129.492C327.675,134.396 330.219,139.413 329.144,144.346C328.556,145.185 328.023,146.139 327.119,146.727C326.304,147.319 325.217,147.744 325,148.87C322.594,156.008 319.087,163.161 319.714,170.896C320.465,172.684 321.492,174.354 322.49,176.018C323.295,177.357 325.306,177.555 326.481,176.626C328.294,175.193 329.396,172.995 329.603,170.718C329.885,166.381 328.917,162.079 328.966,157.757C328.892,155.885 330.379,154.556 331.841,153.682C333.18,152.718 335.116,152.511 336.484,153.528C337.936,155.163 339.344,156.932 339.902,159.095C342.357,166.831 339.809,174.882 338.979,182.657C339.458,183.171 340.342,183.66 340.969,183.126C342.634,181.98 343.815,180.202 344.318,178.261C344.195,178.103 343.953,177.792 343.834,177.634C344.066,177.53 344.531,177.332 344.763,177.229C345.736,171.83 345.064,166.322 345.311,160.874C345.459,160.696 345.761,160.345 345.909,160.167L345.929,160.044C346.581,159.49 347.198,158.957 347.83,158.419C348.65,158.384 349.47,158.359 350.266,158.29C350.483,158.27 350.918,158.231 351.135,158.206C351.728,158.448 352.355,158.577 352.963,158.725L353.368,158.651C354.845,159.308 356.386,159.994 357.438,161.274C358.688,162.672 358.999,164.588 359.32,166.371L359.488,166.441C359.685,168.821 359.997,171.202 359.834,173.603C359.478,179.822 356.03,186.397 349.984,188.733C347.302,190.249 343.839,191.791 343.054,195.07C345.538,195.475 348.161,196.325 350.611,195.317C357.927,192.917 362.812,186.357 366.295,179.832C367.48,176.399 367.401,172.655 367.065,169.083C365.939,160.745 361.237,153.36 355.556,147.344C353.101,144.504 349.796,142.34 348.285,138.769C346.768,135.252 344.422,131.858 340.727,130.401C339.774,125.753 339.463,120.996 339.478,116.264C339.813,112.031 339.962,107.783 340.223,103.549C341.019,95.468 341.3,87.333 340.663,79.232L340.485,79.454C340.046,75.932 339.769,72.39 339.502,68.854C339.408,66.769 340.075,64.774 340.52,62.788C340.801,62.487 341.365,61.889 341.646,61.588C344.812,61.751 347.677,63.331 350.197,65.144C353.486,67.866 356.094,71.299 358.268,74.954C359.345,76.698 359.577,78.777 360.199,80.694C362.674,88.834 366.566,96.624 372.153,103.08C376.386,108.178 381.622,112.357 387.224,115.859C386.982,118.912 384.3,120.769 382.126,122.537C380.229,123.99 378.752,126.524 379.553,128.944C380.738,130.643 382.106,132.214 383.519,133.73C384.7,134.995 386.483,135.4 388.148,135.237C392.015,131.562 396.308,128.287 401.114,125.946C405.184,124.143 409.847,122.972 414.234,124.266C416.358,124.795 418.106,126.138 419.924,127.274C421.653,129.226 423.624,131.019 424.834,133.375C426.953,137.549 429.112,141.698 431.226,145.872C432.446,148.283 434.303,150.278 435.992,152.358C442.167,159.663 448.658,166.692 455.094,173.766C460.873,179.876 466.514,186.199 470.861,193.435C473.608,198.138 475.934,203.162 476.996,208.536C477.47,210.492 476.576,212.413 475.934,214.231C474.151,218.336 470.644,221.315 466.796,223.434C462.419,226.076 457.638,227.998 452.688,229.228C448.747,229.756 444.76,230.132 440.784,229.638C438.63,229.109 436.131,229.169 434.432,227.524C431.428,225.187 429.749,221.611 428.879,217.985C428.657,216.489 428.4,214.908 429.062,213.485C430.589,210.028 434.422,207.844 438.186,208.368C440.013,209.494 443.323,210.364 442.859,213.095C442.799,215.634 439.964,217.659 441.209,220.257C443.125,220.421 445.086,220.455 446.934,219.872C450.648,218.825 453.498,215.832 455.306,212.537C455.702,209.899 455.094,207.182 454.343,204.658C451.503,200.277 445.862,199.156 440.981,199.126C436.911,199.284 432.802,199.664 428.835,200.588C427.343,200.746 425.787,200.83 424.375,201.408C421.406,203.532 419.45,206.758 418.077,210.087L418.126,210.205C416.965,213.312 416.832,216.661 416.901,219.951ZM586.127,98.718C587.352,100.773 588.424,102.986 588.838,105.362C589.11,109.847 587.208,114.886 582.96,116.936C575.912,120.191 567.455,118.348 561.359,113.903C558.504,111.265 557.783,107.111 557.793,103.391C557.867,99.627 560.515,96.51 563.567,94.599C567.554,91.936 572.676,91.541 577.191,92.939C580.461,94.297 584.017,95.705 586.127,98.718Z" style="fill-rule:nonzero;"/>
    <g>
        <path d="M636.605,382.823C637.845,385.914 638.693,389.158 640.755,391.904C645.726,398.524 653.296,399.945 659.357,395.163C661.559,393.426 663.283,391.212 662.318,388.133C661.59,385.81 659.968,384.33 657.353,384.808C654.589,385.314 652.961,383.949 651.757,381.781C650.551,379.61 651.416,377.804 652.83,376.048C654.587,373.865 656.731,372.268 659.37,371.378C675.792,365.839 690.994,367.15 705.365,377.916C725.509,393.007 735.932,423.023 730.292,443.226C728.165,450.846 723.254,456.72 718.742,462.794C713.065,470.437 706.229,477.083 698.982,483.278C698.179,483.964 696.687,484.611 697.354,485.933C697.967,487.146 699.408,486.736 700.493,486.428C702.703,485.802 704.427,486.295 705.57,488.344C706.339,489.722 707.003,490.211 708.288,488.704C709.751,486.988 711.872,486.658 714.038,486.811C718.211,487.104 722.38,487.441 726.552,487.745C731.419,488.099 736.154,487.509 740.731,485.76C750.282,482.109 760.247,479.482 769.174,474.291C772.744,472.215 776.677,470.612 778.569,466.428C779.099,465.256 780.419,464.463 781.258,463.403C782.207,462.203 784.269,462.699 784.756,460.647C786.071,455.1 788.454,449.594 785.171,444.004C783.908,441.855 782.198,439.974 780.791,437.904C778.171,434.051 777.275,429.917 778.966,425.407C779.296,424.529 779.531,423.607 779.732,422.689C780.937,417.177 783.89,413.145 788.879,410.235C793.599,407.482 798.163,404.807 803.666,403.696C806.449,403.134 809.177,402.069 812.062,401.592C818.749,400.487 824.71,402.454 830.367,405.659C834.502,408.002 836.102,411.498 835.283,415.586C834.395,420.016 829.881,424.941 826.137,425.458C823.591,425.81 821.448,424.677 819.401,423.354C819.064,423.136 818.704,422.774 818.942,422.316C819.233,421.757 819.768,421.745 820.285,421.98C821.141,422.369 821.983,422.787 822.824,423.206C824.897,424.238 826.766,423.786 828.241,422.165C829.806,420.445 829.928,418.457 828.836,416.349C824.284,407.569 813.682,405.167 804.589,411.024C800.321,413.773 796.865,417.42 794.284,421.813C792.261,425.256 792.77,427.263 796.035,429.53C802.108,433.749 802.845,436.049 799.578,442.576C797.709,446.313 797.578,450.225 797.625,454.187C797.639,455.391 795.857,457.338 797.604,457.572C799.231,457.79 798.121,455.421 798.481,454.252C800.072,449.09 800.853,443.485 803.444,438.896C805.006,436.129 806.594,433.222 808.346,430.498C810.014,427.906 812.816,426.716 815.898,426.672C820.016,426.614 823.901,428.097 827.896,428.748C834.746,429.863 837.647,435.568 841.61,439.854C843.699,442.113 844.25,445.924 842.767,449.072C841.358,452.062 838.577,453.26 835.222,453.131C830.791,452.96 828.32,452.035 826.656,449.71C827.485,448.952 828.186,449.658 828.881,449.932C832.075,451.192 834.814,449.077 834.326,445.663C834.016,443.498 833.082,441.647 831.105,440.549C827.808,438.717 824.254,438.41 820.797,439.741C817.898,440.858 815.931,442.831 816.567,446.499C817.091,449.516 816.174,452.079 813.132,453.53C811.565,454.277 811.51,455.378 812.386,456.874C813.806,459.299 815.21,462.906 812.744,464.317C808.962,466.482 807.319,469.788 805.091,472.983C804.151,474.33 802.377,475.361 800.442,475.249C798.671,475.147 798.281,476.061 798.406,477.57C798.474,478.391 798.581,479.263 798.382,480.038C798.182,480.818 797.718,481.659 796.804,481.842C795.608,482.082 795.268,481.021 794.715,480.285C793.904,479.205 794.197,477.568 792.905,476.733C791.939,477.78 792.784,478.738 793.11,479.65C793.525,480.811 793.87,481.832 792.605,482.686C791.205,483.631 789.707,483.848 788.121,483.326C786.772,482.881 786.592,481.897 786.754,480.579C787.038,478.279 785.447,476.694 784.242,475.025C783.435,473.908 782.544,474.69 781.833,475.276C781.064,475.91 781.396,476.519 782.032,477.091C782.649,477.647 783.296,478.204 783.773,478.873C785.846,481.776 785.611,482.997 782.601,484.94C776.616,488.802 770.725,492.779 766.099,498.311C764.892,499.755 763.699,501.234 763.106,503.062C762.559,504.747 762.546,506.469 763.94,507.726C765.411,509.052 766.856,508.111 768.221,507.276C768.926,506.844 769.651,506.446 770.466,505.975C769.43,509.393 766.156,511.239 763.012,510.301C759.429,509.232 757.619,506.019 758.847,502.414C760.239,498.326 762.579,494.722 765.036,491.184C765.942,489.881 767.974,488.536 767,486.918C766.053,485.344 763.759,485.865 762.013,485.911C757.803,486.021 753.697,486.896 749.663,488.018C734.598,492.207 720.03,498.108 704.563,500.946C701.156,501.572 698.282,503.698 695.707,506.069C691.087,510.321 685.433,510.444 679.765,509.626C676.555,509.163 675.309,505.804 676.849,502.718C679.36,497.686 683.182,494.239 688.899,493.226C689.785,493.069 690.844,493.261 691.36,492.201C691.375,493.074 692.096,493.349 692.636,493.825C695.166,496.05 695.144,496.842 692.655,499.33C692.342,499.643 691.729,499.897 692.305,500.796C693.841,500.411 695.14,499.63 695.565,498.005C696,496.342 695.241,494.952 693.893,493.936C693.075,493.319 692.195,492.786 691.343,492.215C686.512,492.386 682.209,493.69 678.565,497.165C675.632,499.962 671.969,500.612 667.826,500.394C662.947,500.137 658.036,499.992 653.116,500.153C637.076,500.677 622.423,495.942 608.79,487.753C605.05,485.507 601.567,482.813 597.33,481.471C596.643,481.253 595.752,480.971 595.776,480.129C595.8,479.308 596.68,479.039 597.38,478.844C600.097,478.089 602.824,477.373 605.547,476.645C606.909,476.281 607.994,476.964 609.047,477.638C617.835,483.266 627.734,486.172 637.738,488.239C644.931,489.725 652.448,489.4 659.888,489.123C668.556,488.8 675.158,484.69 681.186,479.148C683.806,476.739 685.217,473.628 685.619,470.031C686.036,466.293 686.705,462.584 687.141,458.848C687.35,457.057 688.089,455.301 689.43,454.544C694.591,451.628 697.768,446.446 702.824,443.392C709.878,439.131 715.763,440.041 720.652,446.59C721.279,447.429 721.89,448.955 723.242,448.072C724.437,447.293 723.782,446.098 723.159,445.026C718.823,437.572 711.679,436.144 703.113,441.037C699.352,443.185 696.09,445.882 693.278,449.204C686.095,457.692 672.602,461.458 661.943,457.952C659.069,457.007 656.123,456.027 653.538,454.505C645.347,449.681 639.151,443.217 637.566,433.337C637.013,429.891 637.235,426.657 639.777,423.94C642.174,421.379 644.173,421.272 646.727,423.611C647.652,424.457 648.598,425.281 649.492,426.159C650.327,426.978 651.07,427.92 652.425,427.067C653.619,426.315 654.202,425.224 653.934,423.877C653.629,422.349 653.143,420.923 651.835,419.794C646.304,415.023 637.642,417.036 635.322,423.905C633.481,429.352 631.877,434.899 630.553,440.493C629.499,444.941 627.999,449.101 625.386,452.851C619.606,461.146 613.267,468.9 604.04,473.61C590.448,480.548 576.325,481.937 561.499,478.01C549.308,474.78 539.114,467.934 528.619,461.428C517.325,454.426 509.746,444.339 504.093,432.756C501.003,426.423 501.234,419.091 500.285,412.179C498.442,398.751 500.881,385.548 504.544,372.791C506.73,365.178 513.438,360.655 520.94,357.95C524.216,356.768 527.636,356.282 531.109,356.213C540.779,356.021 547.314,360.203 550.721,369.301C554.114,378.365 554.242,387.283 547.029,394.755C543.043,398.884 537.715,399.902 532.212,398.497C526.15,396.95 522.955,386.689 526.818,381.809C528.782,379.326 535.289,377.862 538.142,379.289C539.824,380.132 540.863,381.656 540.218,383.368C539.437,385.439 537.853,384.629 536.334,383.82C533.754,382.446 532.161,384.426 530.776,386.005C529.065,387.956 529.679,390.203 531.106,392.054C532.756,394.194 535.044,395.075 537.783,394.543C540.016,394.11 541.927,393.004 543.528,391.476C550.886,384.456 549.064,369.772 540.139,365.074C534.012,361.849 527.769,362.66 521.73,365.559C517.089,367.787 513.969,371.403 512.142,376.26C509.681,382.802 508.394,389.559 508.226,396.506C508.084,402.36 507.929,408.245 508.355,414.075C508.959,422.355 512.659,429.586 517.597,436.058C526.612,447.874 538.147,456.146 552.727,459.854C556.719,460.869 556.803,461.089 555.986,465.35C555.472,468.034 554.884,470.717 556.311,473.316C556.87,474.333 557.527,475.604 558.8,475.333C560.346,475.003 559.794,473.5 559.694,472.436C559.48,470.15 559.018,467.882 558.908,465.594C558.784,463.009 560.008,461.571 562.794,461.372C569.477,460.894 576.069,460.095 582.29,457.17C585.181,455.81 587.654,454.042 590.149,452.137C594.554,448.774 595.309,448.666 598.237,452.647C600.262,455.399 602.514,458.071 605.392,460.059C606.247,460.649 607.135,461.207 608.061,461.675C608.871,462.085 609.759,462.006 610.373,461.303C611.099,460.472 610.459,459.706 609.973,459.063C609.077,457.879 607.834,457.104 606.565,456.348C603.403,454.464 600.579,452.22 598.303,449.243C596.617,447.036 596.72,445.104 598.265,442.996C599.686,441.057 601.08,439.097 602.447,437.12C603.64,435.394 604.852,433.597 605.289,431.558C606.172,427.431 607.767,424.569 612.755,424.957C614.457,425.089 615.843,423.405 617.46,422.156C615.575,422.092 614.334,423.153 612.897,423.561C610.401,424.271 608.816,423.083 609.286,420.622C611.967,406.593 610.845,392.467 610.511,378.359C610.216,365.867 612.769,353.852 617.168,342.27C618.859,337.815 621.797,333.863 624.57,329.93C626.366,327.382 628.864,327.792 631.386,328.408C638.625,330.178 639.166,331.125 634.512,336.683C629.179,343.052 626.341,350.471 624,358.208C623.069,361.284 620.344,362.129 616.88,360.4C616.15,360.035 615.336,358.726 614.572,359.924C613.923,360.942 614.903,361.868 615.716,362.557C616.967,363.618 618.51,364.068 620.078,364.117C622.014,364.176 622.617,365.155 622.632,366.896C622.735,379.336 622.933,391.775 622.94,404.215C622.942,409.15 621.711,413.894 619.08,419.017C621.633,417.68 622.165,415.862 622.766,414.198C625.011,407.981 625.113,401.439 625.039,394.981C624.974,389.384 624.853,383.792 624.1,378.152C623.176,371.231 624.852,364.209 626.583,357.375C628.194,351.014 630.927,345.235 634.703,339.846C639.072,333.609 645.328,331.999 651.85,335.839C655.055,337.726 655.167,339.034 652.321,341.31C644.743,347.371 641.642,356.059 638.538,364.755C636.422,370.679 636.418,376.816 636.573,382.978C636.117,381.436 635.061,381.244 633.65,381.557C632.146,381.891 630.649,382.224 629.061,381.682C628.141,381.369 626.781,380.09 626.168,381.724C625.621,383.182 626.499,384.563 627.96,385.283C630.624,386.597 635.079,385.301 636.605,382.823ZM687.985,392.92C682.667,384.959 674.959,381.241 665.65,380.247C663.691,380.038 661.427,380.349 661.2,382.049C660.973,383.751 663.432,383.74 664.921,383.928C667.704,384.278 670.551,384.126 673.126,385.626C679.734,389.473 684.823,394.653 687.731,401.82C691.522,411.16 689.002,421.472 681.286,427.976C680.017,429.046 678.705,430.133 676.918,430.278C675.601,430.386 674.225,430.181 673.52,429.103C672.762,427.942 674.206,427.289 674.79,426.558C677.1,423.664 677.181,422.01 674.908,419.423C672.593,416.788 669.705,416.256 667.098,417.986C662.443,421.076 662.043,427.228 665.923,431.285C671.212,436.815 682.488,433.684 686.824,428.011C695.998,416.007 693.084,400.779 687.985,392.92ZM702.629,467.524C706.317,464.684 709.626,461.518 711.973,457.484C713.784,454.372 713.653,450.993 711.546,449.818C708.658,448.208 706.927,450.54 705.069,452.135C700.829,455.776 701.074,461.111 699.933,465.916C699.722,466.806 699.225,468.011 700.021,468.573C701.107,469.342 701.766,467.914 702.629,467.524ZM701.162,394.171C698.748,395.698 698.1,399.644 699.828,402.286C702.543,406.437 706.184,407.868 709.227,405.981C711.74,404.423 712.372,400.805 710.641,397.885C708.872,394.903 703.397,392.757 701.162,394.171ZM668.316,405.189C670.558,408.601 672.728,409.169 675.809,407.149C678.063,405.671 679.102,402.023 677.787,400.2C675.481,396.999 671.995,396.07 669.159,397.901C666.538,399.593 666.254,402.051 668.316,405.189ZM622.016,440.27C624.968,438.389 626.001,435.12 624.459,432.537C622.866,429.869 619.227,428.953 616.547,430.546C613.626,432.282 613.077,435.956 615.24,439.291C616.658,441.478 619.48,441.885 622.016,440.27ZM645.014,432.215C644.624,437.398 648.995,444.232 654.293,447.169C660,450.332 666.048,452.074 672.625,450.526C666.701,450.639 661.002,450.104 655.98,446.34C651.23,442.78 648.101,437.946 645.014,432.215ZM591.387,466.4C589.549,463.688 587.235,463.289 584.42,465.201C582.023,466.828 581.806,469.035 583.755,471.966C585.172,474.096 587.556,474.405 590.018,472.777C592.602,471.069 593.071,468.884 591.387,466.4ZM685.904,373.418C684.464,371.129 681.248,370.536 678.726,372.095C675.967,373.801 675.255,376.542 676.922,379.035C678.293,381.084 681.66,381.364 684.268,379.646C686.507,378.172 687.211,375.493 685.904,373.418ZM615.245,393.894C615.922,395.374 617.038,395.309 618.304,394.575C620.167,393.495 620.639,390.649 619.084,388.472C618.117,387.12 617.103,385.153 614.844,386.635C613.195,387.717 613.395,390.988 615.245,393.894ZM628.359,338.759C628.728,338.403 629.377,337.734 630.07,337.114C631.423,335.902 631.334,334.378 630.442,333.164C629.283,331.587 627.957,332.961 626.91,333.578C626.053,334.084 625.426,335.015 624.771,335.818C623.879,336.911 623.083,338.133 624.365,339.413C625.67,340.716 626.848,339.706 628.359,338.759ZM633.031,354.339C633.914,355.346 635.013,357.285 637.446,355.723C639.229,354.578 639.38,352.17 637.832,349.928C636.666,348.24 635.179,347.592 633.309,348.782C631.107,350.183 631.357,351.961 633.031,354.339ZM798.901,434.633C794.483,436.491 790.128,438.552 785.287,439.043C788.183,440.351 796.413,437.8 798.901,434.633ZM786.912,424.852C787.861,420.901 791.341,418.365 792.911,414.286C788.353,417.095 785.897,421.334 786.912,424.852ZM804.914,445.013C808.055,449.431 810.76,450.428 814.899,448.372C810.797,448.121 807.777,446.805 804.914,445.013ZM718.023,427.047C721.122,428.189 724.387,428.821 727.513,429.915C724.915,427.317 721.655,426.63 718.023,427.047ZM695.855,440.827C701.434,436.836 701.434,436.836 701.137,434.125C699.354,436.218 697.043,437.483 695.855,440.827ZM789.981,464.395C791.364,466.867 789.285,468.838 788.84,471.235C792.712,469.058 793.037,466.965 789.981,464.395ZM802.147,448.488C803.447,452.175 806.417,451.44 808.696,452.016C806.685,450.932 804.674,449.849 802.147,448.488ZM789.763,433.767C792.224,433.532 793.728,432.894 794.799,431.379C793.066,431.572 791.454,432.01 789.763,433.767ZM789.256,428.152C787.861,427.783 786.965,427.808 785.994,428.586C787.177,429.157 788.018,428.786 789.256,428.152Z" style="fill-rule:nonzero;"/>
        <path d="M896.948,359.305C895.239,358.568 893.982,359.697 892.741,360.473C889.99,362.192 887.471,364.247 885.169,366.534C878.852,372.806 871.156,377.039 863.433,381.208C861.808,382.085 859.923,382.75 858.097,382.946C834.841,385.452 814.518,379.545 798.709,361.525C791.626,353.452 788.63,343.393 787.327,333.08C786.315,325.069 790.157,318.344 796.206,313.013C798.456,311.029 800.324,308.642 803.465,307.747C809.178,306.119 815.98,309.912 817.474,315.794C818.706,320.645 814.158,327.751 809.076,328.904C806.574,329.471 804.499,328.732 802.98,326.69C801.835,325.152 802.436,323.814 803.67,322.491C805.256,326.679 807.014,327.259 810.677,324.963C814.517,322.555 816.059,317.265 813.94,313.768C811.82,310.27 806.435,309.223 802.475,311.54C794.121,316.428 790.034,325.88 792.141,336.509C795.882,355.377 807.669,367.224 825.362,373.696C831.531,375.953 837.915,377.077 844.473,376.409C851.367,375.707 856.938,372.713 861.773,367.446C867.813,360.865 872.333,353.536 876.226,345.587C878.263,341.427 880.978,337.384 884.188,334.062C889.313,328.757 895.981,327.32 901.197,333.748C902.318,335.129 903.449,336.502 904.613,337.846C904.979,338.269 905.197,339.129 906.004,338.756C906.831,338.373 906.774,337.618 906.503,336.867C905.024,332.768 902.301,329.919 898.071,328.694C892.601,327.109 884.931,329.347 882.147,334.588C880.536,337.621 879.967,337.455 878.537,334.531C877.427,332.26 874.708,331.728 872.783,333.575C871.283,335.014 870.031,336.667 869.183,338.651C867.168,343.36 865.318,348.128 863.009,352.728C858.548,361.613 851.904,368.323 843.626,373.577C842.936,374.015 842.109,374.529 841.351,374.52C835.244,374.446 829.233,373.704 823.626,371.093C821.584,370.142 821.222,368.896 823.475,367.554C831.292,362.897 836.174,355.683 840.478,347.958C841.953,345.31 841.311,342.933 839.865,340.573C837.163,336.163 832.157,333.898 828.535,335.435C827.657,335.808 826.615,336.125 826.627,337.241C826.639,338.365 827.413,339.161 828.458,339.573C829.034,339.801 829.659,339.919 830.271,340.038C835.779,341.105 837.445,345.12 834.207,349.712C830.476,355.005 826.342,359.957 821.522,364.314C818.089,367.417 815.865,367.665 812.015,365.03C809.689,363.437 807.463,361.693 805.238,359.959C803.667,358.735 803.496,357.346 805.284,356.206C810.704,352.752 814.828,348.047 818.924,343.155C824.121,336.947 829.119,330.639 832.388,323.231C837.428,311.809 839.776,299.995 836.301,287.565C834.306,280.426 833.245,273.025 830.179,266.19C828.799,263.113 826.916,260.354 825.023,257.59C824.636,257.024 823.874,256.456 824.27,255.685C824.735,254.781 825.781,254.899 826.529,255.075C828.696,255.586 830.545,255.322 832.424,253.96C835.767,251.537 836.169,249.732 835.592,245.648C833.994,234.341 827.097,226.49 818.778,219.795C803.062,207.147 786.773,195.239 770.328,183.55C768.273,182.089 766.245,180.602 765.061,178.284C764.513,177.212 764.293,176.09 765.111,175.03C765.897,174.013 766.932,174.461 767.975,174.462C774.089,174.467 777.648,178.618 781.491,182.454C797.5,198.434 816.571,209.385 837.951,216.425C854.714,221.945 867.641,232.592 878.336,246.256C879.572,247.835 882.199,249.35 881.371,251.342C880.57,253.268 877.789,251.897 875.906,252.167C868.825,253.183 862.338,255.489 856.577,259.821C850.235,264.589 848.683,274.694 853.145,282.959C856.605,289.367 865.241,292.498 872.148,289.685C874.841,288.589 877.498,287.245 878.962,284.475C879.126,284.164 878.967,283.682 878.955,283.146C876.782,283.608 876.807,285.893 875.34,286.929C869.574,291.001 861.084,290.18 856.142,284.833C850.71,278.956 850.862,269.571 855.838,263.343C862.777,254.657 876.905,253.933 884.6,256.461C906.994,263.818 916.193,282.571 917.233,301.722C917.931,314.573 914.663,327.015 910.201,339.053C909.255,341.607 907.481,343.746 905.836,345.92C905.234,346.717 904.307,347.595 905.055,348.718C905.909,350.002 907.124,349.305 908.194,349.021C909.606,348.647 910.987,348.157 912.397,347.776C914.258,347.275 915.344,347.953 915.091,349.953C914.714,352.926 915.986,353.076 918.539,352.652C932.141,350.395 944.053,344.299 955.288,336.698C963.362,331.236 969.933,313.105 964.477,300.726C960.875,292.553 955.991,285.646 948.311,280.896C944.666,278.641 941.077,276.292 937.399,274.093C936.527,273.572 935.943,272.917 935.497,272.101C934.503,270.284 933.128,268.998 931.15,268.24C928.99,267.412 927.676,265.54 926.583,263.643C922.741,256.971 924.135,244.03 929.183,238.223C931.458,235.605 934.141,233.444 936.825,231.291C947.37,222.833 959.564,217.765 972.374,213.882C977.524,212.322 982.698,211.736 988.007,212.213C993.286,212.687 999.975,219.255 1000.28,224.511C1000.61,230.249 996.593,233.604 992.678,236.77C989.289,239.511 985.32,239.875 980.761,238.701C982.215,236.831 983.964,236.283 985.753,236.042C988.752,235.637 991.013,233.966 992.895,231.861C997.201,227.043 995.118,220.583 988.835,218.994C985.404,218.126 981.836,218.21 978.572,219.233C965.282,223.399 952.815,229.125 943.267,239.761C942.02,241.151 940.928,242.728 940.004,244.354C937.336,249.056 937.119,253.647 943.051,256.739C945.052,257.782 946.594,259.365 946.602,262.165C948.259,260.811 949.703,260.449 951.373,262.05C954.642,265.182 951.161,267.249 950.204,269.798C952.306,269.126 953.035,268.777 953.691,266.837C954.547,264.308 955.804,263.73 958.057,265.129C958.55,265.436 959.101,266.03 959.748,265.595C960.568,265.044 960.051,264.32 959.852,263.634C958.993,260.679 960.021,258.534 962.283,256.448C967.052,252.052 972.767,250.129 978.985,249.45C984.677,248.829 991.601,254.072 992.821,259.651C993.01,260.515 993.056,261.345 992.214,261.898C990.465,263.047 988.742,264.249 986.91,265.25C986.243,265.615 985.162,265.624 984.627,264.882C984.229,264.331 984.725,263.663 985.216,263.251C986.892,261.844 986.864,260.33 985.765,258.555C984.521,256.546 982.847,255.567 980.507,256.036C976.775,256.784 973.106,258.149 972.123,262.157C971.012,266.689 972.504,270.862 975.997,274.112C977.811,275.799 980.092,277.075 980.039,280.084C980.03,280.572 980.974,281.114 981.53,281.567C984.108,283.674 984.011,284.919 981.174,286.802C979.646,287.816 977.65,288.073 976.278,289.921C978.953,290.552 980.951,289.436 982.65,287.968C983.92,286.87 984.879,286.683 986.198,287.7C988.667,289.606 992.179,290.095 993.241,293.889C994.002,296.604 994.013,298.956 991.974,300.812C990.285,302.349 989.972,303.995 990.731,305.862C992.035,309.073 991.191,312.01 989.966,314.96C989.365,316.409 988.68,317.833 988.202,319.322C987.435,321.709 986.553,323.548 983.91,320.928C983.734,321.381 983.545,321.654 983.608,321.738C989.106,329.047 985.733,335.585 981.676,341.907C979.966,344.573 979.216,346.989 981.267,349.655C982.618,351.411 984.186,352.298 986.315,350.622C987.627,349.59 989.061,348.686 990.527,347.886C992.713,346.694 994.496,345.422 992.571,342.382C995.345,343.768 996.026,346.215 994.715,348.903C991.918,354.641 983.66,357.924 977.451,355.767C972.173,353.934 968.974,347.43 970.255,340.969C970.723,338.611 971.396,336.293 971.962,333.953C972.526,331.621 973.074,329.286 973.752,326.437C971.837,327.461 971.282,328.92 971.214,330.344C970.851,337.871 966.576,341.99 959.813,344.398C955.987,345.761 952.242,347.336 948.378,348.638C944.979,349.783 941.841,351.811 938.721,353.527C932.482,356.957 925.897,359.627 919.658,363.013C911.438,367.473 904.6,373.96 896.506,378.602C893.498,380.327 889.936,379.939 887.598,377.327C885.529,375.016 885.503,372.203 887.613,369.32C889.527,366.705 891.463,364.103 893.491,361.577C894.366,360.486 895.208,359.157 896.952,359.295C898.728,358.235 900.413,358.761 901.324,360.284C902.871,362.866 900.534,364.184 898.471,365.748C901.201,365.456 902.747,364.578 904.183,362.761C905.956,360.517 905.031,357.833 902.198,357.343C900.147,356.989 898.224,357.388 896.948,359.305ZM897.556,343.319C897.415,345.712 896.479,347.708 894.762,349.411C891.847,352.302 888.551,354.674 885.079,356.827C884.456,357.213 883.837,357.68 883.062,357.223C882.477,356.877 881.865,356.088 881.487,357.391C881.318,357.975 880.977,358.663 881.521,359.152C882.259,359.816 882.912,359.118 883.466,358.742C887.187,356.226 890.999,353.82 894.534,351.061C896.902,349.212 898.208,346.562 897.882,343.371C898.431,339.803 897.704,338.4 895.075,337.953C891.82,337.399 889.012,339.261 888.355,342.424C889.197,342.463 889.27,341.741 889.574,341.235C891.42,338.162 894.225,338.005 896.174,340.884C896.696,341.654 897.099,342.505 897.556,343.319ZM909.839,300.89C910.853,298.639 910.911,298.635 910.787,296.779C910.276,289.111 907.982,282.123 903.046,276.079C896.637,268.233 889.043,262.389 878.684,260.867C872.7,259.987 867.02,260.304 862.084,264.329C866.997,262.171 871.973,260.375 877.461,261.815C893.365,265.989 903.474,276.148 908.12,291.797C908.961,294.63 909.239,297.631 909.839,300.89ZM857.928,324.156C862.419,321.24 863.395,317.017 860.603,312.589C858.074,308.578 853.617,307.556 849.79,310.109C846.129,312.551 844.996,317.536 847.281,321.141C849.959,325.366 854.21,326.57 857.928,324.156ZM843.314,251.279C845.646,254.824 848.66,255.455 852.104,253.121C856.228,250.326 857.474,246.985 855.499,244.022C852.996,240.268 849.216,239.444 845.479,241.836C841.98,244.077 841.1,247.913 843.314,251.279ZM880.727,310.191C891.785,306.532 902.339,306.786 911.954,314.309C903.803,305.022 890.584,302.157 880.727,310.191ZM911.562,322.886C906.575,313.606 889.178,310.364 880.802,317.375C886.643,317.666 891.547,314.414 897.146,315.755C902.59,317.059 907.213,319.44 911.562,322.886ZM896.49,290.368C894.59,287.437 892.194,286.93 889.346,288.857C887.067,290.398 886.64,293.629 888.352,296.378C889.864,298.804 892.092,299.05 895.127,297.125C898.15,295.208 898.501,293.47 896.49,290.368ZM858.058,269.081C855.035,275.897 856.288,280.557 861.299,283.437C865.507,285.855 867.93,285.735 869.94,283.007C861.256,284.97 857.062,280.4 858.058,269.081ZM973.503,298.244C976.02,294.042 971.98,283.373 967.542,282.045C969.984,287.397 973.848,292.024 973.503,298.244ZM986.729,296.79C987.577,296.241 988.212,295.873 988.797,295.438C989.341,295.032 990.323,294.698 989.795,293.808C989.079,292.6 988.313,293.626 987.766,294.071C985.206,296.151 982.242,296.867 979.03,296.969C978.236,296.994 976.828,296.614 977.002,298.065C977.147,299.271 978.364,299.083 979.31,298.977C982.007,298.675 984.748,298.517 986.729,296.79ZM817.482,352.611C816.131,353.761 815.318,355.099 816.426,356.692C817.802,358.669 819.791,358.111 821.452,357.246C822.981,356.451 823.117,355.089 822.04,353.586C820.749,351.786 819.238,351.706 817.482,352.611ZM931.709,242.68C931.968,242.9 932.227,243.12 932.486,243.34C935.379,239.744 938.271,236.147 941.164,232.55C937.534,235.509 933.665,238.258 931.709,242.68ZM982.597,330.371C980.33,326.114 980.144,326.044 976.47,327.877C978.289,329.129 980.106,329.795 982.597,330.371ZM974.328,333.275C976.562,334.422 978.229,335.237 980.126,335.364C980.57,335.394 981.151,335.123 981.469,334.796C981.797,334.458 981.498,334.021 981.078,333.834C979.137,332.97 977.224,331.83 974.328,333.275ZM872.043,280.351C874.36,279.478 873.387,277.94 873.186,276.636C872.951,275.115 873.345,273.669 873.918,271.674C869.368,274.33 873.649,277.819 872.043,280.351ZM949.416,225.37C951.86,224.443 954.675,224.183 956.816,222.044C955.584,221.643 954.922,222.296 954.255,222.628C952.597,223.452 951.024,224.445 949.416,225.37ZM939.643,267.766C942.289,268.527 943.95,267.135 945.346,265.206C943.783,266.766 941.828,267.432 939.643,267.766ZM883.094,353.928C884.806,352.114 885.375,350.828 884.901,348.769C883.876,350.332 883.396,351.625 883.094,353.928ZM955.154,278.944C956.425,278.829 957.055,278.62 957.314,277.763C956.405,277.51 955.986,278.134 955.154,278.944ZM974.017,337.059C975.014,337.685 975.901,338.692 977.597,338.338C976.495,337.044 975.422,336.631 974.017,337.059ZM933.337,262.274C934.123,264.142 934.123,264.142 936.134,264.525C934.966,263.586 934.152,262.93 933.337,262.274ZM877.664,272.669C878.584,274.089 879.104,274.892 880.035,276.33C879.64,274.507 879.112,273.703 877.664,272.669ZM963.167,273.351C962.929,272.994 962.657,272.521 962.249,272.787C962.009,272.944 961.9,273.535 961.972,273.88C962.069,274.35 962.57,274.436 962.99,274.315C963.668,274.121 963.226,273.682 963.167,273.351ZM975.175,342.575C974.879,342.584 974.575,342.542 974.554,342.603C974.467,342.844 974.468,343.116 974.437,343.377C974.621,343.362 974.905,343.413 974.968,343.317C975.097,343.122 975.107,342.849 975.175,342.575Z" style="fill-rule:nonzero;"/>
        <path d="M912.194,179.309C910.886,181.608 909.889,182.838 908.335,183.591C901.1,187.096 893.341,189.836 886.768,194.315C877.996,200.292 867.995,200.328 858.373,202.196C853.985,203.047 849.985,200.536 846.805,197.524C844.079,194.943 841.093,193.507 837.37,193.22C832.547,192.848 828.532,191.025 825.937,186.577C824.889,184.781 822.806,184.288 820.762,184.033C816.919,183.553 813.757,180.149 814.012,176.331C814.185,173.747 813.377,171.923 811.498,170.285C809.057,168.155 808.439,165.249 809.129,162.278C809.799,159.396 812.505,158.789 814.987,158.259C816.969,157.836 818.849,157.89 819.266,160.528C819.379,161.237 819.715,161.78 820.465,161.635C821.271,161.48 821.173,160.708 821.132,160.111C821.034,158.691 820.451,157.416 819.363,156.549C814.549,152.71 809.07,152.507 803.649,155.622C799.988,157.725 796.89,160.527 793.608,163.108C784.975,169.894 775.733,169.107 768.474,160.39C762.349,153.034 763.03,142.773 770.001,135.567C773.615,131.83 778.096,129.751 783.068,128.544C786.286,127.763 788.91,128.846 790.912,131.252C791.816,132.338 793.305,133.424 792.42,135.353C791.504,137.35 789.778,137.629 787.971,137.545C786.085,137.457 784.252,137.288 782.388,137.881C777.124,139.554 774.234,143.797 774.899,149.05C775.443,153.341 780.113,157.2 785.031,157.323C786.996,157.373 788.979,157.303 791.473,156.094C789.662,156.138 788.529,156.202 787.398,156.187C781.581,156.111 777.799,152.655 777.096,146.864C776.908,145.319 777.015,143.693 778.256,142.83C780.997,140.922 783.338,137.906 787.56,139.752C790.051,140.84 792.51,139.734 794.151,137.559C795.739,135.455 795.282,133.291 793.977,131.121C792.477,128.627 790.436,127.039 787.549,126.594C784.344,126.099 782.195,124.463 781.369,121.196C780.948,119.528 779.728,118.307 778.547,117.12C775.434,113.99 772.956,110.367 769.17,107.727C764.518,104.483 762.889,99.181 763.394,93.558C763.746,89.638 769.616,84.932 773.546,84.949C773.346,85.769 772.548,85.931 771.984,86.34C764.182,92 764.881,102.984 773.345,107.634C784.372,113.691 796.017,111.016 803.104,100.792C804.121,99.324 805.254,97.974 806.63,96.82C809.668,94.272 812.799,93.321 816.25,96.069C816.702,96.429 817.29,97.021 817.853,96.355C818.378,95.732 817.751,95.214 817.405,94.714C815.69,92.234 812.912,91.546 810.232,92.99C807.139,94.656 804.706,97.04 802.566,99.822C796.857,107.242 788.942,109.595 780.032,108.878C773.773,108.375 770.88,105.109 769.362,97.993C767.627,89.863 770.972,86.049 779.253,86.703C780.953,86.837 782.59,86.582 784.144,85.839C784.684,85.581 785.281,85.749 785.544,86.193C785.872,86.747 785.369,87.142 784.919,87.427C784.389,87.763 783.849,88.086 783.298,88.386C779.184,90.625 778.222,92.863 779.936,96.97C780.792,99.021 782.715,99.726 784.85,99.691C788.455,99.632 791.403,97.969 794.35,96.034C799.22,92.835 802.66,88.148 806.972,84.369C810.312,81.442 813.762,80.47 817.922,81.6C821.68,82.621 824.59,84.492 825.348,88.727C825.716,90.777 826.372,92.78 826.964,94.785C828.301,99.314 830.691,101.124 835.431,101.198C839.344,101.259 843.105,100.276 846.884,99.444C848.498,99.089 849.735,99.099 850.872,100.802C855.216,107.308 861.746,108.47 868.523,103.983C870.188,102.881 871.679,102.351 873.732,102.586C877.687,103.038 884.092,97.558 885.844,92.535C888.341,85.371 886.527,79.12 881.594,73.672C878.995,70.802 876.096,68.208 872.524,66.545C868.462,64.654 863.224,65.679 860.025,68.794C858.513,70.265 857.953,71.88 858.578,73.891C859.171,75.794 860.76,76.215 862.453,76.606C863.601,76.871 865.375,76.128 865.769,77.651C866.168,79.191 864.481,80.596 863.596,81.137C859.473,83.656 854.743,86.22 850.035,84.198C845.404,82.209 840.706,79.564 838.175,74.614C837.688,73.661 837.232,72.731 837.523,71.641C837.724,70.884 838.223,70.311 839.002,70.168C839.981,69.989 840.353,70.831 840.435,71.492C840.913,75.305 843.082,77.22 846.834,77.596C847.807,77.693 848.501,78.427 849.047,79.226C851.944,83.468 855.848,84.135 860.534,81.14C859.808,79.941 858.614,80.604 857.746,80.595C854.691,80.565 852.179,79.61 850.545,76.959C849.862,75.85 848.915,75.35 847.746,75.191C845.053,74.826 843.707,72.968 843.198,70.64C842.763,68.648 841.811,67.315 840.265,66.058C837.479,63.792 836.643,59.805 837.997,56.642C839.371,53.434 842.262,51.927 846.208,52.289C847.407,52.399 848.635,52.946 849.929,52.196C844.944,49.084 841.892,44.51 839.374,39.418C835.367,31.319 833.543,22.903 835.093,13.903C835.323,12.566 835.545,11.183 836.077,9.954C836.753,8.395 837.27,6.342 839.639,6.659C841.866,6.957 842.329,8.809 842.472,10.625C842.688,13.361 843.329,15.965 844.176,18.568C847.815,29.754 855.208,37.796 864.987,43.96C867.199,45.355 869.243,46.7 872.035,46.379C872.895,46.281 873.898,46.725 874.724,47.142C880.247,49.932 885.401,53.77 889.382,58.08C900.137,69.725 903.945,84.13 902.258,99.912C901.756,104.606 900.876,109.246 899.346,113.713C898.3,116.766 897.241,119.974 892.882,119.682C891.916,119.618 891.073,120.635 890.411,121.482C884.511,129.035 876.334,131.703 867.189,132.733C859.881,133.557 852.706,131.356 845.333,132.604C838.538,133.755 832.26,136.218 825.883,138.489C823.79,139.234 823.334,141.13 824.65,143.139C826.259,145.594 828.486,147.344 831.251,148.191C837.022,149.959 840.296,153.904 841.792,159.582C842.972,164.06 845.111,168.061 847.343,172.126C849.357,175.794 851.584,179.395 853.276,183.271C855.83,189.127 860.896,191.345 866.86,191.875C875.175,192.615 883.248,191.076 890.709,187.637C897.453,184.528 904.605,182.668 912.194,179.309ZM823.223,111.636C820.233,108.686 819.451,108.602 815.862,110.843C813.246,112.478 808.425,111.919 806.453,109.473C804.592,107.165 802.849,107.101 800.642,109.172C802.407,109.2 803.7,109.81 804.854,111.001C809.094,115.38 813.886,115.906 819.171,112.615C820.455,111.815 821.703,111.21 823.243,111.568C826.668,114.449 836.752,114.863 841.334,111.546C844.946,108.93 848.258,109.237 851.947,110.475C853.533,111.008 855.094,111.617 856.686,112.131C859.294,112.973 861.72,112.619 864.023,110.577C859.317,111.635 855.517,109.209 851.443,107.842C848.804,106.956 846.362,106.868 843.839,108.837C841.365,110.768 838.153,111.312 835.009,111.79C831.052,112.39 827.151,111.539 823.223,111.636ZM894.71,114.535C903.49,106.49 900.921,70.655 891.468,65.044C891.381,66.493 892.081,67.644 892.864,68.771C896.53,74.046 897.49,80.266 898.548,86.336C899.427,91.382 898.506,96.528 897.886,101.622C897.359,105.955 895.368,109.923 894.71,114.535ZM844.308,177.759C838.723,176.868 836.816,178.765 837.622,183.809C838.13,186.99 837.245,187.725 834.08,186.864C831.627,186.197 829.834,184.596 828.384,182.679C827.458,181.453 826.345,180.798 824.975,180.836C821.297,180.936 819.126,179.124 817.928,175.81C817.778,175.396 817.466,174.829 816.777,175.158C817.006,179.634 818.739,181.575 822.97,182.191C824.602,182.428 825.975,182.795 827.161,184.388C828.889,186.709 831.364,188.414 833.966,189.8C835.447,190.589 836.994,190.71 838.457,189.854C840.107,188.89 839.083,187.407 838.925,186.183C838.226,180.769 838.92,179.539 844.308,177.759ZM814.679,100.354C813.562,98.341 812.065,97.817 810.043,99.101C807.373,100.796 806.182,104.105 807.492,106.291C808.836,108.535 811.61,109.314 813.66,108.024C816.187,106.434 816.593,103.375 814.679,100.354ZM840.715,130.755C832.582,131.096 825.338,131.944 819.094,136.613C817.315,137.944 817.428,139.652 818.269,141.378C819.336,143.573 821.017,145.27 822.887,146.834C824.706,148.355 826.724,149.772 827.197,152.392C827.333,153.142 827.077,154.478 828.158,154.405C829.236,154.331 829.644,153.085 829.817,152.042C830.078,150.475 829.26,149.51 827.955,148.757C825.965,147.609 823.932,146.496 822.098,145.126C819.901,143.484 819.187,141.028 819.576,138.407C819.928,136.037 822.062,135.545 823.97,134.981C827.286,134.002 830.692,133.498 834.12,133.088C836.218,132.837 838.423,132.811 840.715,130.755ZM860.082,199.876C858.052,198.21 856.096,198.052 854.479,197.199C851.247,195.493 848.919,192.785 847.222,189.675C846.127,187.67 848.878,186.807 849.315,185.156C849.354,185.008 849.223,184.815 849.169,184.643C846.147,184.71 844.238,186.814 845.023,189.213C846.745,194.481 853.646,199.618 860.082,199.876ZM792.712,155.477C797.061,154.731 799.553,151.596 801.728,148.154C803.079,146.017 802.218,144.093 800.568,142.569C799.203,141.308 797.583,141.635 796.321,142.761C794.531,144.357 794.404,146.416 794.953,148.537C795.55,148.037 795.724,147.442 795.974,146.881C796.383,145.963 795.68,144.251 797.516,144.354C798.433,144.406 799.559,144.099 800.213,145.366C800.922,146.741 800.427,147.816 799.701,148.84C797.827,151.488 795.693,153.885 792.712,155.477ZM889.605,105.716C887.916,103.154 886.623,102.66 884.84,103.892C882.586,105.449 881.668,109.866 883.131,112.105C884.5,114.199 886.823,114.737 888.791,113.415C891.362,111.689 891.663,108.839 889.605,105.716ZM839.173,25.108C838.798,25.505 838.592,25.619 838.571,25.761C837.862,30.627 843.871,42.331 848.163,44.564C850.351,45.702 851.955,44.647 853.513,43.296C853.834,43.018 854.088,42.663 853.835,42.216C853.569,41.745 853.168,41.932 852.766,42.028C848.236,43.112 846.594,42.506 844.132,38.546C841.608,34.486 839.61,30.191 839.173,25.108ZM798.983,109.739C796.089,110.699 793.24,111.507 790.499,112.589C787.478,113.782 784.515,112.927 780.843,112.151C786.42,116.777 796.17,115.179 798.983,109.739ZM815.064,133.286C811.528,135.59 810.778,139.698 812.965,143.017C815.315,146.585 819.373,148.133 822.278,151.068C821.69,148.588 819.937,147.153 818.119,145.768C812.664,141.612 812.197,139.891 815.064,133.286ZM833.458,154.421C835.819,157.908 837.771,160.801 838.675,164.217C840.705,171.889 840.815,172.035 844.11,173.913C841.463,170.334 840.588,166.976 839.814,163.55C838.767,158.919 836.877,156.135 833.458,154.421ZM820.088,102.365C820.32,106.44 826.889,109.697 830.787,108.053C827.478,105.636 823.01,105.888 820.088,102.365ZM848.429,114.395C849.659,118.697 851.993,122.715 850.1,127.929C853.584,124.786 852.653,118.799 848.429,114.395ZM861.994,127.632C862.908,122.913 862.079,119.288 860.185,115.082C860.016,117.728 861.024,124.958 861.994,127.632ZM781.201,146.43C784.112,152.509 787.883,154.354 792.613,152.056C790.421,150.834 788.036,152.045 785.926,151.171C783.662,150.234 782.865,147.914 781.201,146.43ZM870.356,123.531C871.8,120.741 870.574,116.679 867.583,114.01C868.07,117.468 870.133,120.227 870.356,123.531ZM849.843,61.812C847.942,61.372 846.793,59.752 845.169,60.191C844.381,60.404 844.066,62.045 845.028,62.904C846.706,64.402 848.045,63.279 849.843,61.812ZM814.584,161.489C812.446,162.828 811.653,164.151 812.177,166.023C812.588,167.491 813.025,169.034 815.519,169.036C813.359,166.792 813.946,164.444 814.584,161.489ZM849.808,67.492C854.088,66.534 855.922,63.658 854.216,60.368C853.945,63.575 852.034,65.473 849.808,67.492ZM832.689,120.943C833.37,125.251 833.285,125.372 829.738,124.815C831.289,126.522 832.785,126.923 834.062,125.265C835.406,123.52 834.668,122.044 832.689,120.943ZM844.846,28.574C845.685,31.203 846.196,34.066 849.024,35.401C848.281,32.717 846.646,30.598 844.846,28.574ZM806.106,127.594C807.262,126.027 807.262,126.027 805.455,124.096C805.627,124.782 805.772,125.253 805.857,125.734C805.965,126.342 806.023,126.959 806.106,127.594Z" style="fill-rule:nonzero;"/>
        <path d="M608.067,304.554C606.117,303.82 605.535,305.26 604.69,306.215C603.147,307.96 601.84,307.986 600.515,305.865C594.247,295.833 589.457,285.03 587.754,273.42C585.649,259.064 591.177,246.892 602.243,237.649C607.108,233.585 613.351,232.375 619.719,232.987C622.997,233.301 625.627,235.134 627.571,237.725C631.249,242.622 632.563,248.063 631.022,254.121C630.53,256.056 629,257.003 627.694,258.131C625.179,260.302 622.617,262.404 619.181,263.109C614.921,263.981 610.334,261.68 608.813,257.64C607.649,254.548 609.287,252.275 611.457,250.539C613.355,249.021 615.462,247.049 618.352,248.883C617.784,250.293 616.548,250.11 615.659,250.534C612.327,252.123 610.838,255.293 612.264,257.848C613.873,260.73 617.486,261.422 620.516,259.413C622.083,258.375 623.739,257.473 625.029,256.045C628.304,252.422 629.685,248.364 627.84,243.629C625.814,238.429 621.631,235.494 616.336,235.404C606.232,235.232 596.021,243.015 592.566,254.107C590.566,260.527 590.251,267.037 592.067,273.834C594.56,283.168 598.289,292.084 605.29,298.348C615.576,307.55 626.34,316.85 640.784,319.089C650.173,320.545 659.739,321.125 669.078,318.894C674.827,317.521 680.381,315.144 685.527,312.169C690.337,309.388 693.974,311.811 698.535,314.16C689.469,318.103 680.334,319.414 671.488,321.81C673.297,323.055 675.147,322.659 676.942,322.387C684.201,321.286 691.353,319.649 698.071,316.669C701.217,315.274 703.766,315.602 706.597,317.257C718.18,324.029 728.954,331.946 739.429,340.285C742.45,342.69 745.321,345.286 748.218,347.843C749.975,349.393 750.354,351.173 748.67,353.035C747.133,354.735 746.554,356.805 745.999,358.959C745.097,362.454 744.018,362.719 741.343,360.368C738.754,358.093 736.2,355.773 733.53,353.597C731.163,351.667 728.465,350.245 725.576,349.25C720.304,347.434 715.947,349.921 714.752,355.324C714.561,356.19 714.798,357.431 713.666,357.729C712.421,358.056 711.744,356.943 711.275,356.08C709.75,353.279 707.247,351.609 704.648,350.029C695.568,344.509 686.966,338.107 676.712,334.74C670.897,332.831 665.182,332.665 659.824,336.145C658.415,337.06 657.226,336.604 656.021,335.915C650.899,332.985 645.252,331.656 639.696,329.855C631.938,327.341 623.694,325.619 616.782,320.794C615.166,319.666 613.23,318.874 612.925,316.569C612.813,315.723 612.239,315.342 611.495,315.09C611.001,314.923 610.533,314.68 610.053,314.47C607.783,313.48 605.899,312.066 604.821,309.751C603.334,306.562 606.813,306.277 608.067,304.554ZM677.175,325.909C675.144,327.131 674.528,329.364 675.709,331.229C677.028,333.314 679.645,334.098 681.646,332.818C683.36,331.721 684.871,330.33 683.607,327.985C682.373,325.696 679.179,324.704 677.175,325.909ZM710.086,338.354C711.753,340.855 713.88,341.237 716.496,339.506C718.824,337.967 719.537,335.231 718.16,333.122C716.253,330.199 713.731,329.44 711.298,331.056C708.605,332.845 708.168,335.476 710.086,338.354ZM639.362,327.11C639.3,327.361 639.238,327.611 639.176,327.862C639.733,328.079 640.284,328.315 640.848,328.511C646.697,330.548 653.27,330.313 658.55,334.19C659.158,334.637 660.34,334.779 660.658,333.751C660.954,332.793 659.988,332.309 659.225,331.994C652.837,329.362 646.104,328.215 639.362,327.11ZM613.855,313.566C614.364,313.203 614.722,313.081 614.799,312.862C614.924,312.503 615.71,311.938 614.98,311.785C614.41,311.665 613.748,312.337 613.855,313.566Z" style="fill-rule:nonzero;"/>
        <path d="M768.64,121.028C769.629,122.555 770.15,123.34 770.651,124.137C773.112,128.046 772.931,128.465 769.742,131.74C763.59,138.06 760.063,145.312 762.239,154.452C762.688,156.337 763.775,157.871 764.543,159.577C765.225,161.092 764.839,161.763 763.216,161.703C762.071,161.66 760.921,161.581 759.786,161.423C752.491,160.41 746.535,167.273 748.443,174.484C749.666,179.104 752.84,182.462 755.792,185.959C765.441,197.388 778.625,203.971 791.03,211.625C799.005,216.546 806.249,222.291 811.571,230.168C812.606,231.701 813.193,233.323 813.049,235.169C812.93,236.689 811.97,237.592 810.686,238.244C809.602,238.795 808.626,238.605 807.839,237.746C799.943,229.126 790.341,222.651 780.881,215.945C771.419,209.239 762.179,202.21 753.01,195.106C742.059,186.621 735.224,175.653 733.688,161.65C733.259,157.735 733.631,153.941 734.639,150.161C735.716,146.119 736.749,142.064 737.728,137.997C738.214,135.98 739.379,134.367 740.691,132.898C746.785,126.076 754.045,120.67 761.711,115.76C763.066,114.893 763.945,115.257 764.983,116.267C766.656,117.894 767.89,119.819 768.64,121.028ZM753.993,142.298C758.92,139.106 760.231,135.223 757.679,131.382C755.498,128.099 752.97,127.681 749.417,130.015C745.298,132.72 744.148,137.201 746.572,141.107C748.435,144.11 750.649,144.465 753.993,142.298Z" style="fill-rule:nonzero;"/>
        <path d="M828.689,233.421C830.571,236.122 831.793,239.108 832.586,242.278C834.119,248.403 831.35,251.908 825.056,251.711C822.316,251.626 819.801,251.268 818.262,248.283C817.456,246.72 815.483,245.799 814.212,244.426C812.777,242.876 812.052,241.244 814.674,239.97C817.023,238.829 816.679,236.735 816.192,234.776C814.686,228.723 810.802,224.144 806.288,220.221C796.152,211.411 784.782,204.354 773.097,197.809C765.017,193.283 758.58,186.942 752.887,179.768C750.715,177.031 750.051,173.753 749.907,170.353C749.834,168.625 750.291,167.004 751.426,165.677C755.029,161.464 765.828,162.06 768.944,166.631C769.887,168.015 770.805,169.419 771.667,170.855C772.068,171.523 773.018,172.174 772.369,173.056C771.753,173.893 770.719,173.824 769.767,173.637C768.537,173.395 767.321,173.006 766.08,172.91C764.559,172.792 763.122,173.195 762.352,174.695C761.63,176.102 762.18,177.314 763.112,178.435C766.73,182.785 770.7,186.705 775.427,189.915C787.451,198.08 799.155,206.685 810.103,216.272C815.285,220.809 821.252,224.434 825.782,229.725C826.8,230.915 827.722,232.187 828.689,233.421Z" style="fill-rule:nonzero;"/>
        <path d="M829.699,384.325C824.019,387.995 817.953,390.739 811.673,392.997C801.706,396.58 791.618,399.554 780.813,399.004C777.004,398.81 773.344,398.132 769.756,396.947C767.076,396.062 764.447,395.042 761.616,394.672C759.103,394.343 757.747,392.789 757.417,390.305C756.957,386.849 757.821,383.672 759.464,380.664C760.24,379.243 761.353,378.964 762.896,379.439C772.636,382.441 782.589,383.889 792.79,383.201C794.728,383.07 795.194,383.858 794.862,385.568C794.402,387.934 793.97,390.324 794.433,392.724C794.62,393.69 794.966,394.994 796.29,394.837C797.78,394.659 797.401,393.389 797.308,392.348C796.435,382.586 796.443,382.597 805.71,379.537C807.087,379.082 808.603,378.887 809.725,377.856C811.854,375.9 814.264,376.05 816.358,377.498C819.766,379.857 823.356,381.617 827.402,382.506C828.302,382.704 829.123,383.225 829.699,384.325ZM809.425,384.892C808.636,383.115 807.046,382.656 805.255,383.773C802.997,385.181 803.795,387.274 804.765,388.981C805.629,390.5 807.161,391.442 808.953,390.286C811.117,388.891 810.69,387.027 809.425,384.892Z" style="fill-rule:nonzero;"/>
        <path d="M760.838,340.412C765.44,346.303 770.858,354.076 779.844,358.149C780.747,358.558 782.023,359.021 781.736,360.315C781.456,361.58 780.07,361.488 779.108,361.56C774.636,361.895 770.384,360.856 766.241,359.257C765.369,358.921 765.062,358.108 764.602,357.428C756.726,345.788 750.152,333.381 745.818,320.072C735.784,289.256 755.391,263.604 785.515,260.25C794.465,259.253 800.362,262.463 804.419,269.784C807.675,275.66 808.699,282.117 805.931,288.44C803.883,293.119 799.266,294.098 794.608,294.314C790.697,294.495 787.684,292.981 786.029,289.259C785.737,288.601 785.302,287.974 785.489,287.18C785.612,286.66 785.729,286.078 786.344,286.016C787.015,285.95 787.081,286.564 787.258,287.053C788.653,290.913 789.876,291.736 793.878,291.553C801.85,291.189 804.998,287.317 803.709,279.46C801.875,268.283 795.4,263.353 784.142,264.503C779.189,265.009 774.635,266.459 770.562,269.44C767.699,271.536 764.038,272.23 761.207,274.422C750.436,282.761 746.79,294.116 747.876,307.184C748.839,318.784 753.092,329.29 760.838,340.412Z" style="fill-rule:nonzero;"/>
        <path d="M562.62,296.083C563.113,296.356 563.419,296.464 563.647,296.662C565.558,298.316 567.566,299.692 570.069,297.89C572.056,296.459 572.173,294.402 571.513,292.239C570.662,289.453 568.795,287.453 565.872,287.684C560.406,288.114 555.405,289.876 552.357,294.943C548.155,301.929 549.849,313.486 555.966,320.68C563.064,329.028 572.431,332.817 582.94,334.641C594.371,336.626 605.607,336.713 616.621,332.51C618.478,331.801 619.211,332.451 618.498,334.421C617.18,338.063 615.8,341.675 614.022,345.128C613.278,346.573 612.18,347.339 610.597,347.508C601.729,348.452 592.94,349.196 584.414,345.29C575.29,341.11 565.855,337.542 558.246,330.685C552.442,325.454 548.348,319.131 546.309,311.546C544.659,305.406 546.367,300.16 550.076,295.11C552.672,291.577 555.98,289.167 559.489,286.782C565.056,282.997 573.088,286.154 574.169,292.675C575.016,297.782 572.24,301.263 567.058,301.59C563.449,301.817 562.09,300.249 562.62,296.083ZM593.386,344.284C593.901,343.881 594.052,343.323 593.697,342.73C593.435,342.293 592.964,342.353 592.727,342.732C592.445,343.184 591.717,343.585 592.255,344.266C592.547,344.635 592.97,344.506 593.386,344.284Z" style="fill-rule:nonzero;"/>
        <path d="M718.593,365.062C716.246,361.482 716.617,357.073 719.028,354.594C721.267,352.29 724.532,352.082 727.96,354.124C732.75,356.978 736.548,361.07 740.826,364.564C745.511,368.392 750.096,372.345 755.295,375.492C756.155,376.012 757.454,376.457 756.791,377.797C755.027,381.363 755.233,385.345 754.246,389.072C753.729,391.023 752.973,391.314 751.213,390.331C747.291,388.137 743.292,386.082 739.95,383.009C739.204,382.323 738.06,381.793 738.289,380.546C738.582,378.951 739.993,379.763 740.882,379.6C742.72,379.264 744.014,378.486 744.285,376.511C744.574,374.397 744.73,372.356 742.722,370.822C741.051,369.546 739.25,369.182 737.46,370.181C735.452,371.303 735.025,373.163 735.798,375.32C736.149,376.298 736.634,377.46 735.551,378.163C734.616,378.77 733.789,377.85 733.035,377.349C727.533,373.695 722.51,369.484 718.593,365.062Z" style="fill-rule:nonzero;"/>
        <path d="M912.807,158.725C907.05,158.101 901.655,157.912 896.252,157.937C895.305,157.941 894.407,157.986 893.483,157.695C884.499,154.87 875.704,151.763 867.72,146.48C862.983,143.346 857.227,142.408 851.562,141.893C844.768,141.277 837.996,141.268 831.358,143.237C830.676,143.44 829.899,143.513 829.2,143.411C828.497,143.308 827.701,142.977 827.568,142.151C827.449,141.416 828.183,141.163 828.695,140.842C831.087,139.34 833.777,139.082 836.511,138.901C849.584,138.038 861.86,140.657 873.361,147.006C882.503,152.052 892.177,155.683 902.662,156.538C916.72,157.685 929.783,154.018 942.243,147.783C942.893,147.458 943.533,147.111 944.197,146.819C944.36,146.748 944.6,146.854 944.97,146.899C943.808,149.4 941.227,149.82 939.23,150.898C936.95,152.127 934.456,152.959 931.895,153.568C930.507,153.897 929.02,154.397 927.923,155.26C923.118,159.041 917.515,160.923 911.729,162.41C909.472,162.99 907.141,163.098 904.841,163.654C897.989,165.31 891.388,163.582 885.114,160.826C879.491,158.356 874.148,155.335 868.813,152.247C860.074,147.188 850.45,145.481 840.339,146.925C839.293,147.075 837.369,147.981 837.159,146.32C836.921,144.439 838.982,145.163 840.057,145.017C847.692,143.978 855.029,145.097 862.168,148.004C868.571,150.612 874.749,153.653 880.902,156.794C890.107,161.493 899.984,161.643 909.976,160.405C910.885,160.293 911.852,160.101 912.807,158.725Z" style="fill-rule:nonzero;"/>
        <path d="M694.099,168.557C698.592,165.621 702.592,162.14 706.015,157.987C712.859,149.683 719.486,141.182 727.219,133.661C731.336,129.658 736.141,126.788 741.926,125.843C742.737,125.711 743.709,125.279 744.229,126.152C744.821,127.146 744.006,127.969 743.344,128.579C742.429,129.42 741.46,130.494 740.34,130.772C731.385,133.001 725.467,139.374 719.64,145.813C714.312,151.7 709.367,157.939 703.937,163.726C696.159,172.015 687.056,178.065 675.273,178.964C671.329,179.265 667.526,178.631 663.896,177.176C654.135,173.263 650.685,160.878 656.965,152.541C660.337,148.065 667.369,146.546 672.264,149.237C675.346,150.931 676.884,155.162 675.631,158.503C674.472,161.595 669.409,164.522 666.454,163.776C665.964,163.652 665.417,163.45 665.074,163.107C664.328,162.364 663.489,161.394 664.179,160.36C664.963,159.183 665.822,160.33 666.539,160.728C669.584,162.418 671.746,162.082 673.881,159.5C675.683,157.321 675.523,154.8 673.456,152.796C670.059,149.504 665.293,148.751 661.652,150.93C656.959,153.739 654.829,159.668 656.527,165.196C658.542,171.755 664.638,176.206 671.948,176.41C678.233,176.586 683.801,174.237 689.208,171.389C690.873,170.512 692.47,169.504 694.099,168.557Z" style="fill-rule:nonzero;"/>
        <path d="M751.639,353.237C752.62,352.302 753.745,352.393 754.934,353.193C757.622,355.001 760.414,356.665 763.006,358.6C766.565,361.258 770.225,363.647 774.729,364.242C776.037,364.415 776.189,365.008 776.142,366.113C775.976,370.066 776.956,373.573 780.255,376.129C780.849,376.588 781.312,377.245 780.995,378.04C780.558,379.137 779.545,378.764 778.839,378.56C777.544,378.186 776.314,377.582 775.064,377.06C770.039,374.961 764.879,373.258 759.635,371.811C756.053,370.823 752.768,369.311 750.092,366.658C745.928,362.529 746.564,356.578 751.639,353.237Z" style="fill-rule:nonzero;"/>
        <path d="M643.739,312.97C650.434,309.116 657.598,307.277 665.354,306.727C671.355,306.301 677.183,306.483 683.025,307.643C683.951,307.827 685.43,307.68 685.523,308.986C685.609,310.179 684.278,310.544 683.341,310.948C676.912,313.721 670.25,315.71 663.308,316.694C656.811,317.614 650.311,318.578 643.714,317.96C642.319,317.829 640.333,318.338 639.917,316.628C639.505,314.938 641.648,314.556 642.657,313.592C642.949,313.313 643.374,313.173 643.739,312.97Z" style="fill-rule:nonzero;"/>
        <path d="M779.969,372.255C779.252,371.19 778.712,370.092 778.617,368.786C778.368,365.355 779.173,364.495 782.604,364.179C786.339,363.836 790.062,363.353 793.783,362.883C796.121,362.587 798.052,363.106 799.603,365.042C801.577,367.507 804.282,369.163 806.762,371.053C808.674,372.51 808.193,373.762 806.379,374.544C801.188,376.782 795.812,378.499 790.105,378.616C785.418,378.713 782.51,375.704 779.969,372.255Z" style="fill-rule:nonzero;"/>
        <path d="M738.338,371.969C739.562,371.411 740.75,371.582 741.462,372.865C742.235,374.256 742.781,375.932 741.25,377.065C739.737,378.184 738.565,377.047 737.647,375.82C736.555,374.359 737.033,373.124 738.338,371.969Z" style="fill-rule:nonzero;"/>
        <path d="M702.627,464.748C701.628,461.335 705.028,453.751 707.792,452.674C708.82,452.274 709.95,452.155 710.767,452.921C711.583,453.687 711.113,454.71 710.621,455.511C708.488,458.983 705.704,461.875 702.627,464.748Z" style="fill-rule:nonzero;"/>
        <path d="M708.388,399.092C709.453,400.741 708.837,402.144 707.529,403.219C705.879,404.574 703.453,403.889 702.105,401.901C700.845,400.041 701.377,398.494 702.984,397.267C704.451,396.148 707.018,397.082 708.388,399.092Z" style="fill-rule:nonzero;"/>
        <path d="M674.431,405.316C672.591,406.459 671.317,406.025 670.33,404.396C669.221,402.565 669.366,401.114 671.369,399.966C672.975,399.045 674.487,399.031 675.483,400.588C676.686,402.467 676.077,404.172 674.431,405.316Z" style="fill-rule:nonzero;"/>
        <path d="M617.509,432.45C619.577,431.031 621.356,431.544 622.573,433.509C623.771,435.441 623.483,437.331 621.423,438.613C619.488,439.818 617.853,439.255 616.584,437.49C615.159,435.507 615.535,433.816 617.509,432.45Z" style="fill-rule:nonzero;"/>
        <path d="M585.093,470.912C584.261,469.255 584.044,467.733 585.908,466.578C587.217,465.766 588.529,465.497 589.382,467.073C590.298,468.765 590.324,470.65 588.812,471.955C587.335,473.23 586.138,472.021 585.093,470.912Z" style="fill-rule:nonzero;"/>
        <path d="M682.857,378.128C681.169,379.236 679.452,379.475 678.176,377.662C676.751,375.638 678.29,374.322 679.729,373.266C681.436,372.012 682.934,372.792 684.019,374.286C685.245,375.971 684.405,377.197 682.857,378.128Z" style="fill-rule:nonzero;"/>
        <path d="M617.665,389.397C618.042,390.455 619.325,391.573 617.861,392.606C617.081,393.155 615.968,392.832 615.483,391.88C614.915,390.766 614.57,389.391 615.556,388.44C616.642,387.395 617.024,388.848 617.665,389.397Z" style="fill-rule:nonzero;"/>
        <path d="M628.853,335.324C629.66,336.261 629.437,337.154 628.705,337.839C627.945,338.549 627.36,337.848 626.955,337.275C626.382,336.467 626.112,335.519 627.106,334.844C627.784,334.384 628.499,334.542 628.853,335.324Z" style="fill-rule:nonzero;"/>
        <path d="M633.768,349.913C634.954,349.363 636.058,349.595 636.841,350.895C637.471,351.941 637.933,352.965 636.548,353.843C635.044,354.796 633.942,354.13 633.059,352.944C632.227,351.826 632.476,350.786 633.768,349.913Z" style="fill-rule:nonzero;"/>
        <path d="M857.991,322.605C854.893,324.622 852.116,323.868 849.849,320.395C847.814,317.276 848.428,314.009 851.427,312.004C854.16,310.176 857.138,310.96 859.147,314.035C861.17,317.132 860.667,320.862 857.991,322.605Z" style="fill-rule:nonzero;"/>
        <path d="M851.067,251.845C848.169,253.649 846.075,253.275 844.443,250.661C842.759,247.965 843.52,245.327 846.484,243.587C848.881,242.179 851.59,243.001 853.109,245.595C854.508,247.986 853.804,250.14 851.067,251.845Z" style="fill-rule:nonzero;"/>
        <path d="M895.072,291.8C895.769,292.748 895.947,294.195 894.147,295.428C892.298,296.694 890.679,296.169 889.667,294.44C888.795,292.949 888.05,291.104 890.182,289.851C892.082,288.734 893.514,289.508 895.072,291.8Z" style="fill-rule:nonzero;"/>
        <path d="M820.518,356.397C819.63,356.87 818.928,356.495 818.351,355.844C817.76,355.176 817.86,354.501 818.632,354.059C819.352,353.646 820.027,353.856 820.509,354.517C820.949,355.121 821.27,355.764 820.518,356.397Z" style="fill-rule:nonzero;"/>
        <path d="M888.999,106.477C889.715,108.147 890.813,110.126 888.609,111.594C886.914,112.722 885.436,111.763 884.403,110.2C883.244,108.447 883.915,105.804 885.739,104.786C887.548,103.777 888.081,105.311 888.999,106.477Z" style="fill-rule:nonzero;"/>
        <path d="M681.86,328.152C682.818,329.575 682.477,330.45 681.427,331.06C680.199,331.772 679.029,331.693 678.193,330.419C677.487,329.345 677.872,328.401 678.844,327.759C680.108,326.924 681.174,327.432 681.86,328.152Z" style="fill-rule:nonzero;"/>
        <path d="M711.87,332.669C713.824,331.419 715.278,331.636 716.339,333.444C717.473,335.376 717.717,337.309 715.495,338.59C713.664,339.644 711.805,339.402 710.543,337.535C709.026,335.293 710.54,333.871 711.87,332.669Z" style="fill-rule:nonzero;"/>
        <path d="M750.711,131.561C752.473,130.549 754.239,131.465 755.646,133.512C757.171,135.732 756.326,139.292 753.83,140.86C751.908,142.068 749.91,141.828 748.489,140.123C746.809,138.107 747.864,133.399 750.711,131.561Z" style="fill-rule:nonzero;"/>
        <path d="M808.31,386.598C808.693,387.331 808.703,388.052 807.91,388.458C807.149,388.847 806.494,388.477 806.084,387.781C805.657,387.057 805.741,386.356 806.51,385.923C807.322,385.465 807.867,385.944 808.31,386.598Z" style="fill-rule:nonzero;"/>
        <path d="M779.516,121.619C774.467,114.504 768.206,108.808 760.148,105.223C754.923,102.898 749.616,102.675 744.244,104.528C737.036,107.014 730.599,110.871 724.93,115.947C719.717,120.615 714.725,125.532 709.455,130.133C705.251,133.805 700.273,135.917 694.597,136.027C689.015,136.135 684.085,132.524 682.265,127.077C680.627,122.169 682.306,117.355 686.866,113.884C690.106,111.419 693.971,110.89 696.817,112.751C699.109,114.251 700.2,116.277 700.216,118.784C698.993,121.221 697.281,123.336 694.649,124.365C691.148,125.734 689.276,119.366 687.364,121.109C685.678,122.647 690.532,126.014 693.448,126.069C696.799,126.133 700.078,123.134 701.405,120.481C701.695,120.042 701.792,119.522 701.814,118.978C701.955,115.562 697.655,110.469 694.252,109.958C686.04,108.726 677.903,116.346 679.037,124.531C680.493,135.043 688.31,142.244 700.436,138.629C707.163,136.623 712.454,132.229 717.207,127.403C725.077,119.41 733.905,112.913 744.024,108.128C745.85,107.265 747.762,106.753 749.791,106.896C758.537,107.515 769.952,116.351 772.765,124.585C773.303,126.16 773.918,127.896 775.981,127.986C777.747,128.063 779.352,127.254 780.367,125.902C781.516,124.372 780.408,122.876 779.516,121.619Z" style="fill-rule:nonzero;"/>
    </g>
</svg>
