<?xml version="1.0" encoding="UTF-8" standalone="no"?>
<!DOCTYPE svg PUBLIC "-//W3C//DTD SVG 1.1//EN" "http://www.w3.org/Graphics/SVG/1.1/DTD/svg11.dtd">
<svg width="100%" height="100%" viewBox="0 0 181 129" version="1.1" xmlns="http://www.w3.org/2000/svg" xmlns:xlink="http://www.w3.org/1999/xlink" xml:space="preserve" xmlns:serif="http://www.serif.com/" style="fill-rule:evenodd;clip-rule:evenodd;stroke-linejoin:round;stroke-miterlimit:2;">
    <g>
        <path d="M180.519,6.275C180.519,2.812 177.707,0 174.244,0L6.275,0C2.812,0 0,2.812 0,6.275L0,18.826C0,22.289 2.812,25.101 6.275,25.101L174.244,25.101C177.707,25.101 180.519,22.289 180.519,18.826L180.519,6.275Z" style="fill:rgb(235,235,235);"/>
        <path d="M180.519,57.534C180.519,54.071 177.707,51.259 174.244,51.259L6.275,51.259C2.812,51.259 0,54.071 0,57.534L0,70.084C0,73.548 2.812,76.36 6.275,76.36L174.244,76.36C177.707,76.36 180.519,73.548 180.519,70.084L180.519,57.534Z" style="fill:rgb(235,235,235);"/>
        <path d="M180.519,109.234C180.519,105.77 177.707,102.959 174.244,102.959L6.275,102.959C2.812,102.959 0,105.77 0,109.234L0,121.784C0,125.247 2.812,128.059 6.275,128.059L174.244,128.059C177.707,128.059 180.519,125.247 180.519,121.784L180.519,109.234Z" style="fill:rgb(235,235,235);"/>
    </g>
</svg>
