<?xml version="1.0" encoding="UTF-8" standalone="no"?>
<!DOCTYPE svg PUBLIC "-//W3C//DTD SVG 1.1//EN" "http://www.w3.org/Graphics/SVG/1.1/DTD/svg11.dtd">
<svg width="100%" height="100%" viewBox="0 0 1189 575" version="1.1" xmlns="http://www.w3.org/2000/svg" xmlns:xlink="http://www.w3.org/1999/xlink" xml:space="preserve" xmlns:serif="http://www.serif.com/" style="fill-rule:evenodd;clip-rule:evenodd;stroke-linejoin:round;stroke-miterlimit:2;">
    <g transform="matrix(1,0,0,1,-58.9871,-131.832)">
        <g transform="matrix(0.1,0,0,-0.1,0,853)">
            <path d="M10837,7175C10822,7167 10790,7145 10768,7125C10745,7106 10723,7090 10719,7090C10715,7090 10694,7066 10673,7037C10616,6956 10540,6894 10478,6876C10449,6868 10409,6849 10390,6835C10371,6820 10328,6795 10295,6778C10262,6761 10224,6740 10210,6730C10196,6721 10163,6705 10135,6695C10108,6685 10073,6668 10058,6658C10043,6648 10016,6634 9998,6628C9980,6622 9938,6599 9903,6577C9816,6522 9761,6508 9675,6515C9637,6519 9587,6528 9565,6535C9543,6542 9472,6550 9408,6554C9344,6558 9269,6567 9241,6576C9200,6588 9169,6589 9058,6580C8985,6575 8909,6566 8890,6560C8871,6555 8838,6550 8817,6550C8796,6550 8740,6539 8692,6526C8640,6511 8549,6497 8465,6490C8388,6484 8269,6467 8200,6453C8036,6420 7950,6424 7785,6475C7719,6495 7651,6520 7634,6531C7617,6541 7596,6550 7588,6550C7573,6550 7408,6612 7260,6674C7213,6694 7169,6710 7163,6710C7156,6710 7100,6730 7038,6754C6976,6778 6905,6804 6880,6813C6855,6821 6777,6848 6705,6873C6634,6898 6543,6923 6505,6929C6466,6935 6408,6948 6375,6959C6342,6970 6305,6980 6292,6980C6280,6980 6237,6990 6197,7001C6158,7013 6087,7026 6040,7031C5993,7035 5926,7044 5890,7049C5854,7055 5764,7062 5690,7065C5616,7068 5488,7075 5405,7081C5194,7095 4906,7070 4781,7026C4740,7012 4696,7000 4682,7000C4669,7000 4612,6982 4557,6959C4501,6936 4431,6912 4402,6904C4337,6887 4241,6839 4216,6812C4206,6800 4166,6779 4126,6764C4065,6740 4044,6725 3973,6653C3929,6608 3887,6570 3881,6570C3865,6570 3486,6204 3433,6138C3305,5978 3280,5942 3274,5910C3264,5858 3254,5842 3184,5769C3150,5733 3118,5690 3114,5674C3105,5637 3060,5556 2997,5462C2970,5421 2941,5367 2932,5342C2924,5317 2911,5285 2903,5271C2896,5256 2890,5238 2890,5229C2890,5200 2822,5076 2788,5043C2758,5014 2688,4982 2572,4945C2549,4937 2515,4920 2497,4907C2480,4893 2440,4871 2410,4856C2324,4816 2094,4615 2042,4535C2028,4513 1995,4476 1969,4453C1943,4429 1915,4392 1906,4370C1897,4347 1873,4308 1852,4282C1831,4255 1808,4214 1801,4189C1775,4104 1748,4041 1730,4025C1719,4015 1708,3994 1704,3976C1689,3901 1608,3812 1493,3741C1437,3707 1361,3621 1324,3550C1311,3525 1287,3492 1270,3476C1254,3460 1240,3441 1240,3435C1240,3428 1224,3392 1205,3354C1176,3296 1159,3277 1103,3237C1042,3193 890,3038 890,3020C890,3015 870,2988 845,2959C821,2930 782,2872 760,2829C737,2785 701,2730 680,2705C629,2646 624,2635 615,2574C605,2499 623,2446 678,2388C703,2361 732,2334 741,2330C767,2315 940,2273 1000,2265C1030,2262 1075,2249 1100,2238C1132,2223 1170,2216 1230,2214C1283,2213 1330,2205 1355,2194C1396,2177 1529,2159 1655,2155C1748,2152 1871,2127 1945,2097C1985,2081 2035,2070 2094,2066C2164,2061 2193,2054 2227,2034C2259,2015 2295,2006 2363,1999C2474,1987 2710,1997 2765,2016C2787,2023 2815,2030 2827,2030C2867,2030 2944,2008 3005,1979C3050,1958 3078,1951 3117,1952C3163,1953 3177,1948 3231,1912C3280,1878 3302,1870 3337,1870C3364,1870 3409,1858 3451,1840C3601,1777 3940,1734 4170,1751C4361,1764 4440,1776 4625,1820C4675,1832 4738,1846 4765,1852C4793,1858 4849,1877 4890,1895C4987,1937 5019,1943 5090,1935C5142,1929 5156,1922 5204,1880C5249,1841 5270,1830 5329,1817C5367,1808 5425,1788 5457,1771C5489,1755 5538,1739 5565,1735C5593,1731 5644,1714 5680,1698C5732,1673 5769,1665 5875,1653C6107,1629 6164,1621 6205,1611C6274,1594 6497,1569 6634,1564C6791,1558 6936,1542 6970,1525C6984,1518 7031,1507 7075,1501C7119,1494 7164,1487 7174,1485C7195,1481 7311,1494 7394,1511C7421,1516 7511,1525 7594,1531C7710,1539 7759,1547 7805,1565C7926,1612 8038,1640 8102,1640C8129,1640 8169,1651 8208,1670C8243,1686 8297,1707 8328,1716C8359,1725 8447,1761 8522,1796C8598,1831 8664,1860 8669,1860C8674,1860 8701,1876 8729,1895C8757,1914 8783,1930 8787,1930C8822,1930 8877,1959 8930,2005C8969,2039 9012,2066 9039,2074C9158,2109 9236,2158 9340,2261C9395,2315 9456,2385 9475,2415C9494,2445 9529,2482 9552,2499C9576,2515 9631,2565 9675,2610C9719,2655 9775,2706 9799,2723C9826,2744 9852,2775 9870,2810C9886,2840 9917,2883 9940,2905C9962,2927 10000,2974 10022,3010C10045,3046 10081,3095 10101,3120C10121,3145 10147,3185 10160,3210C10191,3272 10237,3336 10287,3384C10315,3411 10343,3455 10370,3515C10392,3565 10422,3628 10437,3655C10451,3683 10471,3729 10481,3759C10492,3789 10518,3846 10540,3886C10562,3926 10580,3964 10580,3971C10580,3983 10599,4029 10677,4205C10741,4349 10754,4376 10805,4460C10830,4501 10859,4553 10870,4575C10882,4597 10902,4633 10915,4655C10929,4677 10952,4731 10966,4775C11001,4877 11053,4974 11101,5025C11122,5047 11142,5077 11145,5092C11154,5129 11222,5205 11257,5217C11302,5234 11402,5250 11458,5250C11532,5250 11567,5268 11643,5345L11710,5412L11788,5405L11867,5398L11899,5436C11916,5457 11930,5480 11930,5486C11930,5509 12000,5560 12041,5566C12063,5570 12096,5584 12115,5599C12133,5613 12173,5644 12204,5668C12235,5691 12273,5729 12290,5753C12395,5898 12429,5949 12440,5981C12452,6014 12451,6021 12431,6054C12404,6097 12348,6136 12260,6173C12205,6197 12173,6222 12050,6341C11928,6460 11838,6535 11724,6614C11713,6622 11689,6656 11671,6689C11648,6733 11623,6762 11584,6791C11554,6813 11512,6854 11490,6883C11401,6999 11323,7083 11277,7112C11235,7139 11217,7144 11146,7148C11102,7150 11041,7160 11012,7171C10949,7194 10876,7195 10837,7175Z" style="fill:url(#_Linear1);fill-rule:nonzero;"/>
            <path d="M10753.4,7142.14C10776.8,7163.32 10810.6,7186.4 10826.4,7194.85L10826.7,7195.02C10869.7,7217.07 10950.3,7217.49 11020,7192.04C11047.5,7181.61 11105.3,7172.37 11147.3,7170.46C11224.2,7166.13 11243.6,7160.2 11289,7131.03C11336.2,7101.3 11416.6,7015.62 11507.9,6896.6C11528.8,6869.03 11568.8,6830.06 11597.4,6809.06C11639.3,6777.89 11666.2,6746.72 11690.8,6699.77C11706.8,6670.3 11727.4,6639.34 11736.8,6632.49C11851.8,6552.8 11942.6,6477.16 12065.6,6357.17C12185,6241.7 12215.6,6216.91 12268.7,6193.74C12362.4,6154.34 12421.3,6111.75 12450.2,6065.66C12462.6,6045.31 12468.3,6032.63 12469.8,6020.29C12471.4,6007.47 12468.8,5994.47 12461.3,5973.69C12450,5940.91 12415.8,5888.31 12308.4,5739.99C12290.4,5714.59 12250.2,5674.28 12217.8,5650.21C12186.8,5626.22 12146.8,5595.23 12128.9,5581.34C12107.4,5564.33 12070,5548.4 12045,5543.86L12044.3,5543.74C12022.9,5540.61 11992.7,5522.74 11971.7,5505.14C11963,5497.84 11953.6,5485.54 11952.4,5483.98C11952,5480 11950.4,5473.73 11946.6,5466.28C11940.9,5455.17 11929.5,5437.94 11916.5,5421.84C11916.4,5421.73 11916.3,5421.62 11916.2,5421.51L11884.2,5383.51C11879.5,5377.9 11872.3,5374.94 11865,5375.59L11786,5382.59C11786,5382.59 11786,5382.59 11786,5382.59L11718.5,5388.65L11659,5329.19C11576.7,5245.79 11538.2,5227.5 11458,5227.5C11404.2,5227.5 11308.2,5212.28 11265,5195.95L11264.3,5195.72C11249.1,5190.52 11227.5,5170.63 11208,5148.86C11188.4,5126.94 11170.8,5102.82 11166.9,5086.68L11167.1,5087.59C11163.6,5070.25 11141.5,5034.89 11117.4,5009.58C11071,4960.28 11021.1,4866.3 10987.4,4768.18C10972.9,4722.55 10948.9,4666.7 10934.3,4643.42C10921.4,4621.67 10901.8,4586.27 10889.9,4564.48C10878.6,4541.91 10849.4,4489.59 10824.2,4448.32C10773.7,4365.17 10760.9,4338.42 10697.6,4195.88C10643.3,4073.49 10617.8,4014.39 10607.3,3985.85C10604.6,3978.33 10602.6,3970.62 10602.5,3970.28C10602.4,3967.34 10601.5,3962.25 10599.1,3955.62C10593.6,3940.44 10578,3908.44 10559.7,3875.16C10538.3,3836.19 10512.9,3780.7 10502.2,3751.39C10491.8,3720.54 10471.4,3673.58 10457.1,3644.94L10456.7,3644.07C10441.9,3617.43 10412.3,3555.27 10390.5,3505.77C10362,3442.48 10332.2,3396.28 10302.6,3367.77C10254.4,3321.48 10210,3259.73 10180,3199.62C10166.4,3173.6 10139.4,3131.96 10118.6,3105.94C10098.9,3081.39 10063.6,3033.25 10041.2,2998.27C10018.3,2960.83 9978.79,2911.97 9955.55,2888.74C9933.94,2868.07 9904.89,2827.6 9890.01,2799.71C9870.45,2761.68 9842.15,2728.05 9812.81,2705.24L9812.01,2704.64C9788.59,2688.05 9734.02,2638.18 9691.09,2594.27C9646.24,2548.4 9590.14,2497.62 9565.13,2480.72C9543.8,2464.88 9511.56,2430.68 9494.01,2402.96C9474.53,2372.21 9412.15,2300.3 9355.83,2245.01C9248.6,2138.81 9168.05,2088.5 9045.39,2052.43C9020.39,2045.02 8980.9,2019.52 8944.75,1988.01C8888.91,1939.55 8830.22,1909.91 8791.66,1907.65C8785.7,1904.16 8761.75,1890.03 8741.63,1876.38C8717.89,1860.27 8694.76,1846.31 8683.77,1841.33C8679.58,1839.42 8675.98,1838.42 8673.21,1837.93L8672.84,1837.81C8658.06,1832.88 8598.74,1806.57 8531.51,1775.61C8455.28,1740.03 8365.78,1703.54 8334.27,1694.39C8304.07,1685.62 8251.46,1665.13 8217.85,1649.77C8175.28,1629.03 8131.48,1617.5 8102,1617.5C8039.73,1617.5 7930.88,1589.76 7813.2,1544.05C7765.73,1525.47 7715.24,1516.81 7595.62,1508.56C7513.65,1502.63 7424.76,1493.81 7398.52,1488.96C7312.27,1471.29 7191.61,1458.74 7169.59,1462.94C7159.68,1464.92 7115.07,1471.84 7071.96,1478.71C7024.97,1485.12 6974.89,1497.4 6959.94,1504.88C6950.86,1509.41 6932.8,1513.44 6908.33,1517.61C6844.82,1528.4 6741.89,1537.36 6633.18,1541.52C6494.72,1546.57 6269.35,1571.97 6199.67,1589.14C6159.05,1599.05 6102.55,1606.84 5872.47,1630.64C5762.78,1643.06 5724.4,1651.74 5670.67,1677.52C5636.52,1692.68 5588.33,1708.94 5561.7,1712.74C5533.02,1716.99 5480.93,1733.88 5446.44,1751.13C5415.79,1767.41 5360.21,1786.49 5324.16,1795.03C5260.49,1809.06 5237.82,1820.91 5189.18,1863.07C5146.26,1900.63 5133.93,1907.28 5087.48,1912.64C5020.51,1920.19 4990.44,1913.97 4899.05,1874.4C4856.63,1855.78 4798.68,1836.21 4769.88,1830.04C4742.95,1824.05 4680.12,1810.09 4630.21,1798.11C4443.71,1753.76 4364.07,1741.66 4171.66,1728.56C3938.33,1711.32 3594.46,1755.34 3442.14,1819.32C3403.36,1835.94 3361.93,1847.5 3337,1847.5C3297.88,1847.5 3272.93,1855.52 3218.52,1893.28C3170.55,1925.26 3158.36,1930.39 3117.58,1929.51C3075.09,1928.42 3044.51,1935.73 2995.34,1958.68C2937.6,1986.13 2864.86,2007.5 2827,2007.5C2816.3,2007.5 2791.44,2000.8 2772.35,1994.73C2716.01,1975.27 2474.29,1964.34 2360.7,1976.62C2288.02,1984.1 2249.71,1994.35 2215.59,2014.61C2184.14,2033.11 2157.16,2038.93 2092.48,2043.55C2030.76,2047.74 1978.49,2059.37 1936.55,2076.15C1864.52,2105.35 1744.79,2129.59 1654.29,2132.51C1524.93,2136.62 1388.47,2155.76 1345.94,2173.41C1322.68,2183.64 1278.88,2190.57 1229.25,2191.51C1165.15,2193.65 1124.64,2201.6 1090.94,2217.41C1067.64,2227.66 1025.72,2239.82 997.761,2242.61L997.026,2242.7C935.07,2250.96 756.604,2295.02 729.756,2310.51L730.375,2310.2C718.955,2316.49 687.875,2344.22 661.673,2372.52C601.241,2436.25 581.71,2494.57 592.741,2577.28C602.514,2643.53 607.595,2655.64 662.772,2719.47C683.078,2743.65 717.819,2796.88 739.969,2839.25C762.664,2883.61 802.908,2943.43 827.958,2973.69C846.567,2995.28 865.168,3021.57 868.219,3025.93C868.809,3028.57 869.86,3031.63 871.607,3035.01C874.48,3040.56 880.383,3049.04 888.832,3059.44C930.576,3110.83 1039.99,3219.29 1089.92,3255.31C1142.01,3292.51 1157.9,3310.12 1184.88,3364.06C1200.54,3395.39 1216.78,3435.2 1217.64,3437.32C1218.12,3441.6 1219.9,3447.86 1224.1,3454.94C1229.91,3464.76 1241.39,3479.21 1254.09,3491.91L1254.58,3492.38C1270.18,3507.07 1292.11,3537.43 1304.05,3560.4C1342.8,3634.77 1422.67,3724.62 1481.18,3760.14C1589.7,3827.14 1667.78,3909.64 1682.04,3980.88C1687.02,4003.29 1701.17,4029.2 1715.05,4041.82C1720.9,4047.02 1727.29,4058.71 1734.96,4074.83C1748.77,4103.84 1764.28,4145.86 1779.33,4195.07C1786.91,4222.11 1811.52,4266.61 1834.5,4296.14C1854.1,4320.41 1876.64,4356.73 1885.17,4378.52C1895.02,4402.58 1925.31,4443.29 1954.09,4469.85C1978.61,4491.54 2009.82,4526.34 2023.13,4547.26C2076.35,4629.12 2311.34,4834.52 2399.96,4876.14C2428.45,4890.38 2466.55,4911.07 2482.7,4924.37C2483.06,4924.67 2483.44,4924.96 2483.83,4925.24C2503.22,4939.25 2539.83,4957.63 2564.61,4966.25L2565.16,4966.44C2676.18,5001.85 2743.65,5031.42 2772.33,5059.15C2794.92,5081.07 2832.91,5145.59 2853.93,5191.62C2861.58,5208.39 2867.5,5221.98 2867.5,5229C2867.5,5239.99 2874.06,5262.2 2882.61,5280.52C2882.87,5281.08 2883.16,5281.63 2883.47,5282.16C2890.97,5295.31 2903.06,5325.39 2910.57,5348.86L2910.83,5349.62C2920.18,5375.59 2950.16,5431.78 2978.31,5474.53C3039.27,5565.48 3083.43,5643.52 3092.17,5679.46C3096.56,5696.99 3130.39,5745 3167.76,5784.57C3232.45,5852.03 3242.66,5866.19 3251.89,5914.15C3254.67,5929.02 3260.62,5944.8 3276.72,5970.09C3297.72,6003.07 3337.81,6055.03 3415.46,6152.09C3458.13,6205.23 3710.72,6451.73 3818.34,6548.16C3841.06,6568.52 3857.76,6582.42 3865.22,6587.22C3868.19,6589.12 3870.91,6590.35 3873.28,6591.14C3878.52,6595.62 3921.71,6632.73 3956.98,6668.8C4031.48,6744.35 4053.76,6759.76 4118.1,6785.07C4140.88,6793.61 4163.67,6804.18 4180.3,6813.74C4188.93,6818.71 4195.76,6822.86 4198.72,6826.4L4199.49,6827.29C4226.01,6855.92 4327.37,6907.74 4396.02,6925.69C4424.54,6933.56 4493.38,6957.19 4548.32,6979.76C4607,7004.3 4668.13,7022.5 4682,7022.5C4695,7022.5 4735.67,7034.3 4773.53,7047.22C4900.33,7091.86 5192.45,7117.65 5406.62,7103.44C5489.41,7097.46 5617.1,7090.47 5690.91,7087.48C5765.67,7084.45 5856.52,7077.33 5893.29,7071.26C5929.06,7066.29 5995.37,7057.38 6042.38,7053.37C6090.47,7048.26 6163.02,7034.93 6203.18,7022.64C6240.65,7012.34 6280.76,7002.5 6292,7002.5C6306.09,7002.5 6346.35,6992.27 6382.11,6980.35C6414.18,6969.66 6470.53,6957.07 6508.51,6951.23C6547.26,6945.11 6640.08,6919.72 6712.38,6894.26C6784.17,6869.33 6861.93,6842.41 6886.86,6834.43L6887.62,6834.17C6912.7,6825.14 6983.93,6799.06 7046.12,6774.98C7100.57,6753.9 7150.24,6735.86 7164.61,6732.49L7165.2,6732.36C7167.86,6732.08 7172,6731.32 7177.32,6729.73C7193.58,6724.87 7230.22,6711.12 7268.69,6694.75C7386.43,6645.43 7514.97,6596.09 7569.32,6578.33C7579.13,6575.13 7588.86,6572.6 7589.51,6572.43C7600.38,6571.57 7625.39,6562.17 7645.41,6550.39C7645.68,6550.23 7645.95,6550.06 7646.22,6549.89C7662.56,6539.32 7728.09,6515.76 7791.64,6496.5C7952.24,6446.86 8035.94,6442.94 8195.53,6475.05C8265.24,6489.19 8385.46,6506.37 8463.13,6512.42C8545.51,6519.29 8634.77,6532.91 8686.12,6547.72C8736.35,6561.32 8795.02,6572.5 8817,6572.5C8836.31,6572.5 8866.63,6577.13 8884.16,6581.73C8905.19,6587.94 8982.3,6597.37 9056.18,6602.43C9172.13,6611.83 9204.49,6610.13 9247.32,6597.59L9247.89,6597.42C9274.96,6588.72 9347.52,6580.32 9409.4,6576.46C9475.63,6572.32 9549.06,6563.68 9571.82,6556.44C9592.92,6549.73 9640.91,6541.21 9676.83,6537.43C9757.64,6530.85 9809.23,6544.34 9891.03,6596.05C9927.77,6619.14 9971.99,6643.05 9990.89,6649.35C10007.3,6654.81 10031.9,6667.61 10045.5,6676.72C10061.4,6687.33 10098.5,6705.49 10127.4,6716.19C10153.6,6725.53 10184.4,6740.36 10197.7,6748.82C10212.7,6759.36 10251.2,6780.73 10284.7,6798C10316.4,6814.34 10357.8,6838.24 10376.1,6852.66L10376.7,6853.11C10397.3,6868.29 10440.6,6889.02 10471.7,6897.61C10530.1,6914.55 10601,6973.71 10654.8,7050.2C10672.9,7075.2 10691.2,7096.6 10699.9,7104.22C10704.4,7108.2 10708.8,7110.3 10712.3,7111.39C10714.5,7112.92 10736.1,7127.84 10753.4,7142.14ZM11907.8,5489.62C11909.2,5500.13 11916.5,5514.36 11930.3,5528.16C11956.5,5554.46 12005.3,5583.52 12037.7,5588.26L12037,5588.14C12056,5591.6 12084.6,5603.67 12101.2,5616.76C12119.2,5630.77 12159.2,5661.78 12190.6,5686.07C12219.8,5707.72 12255.6,5743.41 12271.8,5766.2C12374.2,5907.69 12408,5957.09 12418.9,5988.69C12423.2,6000.55 12426.1,6007.52 12425.2,6014.71C12424.2,6022.38 12419.4,6029.69 12411.9,6042.03C12386.7,6082.25 12333.6,6117.65 12251,6152.38C12194.4,6177.09 12161,6202.3 12034.3,6324.89C11913.4,6442.84 11824.2,6517.2 11710.8,6595.8C11698.6,6604.66 11671.2,6641.69 11651.1,6678.58C11629.8,6719.28 11606.7,6746.11 11570.7,6772.86C11539.2,6795.94 11495.2,6838.97 11472.1,6869.3C11385.4,6982.38 11309.8,7064.7 11264.8,7093.07C11226.4,7117.8 11209.8,7121.87 11145,7125.52C11098.7,7127.63 11034.5,7138.39 11004.3,7149.86C10947.8,7170.47 10882.5,7172.92 10847.4,7155.06C10833.4,7147.52 10803.6,7126.98 10783.1,7108.35L10782.3,7107.65C10762.6,7091.34 10743.4,7077.22 10734.4,7072.18C10732.4,7071.06 10730.5,7070.21 10728.8,7069.56C10724.9,7065.2 10705.1,7043.03 10691.4,7024.05C10631.1,6938.29 10549.9,6873.45 10484,6854.31C10457.5,6847 10420.9,6829.8 10403.5,6816.99C10383.5,6801.36 10339.3,6775.53 10305.3,6758C10273.4,6741.56 10236.6,6721.36 10223.1,6711.69C10222.8,6711.48 10222.5,6711.27 10222.2,6711.07C10207.3,6701.52 10172.3,6684.43 10142.8,6673.9C10117.5,6664.51 10084.6,6648.67 10070.5,6639.28C10054.1,6628.39 10024.7,6613.19 10005.1,6606.65C9988.01,6600.95 9948.23,6578.86 9915.02,6557.98C9822.77,6499.66 9764.36,6485.15 9672.65,6492.62C9633.09,6496.79 9581.08,6506.27 9558.18,6513.56C9536.94,6520.32 9468.37,6527.68 9406.6,6531.54C9340.48,6535.68 9263.04,6545.28 9234.11,6554.58L9234.68,6554.41C9195.51,6565.87 9165.87,6566.17 9059.54,6557.55C8988.83,6552.71 8915.18,6544.36 8896.77,6538.54C8896.43,6538.44 8896.08,6538.33 8895.73,6538.24C8875.24,6532.85 8839.65,6527.5 8817,6527.5C8796.98,6527.5 8743.65,6516.68 8698.24,6504.38C8645.23,6489.09 8552.49,6474.71 8466.75,6467.57C8390.54,6461.63 8272.76,6444.81 8204.44,6430.94C8036.06,6397.06 7947.76,6401.14 7778.48,6453.47C7709.91,6474.24 7639.44,6500.68 7621.78,6512.11L7622.59,6511.61C7610.08,6518.97 7587.55,6527.38 7587.12,6527.53C7582.61,6527.84 7571.46,6530.29 7555.35,6535.56C7500.39,6553.51 7370.37,6603.37 7251.19,6653.3C7210.53,6670.6 7160.81,6687.62 7160.81,6687.62C7160.81,6687.62 7161.28,6687.59 7161.79,6687.56C7159.01,6687.76 7153.87,6688.63 7146.88,6690.7C7126.68,6696.67 7080.22,6713.53 7029.88,6733.02C6968.33,6756.84 6897.89,6782.64 6872.69,6791.72C6847.15,6799.91 6769.41,6826.82 6697.53,6851.78C6627.92,6876.28 6538.74,6900.89 6501.58,6906.76C6461.47,6912.93 6401.82,6926.34 6367.89,6937.65C6337.65,6947.73 6303.91,6957.5 6292,6957.5C6279.26,6957.5 6233.5,6967.63 6191.03,6979.31L6190.38,6979.49C6152.44,6991.17 6083.35,7003.76 6038.09,7008.58C5990.72,7012.61 5923.19,7021.67 5886.9,7026.71L5886.3,7026.81C5850.8,7032.72 5762.06,7039.56 5689.09,7042.52C5614.9,7045.53 5486.59,7052.54 5403.51,7058.55C5195.55,7072.35 4911.67,7048.14 4788.27,7004.71C4744.33,6989.7 4697,6977.5 4682,6977.5C4669.87,6977.5 4617.01,6959.71 4565.55,6938.19C4508.62,6914.81 4437.46,6890.44 4407.69,6882.23C4346.63,6866.26 4256,6822.08 4232.51,6796.71L4233.28,6797.6C4222.16,6784.25 4178.38,6759.61 4134.24,6743.06C4076.24,6720.24 4056.52,6705.65 3989.09,6637.27C3952.76,6600.12 3917.67,6567.69 3901.95,6556.17C3897.29,6552.75 3893.04,6550.63 3889.53,6549.34C3888.94,6548.88 3868.13,6532.36 3848.37,6514.65C3742.16,6419.47 3492.67,6176.37 3450.57,6123.94C3374.59,6028.97 3335.24,5978.21 3314.68,5945.91C3303.06,5927.68 3298.13,5916.58 3296.1,5905.75C3285.34,5849.8 3275.55,5831.97 3200.36,5753.55C3180.78,5732.83 3161.89,5709.7 3149.08,5691.19C3142.27,5681.34 3137.05,5673.44 3135.86,5668.68C3126.57,5630.48 3080.73,5546.52 3015.79,5449.62C2989.92,5410.34 2961.99,5358.73 2953.25,5334.6C2944.95,5308.77 2931.62,5276.17 2923.13,5260.92C2917.76,5249.36 2912.5,5235.9 2912.5,5229C2912.5,5218.62 2906.18,5197.72 2894.86,5172.93C2871.61,5121.99 2828.68,5051.13 2803.64,5026.82C2772.38,4996.61 2699.98,4962.23 2579.23,4923.69C2558.16,4916.34 2527.17,4900.94 2510.52,4889C2492.26,4874.27 2451.12,4851.4 2420.06,4835.88L2419.49,4835.6C2335.68,4796.62 2111.54,4600.7 2060.98,4522.92C2046.18,4499.66 2011.39,4460.46 1984.26,4436.47C1960.69,4414.71 1934.98,4381.42 1926.95,4361.8C1917.35,4337.27 1891.9,4295.59 1869.76,4268.19C1850.48,4243.39 1829.09,4205.89 1822.52,4182.42C1803.77,4121.15 1784.41,4071.02 1768.19,4040.78C1759.79,4025.12 1751.67,4014.16 1745.13,4008.35C1736.83,4000.8 1728.98,3984.71 1726.06,3971.59C1710.22,3892.36 1626.31,3796.86 1504.68,3721.77C1451.33,3689.38 1379.2,3607.23 1343.96,3539.62C1330,3512.77 1304.21,3477.47 1285.84,3460.02C1275.82,3449.98 1263.52,3432.62 1261.99,3430.44C1261.29,3426.39 1259.75,3420.59 1257.04,3413.54C1250.96,3397.71 1238.82,3371.32 1225.12,3343.94C1194.1,3281.89 1175.99,3261.49 1116.16,3218.75C1074.31,3188.56 988.851,3104.97 941.285,3051.53C927.5,3036.05 913.774,3017.35 911.812,3014.65C911.113,3011.61 909.76,3007.76 907.274,3003.39C900.986,2992.34 883.285,2968.95 862.334,2944.66C839.092,2916.57 801.336,2860.39 779.94,2818.58C756.181,2773.12 718.922,2716.35 697.022,2690.29C650.404,2636.36 645.486,2626.47 637.303,2571.03C628.29,2503.43 644.759,2455.75 694.51,2403.29C716.886,2379.12 742.083,2354.14 750.138,2350.56C750.858,2350.24 751.561,2349.88 752.244,2349.49C777.371,2334.99 944.595,2295.12 1002.8,2287.33C1034.84,2284.02 1082.52,2270.27 1109.55,2258.37C1139.36,2244.4 1174.85,2238.35 1230.42,2236.5C1287.12,2235.43 1337.32,2226.36 1363.62,2214.78C1403.53,2198.24 1533.07,2181.38 1655.73,2177.49C1751.21,2174.41 1877.48,2148.65 1953.36,2117.89C1991.51,2102.63 2039.24,2092.26 2095.6,2088.44C2170.85,2083.07 2201.86,2074.89 2238.49,2053.35C2268.29,2035.65 2301.98,2027.9 2365.42,2021.37C2473.71,2009.66 2703.99,2018.73 2758.18,2037.44C2782.56,2045.2 2813.7,2052.5 2827,2052.5C2869.14,2052.5 2950.4,2029.87 3014.51,1999.39C3055.49,1980.27 3080.91,1973.58 3116.51,1974.5C3167.65,1975.61 3183.45,1970.74 3243.83,1930.49C3287.07,1900.48 3306.11,1892.5 3337,1892.5C3366.07,1892.5 3414.64,1880.06 3459.71,1860.75C3607.54,1798.66 3941.68,1756.68 4168.47,1773.45C4357.93,1786.34 4436.29,1798.25 4619.75,1841.88C4669.88,1853.91 4733.05,1867.95 4760.29,1874C4787.32,1879.79 4841.37,1898.22 4881.06,1915.65C4983.56,1960.03 5017.49,1965.81 5092.58,1957.35C5150.07,1950.72 5165.74,1943.37 5218.74,1897C5260.18,1861.09 5279.51,1850.94 5334.19,1838.89C5373.79,1829.52 5434.21,1808.59 5467.06,1791.12C5497.07,1776.12 5542.98,1761.01 5568.18,1757.27C5597.62,1753.07 5651.29,1735.38 5689.14,1718.56L5689.75,1718.28C5739.8,1694.22 5775.5,1686.91 5877.32,1675.38C6111.45,1651.16 6168.95,1642.95 6210.38,1632.85C6278.65,1616.03 6499.28,1591.43 6634.86,1586.48C6796.23,1580.32 6945.12,1562.6 6980.06,1545.12C6993.11,1538.6 7037.03,1528.88 7078.53,1523.22C7122.93,1516.16 7168.32,1509.08 7178.21,1507.1C7198.39,1503.26 7309.73,1516.71 7389.9,1533.12C7417.24,1538.19 7508.35,1547.37 7592.45,1553.45C7704.76,1561.19 7752.27,1568.53 7796.85,1585.97C7921.12,1634.24 8036.27,1662.5 8102,1662.5C8126.53,1662.5 8162.72,1672.97 8198.65,1690.46C8234.54,1706.87 8289.93,1728.38 8321.73,1737.61C8352.22,1746.46 8438.72,1781.97 8512.59,1816.44C8573.93,1844.69 8628.82,1869.04 8650.91,1877.66C8657.56,1880.26 8662.69,1881.56 8665.86,1882.12L8664.01,1881.81C8664.01,1881.81 8693.45,1898.07 8716.37,1913.62C8739.9,1929.59 8762.14,1943.45 8772.22,1948.39C8779.29,1951.85 8784.64,1952.5 8787,1952.5C8818.62,1952.5 8867.37,1980.44 8915.21,2021.96C8957.1,2058.48 9003.61,2086.98 9032.65,2095.59C9147.95,2129.5 9223.4,2177.19 9324.24,2277.05C9377.85,2329.7 9437.47,2397.79 9455.99,2427.04C9476.37,2459.22 9513.96,2498.86 9538.63,2517.09L9539.52,2517.72C9562.84,2533.27 9616.16,2582 9658.91,2625.73C9703.63,2671.46 9760.53,2723.15 9785.43,2740.95C9810.01,2760.13 9833.6,2788.42 9850.15,2820.59C9867.11,2852.4 9900.06,2897.93 9924.09,2920.91C9945.21,2942.03 9981.68,2987.17 10003,3022.11C10026.4,3058.75 10063.1,3108.62 10083.4,3134.06C10102.6,3158.04 10127.6,3196.4 10139.9,3220.06C10172,3284.27 10219.6,3350.52 10271.4,3400.2C10297.8,3425.72 10324,3467.52 10349.4,3524.06C10371.5,3574.39 10401.7,3637.7 10417,3665.36C10430.6,3692.59 10450,3737.07 10459.7,3766.12L10459.9,3766.75C10471.1,3797.47 10497.8,3855.87 10520.3,3896.84C10538.1,3929.21 10556.1,3970.03 10557.6,3973.58C10558.1,3978.82 10560,3987.44 10565.1,4001.3C10575.6,4030.21 10601.5,4090.11 10656.4,4214.14C10721.1,4359.58 10734.3,4386.83 10785.8,4471.71C10810.4,4512.13 10839,4563.38 10849.9,4585.06L10850.2,4585.77C10862.3,4607.96 10882.5,4644.26 10895.6,4666.45L10896,4667.08C10909.4,4688.1 10931.2,4739.78 10944.7,4782.3C10980.9,4887.7 11035,4987.72 11084.7,5040.54C11102.5,5059.11 11120.4,5083.74 11122.9,5096.41L11123.1,5097.32C11128.2,5118.18 11149.1,5150.55 11174.5,5178.89C11200,5207.37 11229.9,5231.48 11249.7,5238.28L11249,5238.05C11295.8,5255.72 11399.8,5272.5 11458,5272.5C11525.8,5272.5 11557.3,5290.21 11627,5360.81C11627,5360.84 11627.1,5360.88 11627.1,5360.91L11694.1,5427.91C11698.8,5432.62 11705.4,5435.01 11712,5434.41C11712,5434.41 11790,5427.41 11790,5427.41L11857.3,5421.44L11881.5,5450.16C11893.4,5464.9 11905.9,5486.42 11907.8,5489.62ZM8668.43,1882.47L8669,1882.5C8668.85,1882.5 8668.66,1882.49 8668.43,1882.47Z"/>
        </g>
    </g>
    <defs>
        <linearGradient id="_Linear1" x1="0" y1="0" x2="1" y2="0" gradientUnits="userSpaceOnUse" gradientTransform="matrix(11835.4,0,0,5704.91,612.371,4336.73)"><stop offset="0" style="stop-color:white;stop-opacity:1"/><stop offset="0.15" style="stop-color:rgb(22,16,16);stop-opacity:1"/><stop offset="0.29" style="stop-color:rgb(0,16,255);stop-opacity:1"/><stop offset="0.48" style="stop-color:rgb(133,133,133);stop-opacity:1"/><stop offset="0.65" style="stop-color:rgb(255,90,0);stop-opacity:1"/><stop offset="0.87" style="stop-color:rgb(87,222,51);stop-opacity:1"/><stop offset="1" style="stop-color:rgb(15,28,18);stop-opacity:1"/></linearGradient>
    </defs>
</svg>
