<?xml version="1.0" encoding="UTF-8" standalone="no"?>
<!DOCTYPE svg PUBLIC "-//W3C//DTD SVG 1.1//EN" "http://www.w3.org/Graphics/SVG/1.1/DTD/svg11.dtd">
<svg width="100%" height="100%" viewBox="0 0 303 368" version="1.1" xmlns="http://www.w3.org/2000/svg" xmlns:xlink="http://www.w3.org/1999/xlink" xml:space="preserve" xmlns:serif="http://www.serif.com/" style="fill-rule:evenodd;clip-rule:evenodd;stroke-linejoin:round;stroke-miterlimit:2;">
    <g transform="matrix(1,0,0,1,-74.3811,-435)">
        <g transform="matrix(0.1,0,0,-0.1,0,1280)">
            <g transform="matrix(1,0,0,1,0,-40)">
                <path d="M2896,8458C2876,8425 2830,8269 2765,8010C2695,7728 2673,7655 2647,7608C2594,7512 2563,7546 2386,7888C2257,8139 2201,8231 2150,8274C2113,8305 2099,8306 2076,8281C2034,8235 2032,8064 2071,7715C2097,7486 2100,7369 2081,7347C2046,7304 2005,7331 1790,7535C1589,7726 1478,7810 1428,7810C1397,7810 1387,7774 1401,7717C1420,7636 1450,7561 1558,7330C1677,7073 1690,7036 1667,7013C1643,6989 1603,7004 1350,7125C1232,7182 1112,7236 1083,7245C968,7281 941,7245 1009,7144C1031,7112 1126,7002 1220,6901C1391,6716 1426,6671 1416,6644C1407,6621 1328,6627 1128,6664C844,6718 760,6721 760,6676C760,6640 862,6565 1111,6417C1269,6323 1313,6289 1308,6263C1304,6239 1267,6232 1055,6215C849,6199 778,6187 759,6164C730,6129 821,6083 1071,6010C1284,5947 1340,5924 1340,5899C1340,5875 1303,5856 1150,5805C957,5740 901,5709 913,5676C922,5653 984,5640 1150,5629C1399,5613 1471,5604 1487,5587C1501,5573 1500,5569 1474,5543C1457,5528 1404,5487 1355,5453C1245,5376 1200,5335 1200,5310C1200,5270 1268,5272 1513,5316C1588,5330 1669,5340 1693,5338C1731,5335 1735,5333 1732,5311C1731,5298 1701,5248 1666,5201C1631,5154 1594,5098 1584,5077C1568,5043 1567,5038 1582,5023C1605,5001 1655,5015 1828,5091C1903,5125 1981,5153 2000,5154C2031,5155 2035,5152 2038,5127C2040,5111 2032,5068 2021,5030C1989,4925 1984,4877 2005,4860C2020,4848 2028,4849 2073,4873C2102,4888 2157,4927 2195,4961C2234,4994 2285,5033 2309,5047L2353,5074L2370,5053C2381,5039 2391,4998 2398,4936C2404,4883 2412,4836 2415,4830C2424,4816 2483,4818 2503,4832C2512,4839 2550,4890 2587,4945C2647,5033 2658,5045 2684,5045C2710,5045 2718,5036 2757,4965C2809,4871 2841,4834 2865,4843C2886,4851 2914,4916 2935,5005C2954,5083 2973,5120 2995,5120C3004,5120 3044,5089 3086,5050C3204,4940 3237,4943 3231,5063C3223,5236 3222,5235 3251,5238C3266,5240 3312,5224 3360,5200C3449,5158 3484,5151 3494,5175C3500,5192 3482,5246 3446,5318C3418,5374 3413,5408 3433,5416C3440,5418 3482,5414 3525,5405C3569,5397 3620,5390 3638,5390C3691,5390 3680,5424 3600,5513C3519,5603 3519,5620 3599,5621C3664,5621 3739,5635 3752,5648C3769,5665 3747,5685 3657,5737C3542,5803 3543,5813 3662,5851C3784,5890 3777,5912 3630,5957C3569,5976 3535,5991 3535,6000C3535,6008 3562,6033 3595,6056C3690,6123 3674,6147 3533,6149C3420,6151 3407,6163 3459,6222C3503,6273 3512,6296 3495,6310C3484,6319 3464,6318 3402,6306C3358,6297 3313,6290 3300,6290C3279,6290 3278,6293 3285,6333C3304,6447 3304,6440 3279,6440C3266,6440 3226,6426 3192,6410C3100,6366 3094,6368 3084,6443C3072,6524 3053,6529 2980,6466C2914,6409 2894,6408 2873,6458C2853,6506 2832,6530 2814,6523C2802,6519 2804,6528 2819,6568C2866,6686 2916,6959 2939,7215C2945,7281 2955,7387 2961,7450C2978,7641 2985,8170 2971,8299C2959,8412 2940,8480 2921,8480C2915,8480 2904,8470 2896,8458Z" style="fill:url(#_Radial1);fill-rule:nonzero;stroke:url(#_Radial2);stroke-width:20px;"/>
            </g>
        </g>
    </g>
    <defs>
        <radialGradient id="_Radial1" cx="0" cy="0" r="1" gradientUnits="userSpaceOnUse" gradientTransform="matrix(1922.77,-784.38,-955.718,-2342.78,1908.76,6462.12)"><stop offset="0" style="stop-color:white;stop-opacity:1"/><stop offset="0.17" style="stop-color:rgb(255,153,0);stop-opacity:1"/><stop offset="0.3" style="stop-color:rgb(181,0,255);stop-opacity:1"/><stop offset="0.46" style="stop-color:rgb(137,137,137);stop-opacity:1"/><stop offset="0.61" style="stop-color:rgb(27,0,255);stop-opacity:1"/><stop offset="0.75" style="stop-color:rgb(63,63,63);stop-opacity:1"/><stop offset="0.87" style="stop-color:rgb(15,15,15);stop-opacity:1"/><stop offset="1" style="stop-color:black;stop-opacity:1"/></radialGradient>
        <radialGradient id="_Radial2" cx="0" cy="0" r="1" gradientUnits="userSpaceOnUse" gradientTransform="matrix(0.5,0,0,0.5,0.5,0.5)"><stop offset="0" style="stop-color:rgb(114,98,98);stop-opacity:1"/><stop offset="1" style="stop-color:black;stop-opacity:1"/></radialGradient>
    </defs>
</svg>
