<svg width="100%" height="100%" viewBox="0 0 310 287" version="1.1" xmlns="http://www.w3.org/2000/svg" xmlns:xlink="http://www.w3.org/1999/xlink" xml:space="preserve" xmlns:serif="http://www.serif.com/" style="fill-rule:evenodd;clip-rule:evenodd;stroke-linejoin:round;stroke-miterlimit:2;">
    <g transform="matrix(1,0,0,1,-885.86,-495.751)">
        <g transform="matrix(0.1,0,0,-0.1,0,1280)">
            <g transform="matrix(-0.992415,-0.122933,0.122933,-0.992415,19910.3,13925.1)">
                <path d="M9347,7790C9209,7680 9150,7595 9075,7405C9049,7339 8997,7219 8959,7139C8861,6930 8860,6928 8865,6525C8869,6130 8869,6129 8978,5920C9012,5857 9057,5758 9080,5700C9151,5521 9200,5457 9358,5337C9398,5307 9478,5238 9535,5185C9696,5034 9719,5022 9934,4971C10002,4954 10098,4926 10147,4907C10313,4843 10375,4838 10552,4874C10616,4888 10712,4902 10767,4905C10959,4917 11022,4940 11165,5049C11209,5083 11290,5133 11345,5162C11478,5230 11533,5284 11601,5410C11630,5465 11687,5552 11727,5603C11820,5720 11839,5769 11850,5924C11855,5997 11869,6085 11885,6145C11918,6271 11914,6324 11861,6457C11837,6517 11815,6593 11806,6653C11797,6707 11780,6770 11769,6793C11757,6816 11710,6870 11665,6915C11619,6959 11563,7024 11540,7060C11466,7173 11431,7198 11299,7235C11268,7244 11214,7269 11179,7291C11057,7367 11036,7374 10946,7365C10846,7355 10777,7355 10680,7365C10595,7373 10583,7369 10479,7299C10443,7275 10392,7253 10344,7240C10252,7215 10217,7187 10171,7100C10122,7008 10118,7008 10070,7096C10013,7200 9827,7476 9743,7580C9657,7687 9578,7767 9519,7808C9441,7860 9433,7860 9347,7790Z" style="fill:url(#_Radial1);fill-rule:nonzero;"/>
                <path d="M9343.86,7793.89C9388.02,7829.83 9412.39,7847.41 9435.5,7849.73C9447.59,7850.93 9459.43,7848.16 9473.46,7841.48C9486.69,7835.19 9502.02,7825.33 9521.85,7812.11C9581.12,7770.92 9660.51,7690.61 9746.89,7583.14C9831.02,7478.98 10017.3,7202.56 10074.4,7098.39C10088.6,7072.41 10098.8,7054.19 10107.5,7043.91C10112.1,7038.5 10115.9,7035.34 10119.9,7035.5C10124.1,7035.66 10128,7039.15 10132.8,7045.07C10141.6,7056.07 10152.1,7075.14 10166.6,7102.34C10213.4,7190.89 10249,7219.38 10342.7,7244.83C10390.2,7257.68 10440.6,7279.42 10476.2,7303.15C10581.9,7374.26 10594.1,7378.11 10680.5,7369.97C10777.1,7360.01 10845.9,7360.01 10945.5,7369.98C11036.7,7379.09 11058,7372.24 11181.7,7295.23C11216.3,7273.46 11269.7,7248.71 11300.4,7239.81C11433.9,7202.38 11469.3,7177.07 11544.2,7062.69C11567.1,7026.92 11622.7,6962.34 11668.5,6918.54C11714,6873.11 11761.3,6818.53 11773.4,6795.31L11773.5,6795.16C11784.6,6771.94 11801.8,6708.34 11810.9,6653.74C11819.9,6594.08 11841.8,6518.52 11865.6,6458.85C11919.2,6324.52 11923.2,6270.99 11889.8,6143.71C11873.9,6083.97 11860,5996.35 11855,5923.65C11843.9,5767.31 11824.7,5717.9 11730.9,5599.91C11691.1,5549.11 11634.3,5462.45 11605.4,5407.62C11536.8,5280.57 11481.4,5226.11 11347.3,5157.58C11292.6,5128.69 11211.9,5078.91 11168,5045.02C11024.1,4935.28 10960.6,4912.09 10767.3,4900.01C10712.5,4897.02 10616.8,4883.06 10553,4869.1C10374.8,4832.85 10312.3,4837.89 10145.2,4902.34C10096.3,4921.28 10000.6,4949.2 9932.85,4966.14C9716.62,5017.43 9693.49,5029.49 9531.59,5181.34C9474.72,5234.22 9394.91,5303.07 9354.98,5333.02C9196.05,5453.72 9146.77,5518.11 9075.35,5698.16C9052.41,5756.02 9007.52,5854.78 8973.57,5917.69C8864.16,6127.48 8864.01,6128.46 8860,6524.94C8854.98,6929.39 8856.12,6931.37 8954.48,7141.15C8992.44,7221.05 9044.38,7340.91 9070.35,7406.84C9145.76,7597.88 9205.13,7683.31 9343.86,7793.89ZM11764.5,6790.76C11752.6,6813.59 11706,6866.94 11661.5,6911.39C11615.3,6955.66 11558.9,7021.08 11535.8,7057.26C11462.7,7168.93 11428.1,7193.62 11297.6,7230.2C11266.3,7239.29 11211.7,7264.54 11176.4,7286.76C11056,7361.76 11035.3,7368.91 10946.5,7360.03C10846.1,7349.99 10776.9,7349.99 10679.5,7360.02C10595.9,7367.9 10584.1,7363.74 10481.8,7294.84C10445.4,7270.58 10393.8,7248.32 10345.3,7235.18C10255,7210.62 10220.6,7183.11 10175.4,7097.65C10160.5,7069.66 10149.7,7050.1 10140.5,7038.79C10133.3,7029.84 10126.6,7025.74 10120.3,7025.5C10113.9,7025.26 10107.2,7028.9 10099.9,7037.43C10090.9,7048.05 10080.2,7066.79 10065.6,7093.6C10008.7,7197.44 9822.98,7473.02 9739.1,7576.87C9653.49,7683.39 9574.88,7763.08 9516.23,7803.84C9496.98,7816.67 9482.06,7826.32 9469.16,7832.45C9457.07,7838.21 9446.91,7840.82 9436.5,7839.78C9425.91,7838.72 9415.13,7833.95 9401.89,7825.45C9387.95,7816.49 9371.47,7803.47 9350.16,7786.12L9350.12,7786.09C9212.87,7676.69 9154.24,7592.12 9079.65,7403.17C9053.62,7337.09 9001.56,7216.95 8963.53,7136.88C8865.88,6928.63 8865.02,6926.61 8870,6525.05C8873.99,6131.54 8873.84,6130.52 8982.4,5922.38C9016.48,5859.22 9061.59,5759.98 9084.65,5701.84C9155.23,5523.9 9203.95,5460.28 9361,5341C9401.09,5310.93 9481.28,5241.78 9538.42,5188.65C9698.51,5038.51 9721.38,5026.57 9935.21,4975.85C10003.4,4958.8 10099.7,4930.72 10148.8,4911.66C10313.7,4848.11 10375.2,4843.15 10550.9,4878.89C10615.2,4892.94 10711.5,4906.98 10766.7,4909.99C10957.4,4921.91 11019.9,4944.72 11161.9,5052.96C11206.1,5087.09 11287.4,5137.31 11342.7,5166.45C11474.6,5233.89 11529.2,5287.43 11596.6,5412.33C11625.7,5467.55 11682.9,5554.89 11723.1,5606.11C11815.3,5722.1 11834.1,5770.69 11845,5924.34C11850,5997.65 11864.1,6086.03 11880.2,6146.27C11912.8,6271.01 11908.8,6323.48 11856.4,6455.14C11832.2,6515.48 11810.1,6591.92 11801.1,6652.18C11792.2,6705.59 11775.4,6767.91 11764.5,6790.76Z"/>
            </g>
        </g>
    </g>
    <defs>
        <radialGradient id="_Radial1" cx="0" cy="0" r="1" gradientUnits="userSpaceOnUse" gradientTransform="matrix(1521.35,0,0,1496.68,10384.8,6348.32)"><stop offset="0" style="stop-color:rgb(0,255,240);stop-opacity:1"/><stop offset="0.35" style="stop-color:rgb(91,139,243);stop-opacity:1"/><stop offset="0.6" style="stop-color:rgb(149,149,149);stop-opacity:1"/><stop offset="0.77" style="stop-color:rgb(149,140,140);stop-opacity:1"/><stop offset="1" style="stop-color:rgb(84,73,73);stop-opacity:1"/></radialGradient>
    </defs>
</svg>