<?xml version="1.0" encoding="UTF-8" standalone="no"?>
<!DOCTYPE svg PUBLIC "-//W3C//DTD SVG 1.1//EN" "http://www.w3.org/Graphics/SVG/1.1/DTD/svg11.dtd">
<svg width="100%" height="100%" viewBox="0 0 229 250" version="1.1" xmlns="http://www.w3.org/2000/svg" xmlns:xlink="http://www.w3.org/1999/xlink" xml:space="preserve" xmlns:serif="http://www.serif.com/" style="fill-rule:evenodd;clip-rule:evenodd;stroke-linejoin:round;stroke-miterlimit:2;">
    <g transform="matrix(1,0,0,1,-959.094,-962.548)">
        <g transform="matrix(0.1,0,0,-0.1,0,1280)">
            <path d="M10505,3165C10500,3163 10483,3159 10469,3156C10454,3153 10422,3134 10399,3114C10336,3061 10257,3029 10183,3025C10100,3021 10040,2979 9992,2894C9947,2815 9906,2773 9840,2741C9768,2707 9726,2640 9717,2548C9709,2464 9676,2372 9641,2335C9595,2287 9584,2213 9609,2109C9637,1991 9642,1908 9626,1869C9603,1815 9630,1727 9703,1614C9768,1513 9803,1439 9802,1405C9800,1358 9878,1252 9975,1170C10078,1082 10130,1026 10130,1001C10130,975 10224,902 10340,838C10473,765 10511,740 10506,732C10503,728 10527,714 10559,701C10612,680 10630,678 10751,682C10857,685 10893,690 10923,705C10943,715 10960,729 10960,735C10960,741 11008,772 11068,805C11245,903 11344,977 11334,1005C11331,1012 11388,1073 11461,1141C11597,1269 11675,1369 11664,1402C11657,1425 11695,1508 11756,1602C11837,1728 11862,1810 11839,1874C11826,1911 11833,1996 11861,2131C11879,2217 11866,2293 11826,2338C11790,2378 11756,2472 11745,2559C11735,2646 11674,2740 11628,2740C11599,2740 11503,2837 11468,2902C11426,2980 11361,3023 11281,3025C11216,3027 11124,3067 11053,3124C11000,3167 10919,3180 10851,3156C10795,3135 10664,3135 10617,3155C10584,3169 10530,3174 10505,3165Z" style="fill:url(#_Linear1);fill-rule:nonzero;stroke:url(#_Radial2);stroke-width:10px;"/>
        </g>
    </g>
    <defs>
        <linearGradient id="_Linear1" x1="0" y1="0" x2="1" y2="0" gradientUnits="userSpaceOnUse" gradientTransform="matrix(2616.79,-154.015,-154.015,-2616.79,9579.64,2147.74)"><stop offset="0" style="stop-color:white;stop-opacity:1"/><stop offset="0.2" style="stop-color:rgb(110,74,74);stop-opacity:1"/><stop offset="0.44" style="stop-color:rgb(144,144,144);stop-opacity:1"/><stop offset="0.59" style="stop-color:rgb(83,83,83);stop-opacity:1"/><stop offset="0.64" style="stop-color:rgb(122,98,98);stop-opacity:1"/><stop offset="0.77" style="stop-color:rgb(52,52,52);stop-opacity:1"/><stop offset="1" style="stop-color:black;stop-opacity:1"/></linearGradient>
        <radialGradient id="_Radial2" cx="0" cy="0" r="1" gradientUnits="userSpaceOnUse" gradientTransform="matrix(1136.5,0,0,1244.6,10732.4,1924.92)"><stop offset="0" style="stop-color:white;stop-opacity:1"/><stop offset="0.27" style="stop-color:rgb(187,187,187);stop-opacity:1"/><stop offset="0.55" style="stop-color:rgb(116,116,116);stop-opacity:1"/><stop offset="1" style="stop-color:black;stop-opacity:1"/></radialGradient>
    </defs>
</svg>
