<?xml version="1.0" encoding="UTF-8" standalone="no"?>
<!DOCTYPE svg PUBLIC "-//W3C//DTD SVG 1.1//EN" "http://www.w3.org/Graphics/SVG/1.1/DTD/svg11.dtd">
<svg width="100%" height="100%" viewBox="0 0 1091 698" version="1.1" xmlns="http://www.w3.org/2000/svg" xmlns:xlink="http://www.w3.org/1999/xlink" xml:space="preserve" xmlns:serif="http://www.serif.com/" style="fill-rule:evenodd;clip-rule:evenodd;stroke-linejoin:round;stroke-miterlimit:2;">
    <g transform="matrix(1,0,0,1,-117.917,-114.145)">
        <g transform="matrix(0.1,0,0,-0.1,0,853)">
            <path d="M11135,7352C11092,7344 11036,7318 10978,7277C10923,7238 10913,7235 10842,7232C10774,7229 10753,7233 10665,7264C10610,7284 10555,7300 10542,7300C10507,7300 10456,7275 10414,7237C10368,7196 10319,7170 10289,7170C10278,7170 10234,7193 10193,7220C10124,7266 10114,7270 10058,7270C10008,7270 9991,7265 9964,7245C9944,7230 9918,7220 9898,7220C9861,7220 9755,7171 9670,7116C9640,7096 9609,7080 9601,7080C9593,7080 9531,7098 9464,7120C9383,7146 9323,7160 9288,7160C9206,7160 9096,7126 8978,7066C8920,7036 8852,7006 8828,7000C8804,6994 8756,6971 8720,6950C8610,6886 8586,6884 8395,6916C8252,6941 8234,6947 8163,7006L8095,7061L8035,7056C7900,7045 7856,7033 7763,6982C7712,6955 7652,6916 7628,6897C7534,6821 7492,6803 7394,6796C7335,6791 7287,6793 7254,6801C7194,6816 7104,6860 7063,6894C7000,6947 6975,6948 6820,6904C6774,6891 6723,6880 6707,6880C6677,6880 6596,6858 6543,6835C6525,6827 6483,6813 6448,6804C6377,6786 6182,6686 6111,6632C6051,6585 5973,6560 5891,6560C5836,6560 5802,6569 5691,6610C5617,6638 5552,6660 5547,6660C5542,6660 5497,6697 5448,6741C5386,6799 5352,6838 5335,6874C5321,6904 5299,6932 5281,6943C5225,6976 5182,6966 5013,6883L4858,6806L4729,6677C4599,6546 4585,6527 4524,6380C4504,6332 4410,6231 4363,6206C4347,6198 4310,6187 4280,6182C4250,6176 4212,6167 4196,6160C4170,6151 4157,6154 4078,6191C4001,6228 3983,6242 3937,6300C3895,6352 3880,6381 3866,6435C3840,6540 3811,6597 3767,6635C3717,6678 3695,6683 3584,6671C3511,6663 3481,6655 3438,6631C3408,6614 3375,6600 3365,6600C3356,6600 3312,6588 3270,6574C3227,6559 3185,6550 3176,6553C3168,6556 3152,6576 3141,6597C3108,6662 3041,6716 2976,6730C2905,6745 2871,6734 2803,6677C2775,6654 2739,6628 2723,6619C2704,6609 2685,6584 2670,6549C2654,6514 2632,6484 2606,6465C2583,6448 2555,6417 2542,6395C2523,6361 2520,6345 2524,6285C2526,6247 2533,6195 2538,6170C2548,6127 2547,6124 2514,6088C2496,6067 2478,6040 2474,6026C2470,6011 2454,5996 2427,5984C2377,5962 2320,5913 2320,5894C2320,5874 2281,5857 2250,5864C2230,5868 2217,5863 2204,5848C2193,5837 2169,5820 2150,5810C2084,5776 2075,5758 2078,5664C2080,5601 2075,5565 2060,5520C2036,5449 2034,5366 2055,5316C2068,5286 2068,5271 2059,5237C2035,5149 2030,5076 2042,5008C2051,4950 2051,4937 2038,4923C2011,4891 2001,4828 2006,4735L2011,4645L1966,4575C1916,4500 1917,4504 1920,4383C1921,4338 1919,4292 1915,4281C1912,4270 1879,4242 1843,4220C1807,4197 1754,4156 1726,4128C1698,4101 1646,4062 1612,4043C1559,4013 1533,4006 1457,3998C1318,3984 1242,3952 1220,3900C1204,3861 1222,3815 1261,3794C1290,3779 1351,3694 1364,3650C1368,3636 1375,3596 1380,3561C1390,3487 1443,3374 1496,3311C1515,3290 1530,3267 1530,3262C1530,3257 1550,3230 1573,3204C1685,3078 1687,3075 1695,2939C1699,2872 1708,2802 1716,2785C1723,2767 1754,2722 1785,2685C1848,2608 1853,2580 1816,2526C1770,2458 1774,2345 1826,2249C1862,2183 1923,2156 1990,2174C2028,2184 2054,2153 2040,2116C2027,2080 2027,2014 2041,1987C2069,1934 2137,1866 2201,1828C2305,1767 2314,1753 2307,1652C2300,1555 2306,1535 2363,1461C2401,1412 2406,1399 2417,1316C2423,1266 2442,1187 2459,1140C2483,1074 2490,1038 2490,980C2490,935 2497,886 2507,858C2523,814 2523,809 2505,771C2490,736 2489,727 2501,698C2508,680 2513,652 2511,634C2509,608 2515,597 2542,577C2588,542 2659,510 2693,510C2745,510 2818,566 2835,620C2846,656 2886,645 2920,596C2955,543 2982,532 3015,554C3028,563 3059,570 3083,570C3115,570 3135,577 3156,595C3193,627 3206,626 3228,592C3310,460 3401,417 3480,475C3499,489 3519,500 3526,500C3532,500 3545,516 3554,535C3563,554 3574,570 3578,570C3583,570 3594,595 3605,625C3628,695 3645,709 3722,725C3757,732 3799,742 3815,748C3922,784 3960,794 4002,795C4039,796 4056,802 4078,823L4105,849L4135,830C4173,805 4195,805 4213,830C4220,840 4238,854 4253,859C4285,872 4320,936 4320,985C4320,1005 4308,1049 4294,1083C4279,1117 4265,1172 4263,1206C4257,1277 4269,1306 4354,1420C4385,1461 4412,1510 4416,1528C4419,1546 4434,1570 4449,1581C4484,1609 4523,1602 4599,1555C4685,1502 4723,1506 4852,1583C4892,1607 4940,1667 4964,1724C4987,1780 5018,1794 5102,1787C5240,1775 5331,1821 5346,1910C5358,1988 5362,2000 5382,2025C5393,2039 5424,2062 5451,2076C5509,2105 5675,2265 5726,2341C5768,2404 5770,2452 5735,2529C5713,2575 5711,2591 5716,2645C5721,2689 5718,2723 5706,2764C5692,2812 5691,2831 5700,2874C5720,2970 5761,3085 5784,3110C5796,3124 5818,3154 5833,3177C5847,3200 5870,3222 5882,3225C5912,3235 5940,3260 5951,3288C5957,3304 5968,3310 5990,3310C6030,3310 6084,3333 6113,3362C6125,3375 6162,3407 6196,3433C6254,3478 6259,3480 6316,3478C6348,3477 6387,3479 6401,3483C6422,3490 6433,3486 6459,3465C6504,3427 6542,3421 6731,3420C6882,3420 6906,3422 6986,3446C7035,3461 7102,3479 7134,3487C7243,3513 7268,3535 7281,3620C7300,3744 7324,3818 7381,3930C7429,4025 7452,4059 7493,4095C7558,4152 7590,4167 7667,4175C7718,4181 7742,4178 7812,4157C7884,4134 7913,4131 8028,4131C8144,4131 8169,4134 8226,4156C8315,4189 8401,4234 8422,4257C8432,4267 8451,4316 8465,4366C8479,4415 8504,4482 8520,4515C8536,4548 8552,4593 8556,4615C8565,4668 8575,4688 8619,4733C8672,4790 8685,4793 8824,4774C8890,4765 8952,4758 8960,4758C9080,4765 9181,4783 9220,4804C9245,4817 9291,4836 9323,4845C9380,4861 9420,4891 9420,4917C9420,4924 9434,4956 9450,4987C9467,5018 9480,5048 9480,5054C9480,5061 9491,5081 9504,5099C9517,5117 9531,5148 9535,5168C9538,5188 9556,5237 9575,5275C9593,5314 9614,5363 9620,5385C9627,5407 9637,5430 9641,5436C9656,5455 9721,5460 9782,5449C9829,5440 9848,5440 9887,5453C9913,5461 9951,5471 9970,5475C10013,5484 10150,5538 10169,5554C10186,5567 10254,5711 10269,5766C10295,5861 10328,5883 10425,5871C10478,5865 10611,5875 10671,5891C10721,5904 10787,5950 10812,5991C10824,6010 10855,6065 10880,6115C10906,6164 10938,6212 10951,6222C10969,6235 11003,6242 11080,6246C11218,6255 11249,6270 11285,6347C11332,6449 11335,6454 11369,6477C11392,6493 11418,6500 11450,6500C11513,6500 11592,6525 11617,6552C11628,6565 11649,6598 11663,6625C11699,6697 11720,6712 11796,6721C11831,6726 11876,6737 11896,6746C11929,6762 11991,6837 12032,6914C12071,6985 12044,7113 11951,7300C11939,7324 11879,7350 11836,7350C11814,7350 11774,7343 11745,7334C11699,7319 11687,7319 11629,7332C11558,7348 11536,7345 11410,7306L11325,7280L11265,7311C11196,7347 11163,7358 11135,7352Z" style="fill:url(#_Radial1);fill-rule:nonzero;"/>
            <path d="M10292.2,7205.17C10299.6,7205.93 10308.4,7209.15 10318.2,7213.61C10340.5,7223.82 10366,7241.14 10390.5,7262.95C10439.9,7307.63 10500.8,7335 10542,7335C10556.2,7335 10616.8,7318.78 10676.6,7297.01C10758.1,7268.31 10777.5,7264.19 10840.5,7266.97C10901.7,7269.55 10910.4,7271.95 10957.8,7305.58C11020.8,7350.11 11081.9,7377.72 11128.6,7386.41L11127.7,7386.22C11160.5,7393.26 11200.3,7384.22 11281.1,7342.1L11328.4,7317.64L11399.7,7339.44C11535.9,7381.62 11559.9,7383.45 11636.7,7366.15C11685.4,7355.23 11695.5,7354.67 11734.6,7367.43C11766.9,7377.45 11811.5,7385 11836,7385C11872.2,7385 11918.6,7369.86 11948,7350.74C11964.8,7339.87 11976.6,7327.16 11982.3,7315.59C12040.4,7198.75 12073.3,7103.84 12081.9,7030.79C12088.4,6975.26 12081.2,6930.87 12062.9,6897.55C12017.8,6812.88 11947.6,6732.1 11911.3,6714.51C11911,6714.36 11910.7,6714.22 11910.4,6714.08C11888.5,6704.23 11839.3,6691.83 11800.1,6686.24C11769.9,6682.67 11750.3,6679.26 11735,6668.23C11719.4,6656.98 11708.9,6638.55 11694.1,6608.89C11678.8,6579.44 11655.7,6543.57 11643.7,6529.39C11643.4,6528.99 11643,6528.6 11642.7,6528.22C11630,6514.53 11606.9,6500.34 11578,6489.33C11540.1,6474.89 11491.9,6465 11450,6465C11426,6465 11406.3,6460.29 11388.6,6448.01C11358.7,6427.78 11358.1,6422.07 11316.7,6332.18C11299.2,6294.81 11281.9,6270.13 11257.6,6252.49C11224.1,6228.05 11175,6217.12 11081.8,6211.05C11045.4,6209.16 11019.2,6206.65 10999.9,6202.99C10986.7,6200.49 10977.9,6198.07 10972,6193.95C10960.3,6184.48 10933.7,6141.52 10911.3,6099.35C10885.7,6048.11 10853.9,5991.78 10841.9,5972.78C10813.1,5925.55 10737.4,5872.1 10680,5857.18C10616.9,5840.34 10476.9,5829.91 10420.7,5836.27C10383.4,5840.88 10358.1,5841.79 10339.9,5829.57C10321.7,5817.32 10312.8,5793.42 10302.8,5756.79C10290.2,5710.84 10242.4,5605.32 10214.7,5558.04C10205,5541.64 10196,5530.88 10190.8,5526.65C10167.8,5508.65 10023.1,5450.35 9977.21,5440.75C9958.92,5436.9 9922.33,5427.25 9898.07,5419.8C9852.51,5404.61 9830.33,5404.11 9775.79,5414.56C9743.4,5420.4 9709.74,5421.37 9685.12,5417.4C9679.02,5416.41 9671.38,5413.9 9668.04,5412.75C9664.19,5404.98 9658.14,5389.41 9653.4,5374.52C9646.68,5350.86 9625.32,5300.5 9606.78,5260.33L9606.31,5259.35C9589.13,5224.99 9572.33,5180.89 9569.61,5162.81C9569.53,5162.25 9569.43,5161.69 9569.32,5161.14C9564.53,5137.2 9547.93,5100.05 9532.37,5078.51C9525.09,5068.42 9516.26,5051.84 9514.59,5048.66C9514.16,5045.48 9513.3,5041.45 9511.75,5036.74C9507.54,5023.97 9495.75,4997.7 9480.99,4970.72C9469.43,4948.3 9456.91,4917.87 9454.83,4912.77C9453.89,4899.14 9448.24,4884.68 9436.9,4870.83C9418.3,4848.12 9380.81,4824.87 9332.48,4811.31C9302.55,4802.89 9259.53,4785.11 9236.59,4773.18C9195.37,4750.99 9088.88,4730.46 8962.04,4723.06C8961.36,4723.02 8960.68,4723 8960,4723C8951.72,4723 8887.55,4730.01 8819.26,4739.32C8745.64,4749.39 8712.15,4755.03 8686.96,4745.01C8672.06,4739.08 8661.24,4727.03 8644.63,4709.17L8644.02,4708.53C8606.89,4670.56 8598.1,4653.87 8590.43,4608.74C8586.08,4584.78 8568.92,4535.67 8551.49,4499.73C8536.1,4467.99 8512.12,4403.52 8498.7,4356.56C8488.31,4319.43 8475.21,4282.84 8464.71,4260.57C8458.28,4246.94 8451.76,4237.41 8447.1,4232.63C8423.36,4207.64 8332.78,4158.27 8238.6,4123.35C8177.95,4099.94 8151.44,4096 8028,4096C7907.31,4096 7876.91,4099.52 7801.94,4123.48C7738.74,4142.44 7717.14,4145.66 7670.62,4140.19C7602.15,4133.07 7573.87,4119.37 7516.09,4068.7C7477.82,4035.1 7457.04,4002.89 7412.19,3914.12C7357.14,3805.95 7333.95,3734.47 7315.6,3614.71C7309.29,3573.49 7299.54,3544.88 7282.99,3522.9C7258.92,3490.93 7219.02,3471.3 7142.49,3453.05C7110.87,3445.14 7044.66,3427.36 6996.06,3412.48C6912.89,3387.53 6887.98,3385 6730.82,3385C6525.72,3386.09 6485.25,3397.02 6437.01,3437.77C6425.15,3447.35 6421.64,3452.99 6412.07,3449.8C6411.59,3449.64 6411.1,3449.49 6410.61,3449.35C6394.84,3444.84 6350.95,3441.89 6314.77,3443.02C6296.12,3443.68 6284.26,3444.32 6273.72,3441.88C6257.91,3438.23 6245.92,3427.43 6217.26,3405.2C6185.14,3380.63 6150.06,3350.54 6138.72,3338.26L6137.75,3337.25C6102.93,3302.43 6038.02,3275 5990,3275C5987.86,3275 5985.15,3274.72 5983.28,3274.48C5968.61,3237.89 5932.33,3204.88 5893.07,3191.8L5892.86,3191.74C5890.72,3189.85 5871.12,3172.32 5862.9,3158.8L5862.32,3157.88C5846.49,3133.61 5823.23,3101.99 5810.57,3087.22L5809.76,3086.3C5804.44,3080.52 5798.56,3068.11 5791.56,3052.11C5771.11,3005.42 5747.76,2931.64 5734.26,2866.83C5726.65,2830.46 5727.76,2814.4 5739.59,2773.83C5752.98,2728.08 5756.36,2690.14 5750.85,2641.77C5746.64,2596.33 5748.06,2582.82 5766.86,2543.48C5808.18,2452.58 5804.71,2395.96 5755.06,2321.5C5701.68,2241.95 5527.36,2075.05 5467.11,2044.93C5444.76,2033.34 5418.62,2014.96 5409.33,2003.14C5392.31,1981.86 5390.81,1971.07 5380.51,1904.18C5362.95,1799.96 5260.57,1738.08 5099.09,1752.12C5060.07,1755.37 5035.47,1755.73 5018.47,1743.76C5008.65,1736.86 5002.54,1725.72 4996.26,1710.42C4969.36,1646.54 4914.84,1579.88 4869.94,1552.95C4783.39,1501.29 4732.49,1481.62 4685.64,1484.87C4652.82,1487.14 4621.04,1500.3 4580.59,1525.23C4553.42,1542.03 4531.69,1553.4 4513.22,1559.05C4495.64,1564.42 4482.77,1563.19 4470.86,1553.67C4470.48,1553.36 4470.09,1553.07 4469.7,1552.78C4461.04,1546.42 4452.26,1532.64 4450.52,1522.25C4450.42,1521.63 4450.3,1521.02 4450.17,1520.41C4445.69,1500.26 4416.61,1444.78 4382.06,1399.08C4306.05,1297.14 4292.51,1272.43 4297.88,1208.95L4297.94,1208.06C4299.74,1177.38 4312.49,1127.8 4326.36,1096.33C4342.24,1057.78 4355,1007.68 4355,985C4355,949.401 4340.26,907.094 4319.69,875.68C4303.81,851.436 4284.11,833.862 4266.17,826.574C4265.48,826.292 4264.78,826.033 4264.07,825.796C4255.73,823.018 4245.56,815.484 4241.4,809.549C4228.23,791.251 4213.03,781.451 4196.11,777.791C4175.65,773.365 4149.4,778.633 4116.27,800.431L4109.48,804.73L4102.17,797.683C4073.34,770.165 4051.43,761.323 4002.83,760.01C3963.11,759.064 3927.36,748.875 3826.16,714.828C3808.46,708.418 3765.14,697.935 3729.12,690.732C3698.5,684.369 3679.25,679.926 3665.93,668.592C3653.13,657.7 3647.04,640.828 3638.25,614.075L3637.86,612.951C3627.4,584.428 3616.1,560.091 3609.29,551.344C3605.51,546.477 3601.49,543.018 3597.53,540.594C3594.79,536.36 3589.06,527.245 3585.63,520.017C3575.28,498.177 3560.1,479.947 3550.49,473.188C3543.62,468.354 3536.96,466.164 3531.29,465.372C3527.86,463.544 3511.32,454.6 3500.71,446.787C3407.47,378.33 3295.05,417.733 3198.62,572.986C3197.16,575.242 3195.34,577.689 3193.68,579.796C3189.56,576.956 3183.82,572.788 3178.78,568.426C3151.17,544.762 3125.07,535 3083,535C3066.14,535 3044.05,531.544 3034.41,524.878C3012.22,510.085 2991.26,505.716 2970.79,509.643C2946.16,514.367 2919.11,533.839 2891.24,576.047C2884,586.482 2872.6,596.171 2865.59,601.604C2853.72,571.151 2828.71,540.359 2798.51,517.047C2764.98,491.153 2725.45,475 2693,475C2654.41,475 2573.01,509.425 2521.17,548.875C2497.32,566.54 2486.1,580.758 2480.38,596.515C2476.29,607.759 2474.84,620.297 2476.1,636.684C2476.13,637.079 2476.17,637.472 2476.21,637.865C2477.7,651.229 2473.58,671.951 2468.66,684.618C2462.02,700.655 2458.79,712.415 2457.99,723.675C2456.82,740.211 2460.65,756.361 2472.83,784.787L2473.37,785.983C2479.36,798.636 2483.59,805.352 2483.76,813.011C2483.94,821.388 2479.93,830.012 2474.04,846.228C2463.07,876.943 2455,930.638 2455,980C2455,1033.68 2448.32,1066.96 2426.09,1128.1C2408.34,1177.16 2388.51,1259.63 2382.3,1311.4C2372.6,1384.61 2368.86,1396.33 2335.27,1439.64C2303.15,1481.35 2286.16,1508.28 2277.42,1538.01C2268.74,1567.53 2268.17,1600.23 2272.08,1654.42C2274.88,1694.72 2277.16,1717.92 2265.68,1736.88C2253.36,1757.24 2227.88,1771.66 2183.13,1797.9C2113.75,1839.1 2040.41,1913.19 2009.93,1970.89C1992.89,2003.75 1991.26,2084.07 2007.27,2128.39C2008.98,2132.93 2010.22,2137.16 2007.88,2139.9C2006.03,2142.07 2002.62,2141.13 1999.08,2140.2C1916,2117.88 1839.92,2150.4 1795.23,2232.33C1736.43,2340.87 1735,2468.73 1787.13,2545.78C1797.13,2560.38 1804,2571.55 1804.22,2583.77C1804.38,2592.01 1801.15,2600.24 1795.74,2610.15C1787.66,2624.97 1775.09,2641.85 1758.17,2662.52C1724.5,2702.72 1691.47,2751.99 1683.54,2771.93L1683.38,2772.31L1683.46,2772.14C1674.91,2793.59 1664.26,2866.68 1660.06,2936.95C1656.44,2998.55 1655.28,3030.2 1641.24,3060.55C1626.7,3091.96 1599.34,3121.69 1546.79,3180.81C1526.38,3203.88 1508.33,3227.82 1501.84,3239.25C1499.06,3244.13 1497.39,3248.57 1496.39,3252.32C1493.92,3256.09 1481.24,3275.15 1470.05,3287.52L1469.22,3288.47C1412.46,3355.93 1356.02,3477.07 1345.35,3556.05C1340.62,3589.2 1334.14,3627.12 1330.43,3640.08C1323.53,3663.47 1300.73,3699.59 1278.51,3727.89C1265.7,3744.21 1253.81,3758.31 1244.41,3763.18C1189.34,3792.84 1165.03,3858.21 1187.77,3913.64C1199.28,3940.84 1221.28,3964.66 1256.15,3983.66C1299.05,4007.04 1364,4023.81 1453.34,4032.81C1522.63,4040.1 1546.44,4046.11 1594.93,4073.55C1626.78,4091.35 1675.48,4127.9 1701.25,4152.75C1730.68,4182.17 1786.32,4225.32 1824.75,4249.86C1848.94,4264.65 1877.66,4290.34 1882.66,4294.88C1885.63,4307.13 1885.83,4345.09 1885.01,4382.13C1881.69,4516.06 1881.54,4511.4 1936.56,4593.93L1975.42,4654.39L1971.05,4733.12C1965.38,4838.56 1980.64,4909.29 2011.25,4945.57C2011.61,4945.99 2011.98,4946.41 2012.35,4946.82C2014.31,4948.92 2013.43,4951.26 2013.25,4955.67C2012.82,4966.5 2010.73,4981.24 2007.53,5001.92C1994.73,5074.45 1999.63,5152.35 2025.16,5245.96C2031.56,5270.1 2032.12,5280.78 2022.73,5302.45C1999.18,5358.51 1999.93,5451.6 2026.8,5531.07C2040.52,5572.25 2044.85,5605.23 2043.02,5662.88C2041.25,5718.16 2044.84,5750.89 2056.74,5775C2069.63,5801.09 2091.97,5819.48 2133.7,5840.97C2149.37,5849.22 2169.21,5862.95 2178.69,5872.21C2200.71,5897.05 2223,5905.09 2257.71,5898.14C2266.5,5896.16 2281.11,5901.32 2286.22,5903.31C2288.74,5913.78 2295.33,5927.27 2307.55,5940.97C2330.04,5966.17 2373.36,5998.64 2412.78,6015.98C2422.34,6020.23 2430.07,6024.79 2435.64,6029.83C2437.68,6031.67 2439.66,6033.08 2440.18,6035.02C2440.24,6035.22 2440.29,6035.42 2440.35,6035.61C2445.16,6052.44 2465.79,6085.53 2487.43,6110.78L2488.2,6111.65C2499.27,6123.73 2506.45,6129.12 2508.55,6136.25C2509.12,6138.19 2508.38,6140.19 2507.95,6142.92C2507.1,6148.23 2505.68,6154.44 2503.91,6162.07C2503.83,6162.43 2503.75,6162.78 2503.68,6163.14C2498.46,6189.23 2491.14,6243.5 2489.08,6282.67C2484.37,6353.36 2489.06,6372.02 2511.87,6412.81C2526.78,6438.04 2558.82,6473.65 2585.35,6493.26C2607,6509.08 2624.85,6534.41 2637.83,6562.79C2656.81,6607.08 2682.66,6637.32 2706.7,6649.97L2705.84,6649.51C2720.85,6657.95 2754.52,6682.47 2780.52,6703.82C2860.01,6770.46 2900.23,6781.78 2983.37,6764.22C3057.6,6748.23 3134.52,6687.07 3172,6613.24C3176.19,6605.25 3183.79,6595.07 3188.65,6588.87C3202.66,6591.69 3233.7,6598.41 3258.93,6607.2C3302.52,6621.73 3348.31,6633.33 3362.43,6634.83L3362.21,6634.81C3362.21,6634.81 3397.83,6648.47 3420.94,6661.56C3467.89,6687.77 3500.49,6697.06 3580.24,6705.8C3707.72,6719.58 3732.4,6710.92 3789.88,6661.49C3838.04,6619.89 3871.51,6558.36 3899.88,6443.78C3912.52,6395.02 3926.3,6368.95 3964.42,6321.75C4006.37,6268.86 4022.94,6256.29 4092.85,6222.7C4122.84,6208.65 4142.78,6199.68 4157.53,6194.62C4169.86,6190.39 4175.77,6190.15 4183.9,6192.86C4202.25,6200.38 4241.69,6210.03 4273.14,6216.32L4274.25,6216.52C4300.43,6220.89 4332.77,6230.12 4347.01,6237.15C4389.5,6260.07 4473.75,6350.39 4491.67,6393.41C4554.95,6545.91 4569.29,6565.75 4704.16,6701.65C4704.19,6701.69 4704.22,6701.72 4704.25,6701.75L4833.25,6830.75C4835.93,6833.43 4839.03,6835.66 4842.43,6837.35C4842.43,6837.35 4997.43,6914.35 4997.57,6914.42C5067.21,6948.61 5116.13,6970.65 5153.4,6982.77C5220.99,7004.74 5256.92,6997.82 5299.25,6972.86C5321.39,6959.33 5349.49,6925.71 5366.65,6888.94C5382.37,6855.65 5414.56,6820.21 5471.38,6767.04C5508.25,6733.94 5550.89,6699.97 5559.8,6692.93C5561.95,6692.41 5564.33,6691.77 5566.93,6690.99C5588.86,6684.35 5643.2,6665.51 5703.13,6642.83C5807.51,6604.28 5839.28,6595 5891,6595C5964.91,6595 6035.33,6617.19 6089.81,6659.86C6163.43,6715.85 6365.78,6819.26 6439.28,6837.9C6472.24,6846.37 6511.83,6859.45 6529.07,6867.11C6586.49,6892.03 6674.49,6915 6707,6915C6721.67,6915 6768.3,6925.76 6810.44,6937.67C6931.51,6972.04 6981.96,6977.81 7025.18,6960.28C7044.74,6952.35 7063.25,6939.53 7085.34,6920.94C7123.35,6889.43 7206.87,6848.86 7262.25,6835.02C7292.6,6827.66 7336.77,6826.28 7391.51,6830.91C7481.45,6837.34 7519.73,6854.47 7606.28,6924.44C7631.24,6944.2 7693.58,6984.85 7746.17,7012.69C7843.99,7066.33 7890.17,7079.32 8032.09,7090.88L8092.09,7095.88C8101.08,7096.63 8110,7093.88 8117.01,7088.21C8117.01,7088.21 8185.01,7033.21 8185.37,7032.92C8251.24,6978.18 8268.35,6973.67 8400.78,6950.52C8577.93,6920.84 8600.38,6920.89 8702.36,6980.23C8741.35,7002.97 8793.52,7027.46 8819.51,7033.95C8842.33,7039.66 8906.79,7068.57 8962.14,7097.2C9086.07,7160.22 9201.88,7195 9288,7195C9325.09,7195 9388.85,7180.88 9474.92,7153.25C9524.51,7136.97 9582.75,7120.66 9599.08,7116.15C9608.05,7120.59 9632.47,7133.04 9650.99,7145.39C9712.83,7185.4 9785.41,7222.26 9836.55,7240.83C9862.66,7250.31 9884.26,7255 9898,7255C9911.74,7255 9929.26,7262.7 9943.17,7273.12C9976.25,7297.63 9996.74,7305 10058,7305C10121.9,7305 10133.7,7301.59 10212.2,7249.23C10242,7229.64 10284.5,7208.88 10292.2,7205.17ZM11881.1,6777.7C11891.6,6782.94 11905,6796.15 11920.2,6813.16C11947.5,6843.82 11977.9,6886.8 12001.3,6930.85C12014,6953.93 12016.8,6984.58 12012.4,7022.59C12004.4,7089.84 11973.2,7176.85 11919.7,7284.35C11917.2,7289.27 11909.6,7292.69 11901.4,7297.02C11882.2,7307.17 11856.7,7315 11836,7315C11816.5,7315 11781.1,7308.55 11755.9,7300.72C11702.5,7283.33 11688.6,7282.77 11621.3,7297.86C11556.1,7312.55 11536.1,7308.38 11420.3,7272.57C11420.3,7272.55 11420.3,7272.54 11420.2,7272.53L11335.2,7246.53C11326.5,7243.86 11317.1,7244.71 11308.9,7248.9C11308.9,7248.9 11248.9,7279.9 11248.8,7279.97C11216.7,7296.74 11193,7307.85 11174,7313.91C11161,7318.06 11151.3,7319.7 11142.3,7317.78L11141.4,7317.59C11102.1,7310.28 11051.2,7285.89 10998.2,7248.45C10935.6,7204.05 10924.3,7200.45 10843.5,7197.03C10770.5,7193.81 10747.9,7197.69 10653,7231.11C10603.2,7249.23 10553.8,7265 10542,7265C10513.1,7265 10472.1,7242.38 10437.3,7210.87C10383.3,7162.72 10324.2,7135 10289,7135C10283.2,7135 10271.7,7137.24 10257.1,7143.65C10236.5,7152.66 10204.3,7170.63 10173.6,7190.88C10114.3,7230.41 10106.1,7235 10058,7235C10019.3,7235 10005.8,7232.38 9985,7217C9958.73,7197.3 9924.27,7185 9898,7185C9885.9,7185 9865.11,7177.48 9839.67,7166.91C9794.65,7148.21 9738.2,7118.44 9689.42,7086.88C9666.39,7071.53 9642.77,7058.43 9627.69,7051.89C9615.55,7046.62 9605.95,7045 9601,7045C9592.39,7045 9525.23,7063.06 9453.3,7086.68C9377.15,7111.12 9320.91,7125 9288,7125C9210.12,7125 9105.93,7091.79 8994.08,7034.91C8933.21,7003.43 8861.68,6972.34 8836.49,6966.05C8814.48,6960.54 8770.65,6939.03 8737.6,6919.75C8619.62,6851.11 8594.07,6847.16 8388.97,6881.52C8235.65,6908.33 8216.76,6915.82 8140.99,6978.79L8083.91,7024.95L8037.84,7021.12C7909.83,7010.69 7868.01,6999.67 7779.38,6951.07C7730.42,6925.15 7672.76,6887.8 7650.01,6869.78C7548.27,6787.53 7502.56,6768.66 7396.96,6761.12C7333.23,6755.72 7281.4,6758.34 7245.51,6767.05C7181.13,6783.14 7084.65,6830.57 7040.47,6867.22C7024.95,6880.28 7012.5,6889.89 6998.87,6895.41C6984.5,6901.24 6968.93,6901.72 6946.95,6898.69C6918.5,6894.77 6881.7,6885.13 6829.52,6870.32C6779.7,6856.24 6724.33,6845 6707,6845C6679.51,6845 6605.51,6823.97 6557.22,6803.02C6538.17,6794.55 6493.76,6779.63 6456.6,6770.07C6388.22,6752.74 6200.57,6656.15 6132.58,6604.45C6066.67,6552.81 5981.09,6525 5891,6525C5832.72,6525 5796.49,6533.72 5678.61,6577.27C5613.73,6601.82 5541.53,6625.46 5541.53,6625.46C5541.53,6625.46 5542.76,6625.34 5544.06,6625.22C5539.13,6625.81 5530.17,6628.05 5519.51,6635.46C5503.29,6646.74 5465.24,6678.48 5424.09,6715.44C5357.44,6777.8 5321.63,6820.35 5303.28,6859.2C5292.5,6882.3 5276.61,6904.66 5263.23,6912.85C5237.88,6927.79 5215.98,6929.51 5175.04,6916.19C5139.95,6904.79 5093.99,6883.78 5028.57,6851.65L4878.7,6777.2L4753.84,6652.35C4628.71,6526.25 4615.05,6508.09 4556.31,6366.54C4534.32,6313.76 4431.11,6202.59 4379.44,6175.1C4379.18,6174.96 4378.91,6174.83 4378.65,6174.69C4360.88,6165.81 4320.07,6153.29 4286.61,6147.63C4259.24,6142.15 4224.6,6134.31 4210.03,6127.93C4209.18,6127.56 4208.32,6127.23 4207.45,6126.93C4175.93,6116.02 4158.91,6114.46 4062.84,6159.45C3979.06,6199.71 3959.63,6215.14 3909.77,6278.01C3863.7,6335.05 3847.48,6366.98 3832.03,6426.59C3808.49,6521.65 3783.96,6574.11 3744.18,6608.46C3701.59,6645.09 3682.31,6646.42 3587.81,6636.21C3521.51,6628.94 3494.11,6622.24 3455.26,6600.55C3432.18,6587.47 3407.44,6576.1 3390.93,6570.4C3379.5,6566.45 3370.33,6565 3365,6565C3365.33,6565 3366.38,6565.02 3366.38,6565.02C3366.38,6565.02 3316.42,6552.58 3281.53,6540.95C3248.88,6529.56 3216.72,6521.5 3197.04,6518.72C3181.57,6516.54 3170.3,6518.01 3164.93,6519.8C3164.52,6519.93 3164.12,6520.08 3163.71,6520.23C3158.13,6522.32 3150.21,6527.05 3142.11,6535.25C3132.1,6545.36 3119.46,6562.7 3109.79,6581.16C3081.48,6636.93 3024.4,6683.77 2968.76,6695.76C2909.76,6708.22 2881.99,6697.54 2825.22,6649.95C2795.48,6625.53 2757.15,6598.05 2740.16,6588.49C2739.88,6588.34 2739.59,6588.18 2739.3,6588.03C2725.33,6580.68 2713.2,6560.95 2701.83,6534.45C2683.15,6493.59 2657,6458.92 2626.8,6436.85C2607.18,6422.35 2583.22,6395.96 2572.55,6377.93C2556.94,6349.98 2555.64,6336.65 2558.95,6286.84C2560.86,6250.66 2567.48,6201.21 2572.26,6177.18C2579.13,6147.47 2580.05,6131.3 2575.7,6116.5C2571.58,6102.48 2561.92,6088.54 2540.35,6064.95C2526.04,6048.24 2510.83,6027.5 2507.82,6016.98C2501.91,5994.84 2481.07,5969.73 2441.1,5951.96C2417.28,5941.49 2391.72,5923.99 2373.19,5907.54C2365.58,5900.78 2357.24,5890.81 2354.57,5887.52C2352.88,5874.4 2345.97,5861.4 2333.42,5850.72C2313.25,5833.56 2274.91,5822.49 2243.14,5829.68C2237.59,5830.79 2234.05,5829.23 2230.45,5825.08C2229.9,5824.45 2229.34,5823.84 2228.75,5823.25C2216,5810.5 2188.32,5790.62 2166.03,5778.89C2145.61,5768.36 2131.57,5760.78 2123.03,5749.67C2118.13,5743.29 2115.86,5735.59 2114.39,5725.52C2112.14,5710.09 2112.17,5690.71 2112.98,5665.11C2115.15,5596.77 2109.48,5557.75 2093.16,5508.79C2072.07,5446.4 2068.81,5373.49 2087.11,5329.92C2103.88,5291.22 2104.44,5271.9 2092.77,5227.79C2070.37,5145.65 2065.27,5077.55 2076.59,5013.37C2088.51,4936.55 2081.49,4918.77 2064.64,4900.29C2054.47,4888.15 2048.49,4869.81 2044.52,4846.1C2039.61,4816.78 2038.61,4780.33 2040.95,4736.94L2045.95,4646.94C2046.36,4639.58 2044.43,4632.28 2040.44,4626.07C2040.44,4626.07 1995.44,4556.07 1995.12,4555.59C1950.46,4488.6 1952.31,4491.94 1954.99,4383.78C1956.07,4335.11 1952.68,4285.47 1948.41,4270.68L1948.77,4271.79C1948.61,4271.21 1948.42,4270.6 1948.2,4269.96L1947.89,4269.04L1948.06,4269.57C1945.7,4262.86 1940.1,4253.11 1930.04,4242.75C1915.58,4227.85 1889.3,4207.27 1861.84,4190.51C1827.68,4168.68 1777.32,4129.83 1750.3,4102.81C1720.52,4074.1 1665.22,4032.65 1629.24,4012.54C1571.56,3979.89 1543.38,3971.9 1460.51,3963.18C1395.29,3956.61 1344.77,3946.18 1308.05,3930.93C1279.48,3919.06 1260.27,3905.35 1252.38,3886.72C1242.97,3863.78 1254.66,3837.17 1277.08,3825.09C1291.39,3817.68 1312.94,3797.4 1333.57,3771.12C1361.51,3735.53 1388.88,3689.33 1397.65,3659.62C1401.86,3644.88 1409.38,3602.8 1414.68,3565.69C1423.96,3497.02 1473.41,3392.34 1522.59,3333.77C1540.24,3314.15 1554.56,3292.98 1559.75,3282.34C1561.41,3278.92 1562.57,3275.75 1563.37,3272.91C1566.98,3267.9 1584.58,3243.74 1599.16,3227.25C1658.66,3160.31 1688.3,3125.54 1704.77,3089.95C1721.72,3053.29 1725.56,3015.46 1729.94,2941.09C1733.6,2879.75 1740.35,2815.47 1747.67,2799.9C1748.01,2799.18 1748.33,2798.43 1748.62,2797.69C1754.97,2781.37 1783.72,2741.02 1812.09,2707.16C1857.72,2651.39 1874.82,2615.21 1874.21,2582.47C1873.77,2558.51 1864.48,2534.84 1844.99,2506.39C1804.99,2447.26 1811.56,2349.14 1856.73,2265.76C1884.09,2215.6 1930,2194.12 1981.09,2207.85C2015.48,2216.9 2043.92,2205.49 2061.12,2185.35C2077.82,2165.79 2085.05,2136.15 2072.92,2104.11C2066.46,2086.22 2064.32,2059.34 2065.79,2035.9C2066.61,2022.72 2068.16,2010.65 2071.95,2003.35C2097.59,1954.81 2160.25,1892.9 2218.71,1858.19C2278.14,1823.33 2309.14,1800.27 2325.57,1773.12C2342.86,1744.56 2346.12,1710.31 2341.91,1649.48C2338.83,1606.76 2337.75,1580.97 2344.58,1557.74C2351.35,1534.72 2365.85,1514.66 2390.66,1482.45C2433.14,1427.67 2439.4,1413.39 2451.75,1320.17C2457.49,1272.37 2475.66,1196.84 2491.89,1151.96C2517.68,1081.04 2525,1042.32 2525,980C2525,939.362 2530.93,895.058 2539.89,869.961C2550.07,841.974 2554.06,826.119 2553.74,811.489C2553.41,796.231 2548.7,781.567 2536.85,756.491C2531.2,743.358 2527.27,736.384 2527.82,728.613C2528.17,723.581 2530.38,718.55 2533.62,710.686C2542.31,688.345 2548.15,653.694 2545.87,631.033C2545.54,626.744 2545.09,623.384 2546.17,620.413C2548.23,614.732 2554.23,611.494 2563.19,604.854C2603,574.569 2663.58,545 2693,545C2712.56,545 2735.52,556.842 2755.74,572.453C2776.68,588.628 2794.99,609.464 2801.53,630.228C2819.95,690.518 2891.82,698.015 2949.21,615.287C2957.77,602.319 2965.57,592.291 2973.27,585.291C2977.3,581.618 2980.56,578.605 2984.47,578.323C2988.2,578.054 2991.56,580.436 2995.08,582.777C3011.95,594.46 3051.84,605 3083,605C3104.93,605 3118.83,609.237 3133.11,621.473C3161.58,646.099 3182.92,653.981 3199.27,653.211C3218.28,652.317 3237.71,641.426 3257.73,610.469C3287.46,562.618 3318.06,527.295 3349.17,505.951C3386.83,480.119 3424.63,477.767 3459.24,503.177C3474.98,514.778 3491.41,524.477 3502.63,529.349C3505.73,530.696 3508.67,531.753 3511.41,532.55C3514.31,536.517 3519.54,544.019 3522.37,549.983C3532.05,570.413 3544.31,587.708 3551.23,594.031C3552.66,595.336 3554.09,596.491 3555.52,597.502C3558.72,604.465 3566.49,621.704 3572.04,636.78C3586.15,679.521 3600,704.409 3620.57,721.908C3640.75,739.079 3668.49,749.628 3715.14,759.32C3748.08,765.908 3787.65,775.125 3802.71,780.772L3803.84,781.173C3916.64,819.126 3956.89,828.936 4001.05,829.987C4026.58,830.677 4038.66,833.831 4053.72,848.211L4080.72,874.211C4092.34,885.399 4110.1,887.199 4123.73,878.569C4123.73,878.569 4153.73,859.569 4154.24,859.24C4160.25,855.285 4165.73,852.078 4170.8,849.705C4173.79,848.31 4176.53,847.228 4179.12,846.613C4179.63,846.493 4180.38,846.39 4180.91,846.327C4181.72,847.119 4183.5,848.927 4184.33,850.071C4194.17,864.134 4218.91,883.901 4240.2,891.599C4247.73,894.847 4254.45,903.836 4261.13,914.032C4274.54,934.507 4285,961.798 4285,985C4285,1002.33 4273.77,1040.22 4261.98,1068.87C4245.6,1106 4230.42,1165.96 4228.1,1203.33C4221.51,1281.66 4232.04,1314.99 4326.08,1441.11C4353.25,1477.04 4378.05,1519.29 4381.77,1535.34C4386.57,1560.53 4407.03,1593.3 4427.74,1608.8C4471.67,1643.6 4522.12,1643.69 4617.36,1584.8C4645.76,1567.29 4667.41,1556.3 4690.48,1554.7C4727.44,1552.14 4765.79,1572.3 4833.99,1613.01C4869.17,1634.12 4910.64,1687.46 4931.62,1737.3C4943.86,1767.09 4958.7,1787.3 4978.18,1801.01C5005.11,1819.97 5043.08,1827.03 5105.03,1821.87C5219.59,1811.91 5299.03,1841.94 5311.41,1915.32C5325.2,2004.95 5331.69,2018.14 5354.48,2046.62C5367.38,2063.04 5403.23,2090.66 5435.35,2107.3C5490.64,2134.95 5648.32,2288.05 5696.88,2360.41C5731.29,2412.04 5731.82,2451.42 5703.43,2513.9C5677.94,2567.18 5675.36,2585.68 5681.22,2648.95C5685.65,2687.86 5683.02,2717.92 5672.4,2754.2C5656.24,2809.6 5655.36,2831.54 5665.74,2881.14C5680.24,2950.76 5705.47,3030 5727.43,3080.18C5738.6,3105.69 5749.76,3124.48 5758.24,3133.7L5757.43,3132.78C5768.75,3145.99 5789.46,3174.32 5803.64,3196.05C5815.76,3215.71 5833.2,3234.58 5847.58,3245.51C5856.26,3252.11 5864.55,3256.25 5871.18,3258.29C5891.57,3265.16 5910.94,3281.76 5918.23,3300.29C5923.18,3313.48 5930.28,3323.02 5939.32,3330.14C5950.92,3339.29 5966.71,3345 5990,3345C6021.94,3345 6064.97,3363.52 6088.17,3386.67C6101.66,3400.95 6139.65,3433.97 6174.55,3460.65C6215.69,3492.58 6235.12,3504.81 6257.96,3510.09C6273.19,3513.6 6290.28,3513.92 6317.09,3512.98C6344.88,3512.12 6378.75,3513.15 6391.16,3516.6C6405.34,3521.18 6417.01,3522.17 6428.61,3520.28C6443.2,3517.91 6458.68,3510.25 6481.58,3491.74C6503.7,3473.06 6524.09,3464.74 6570.04,3460.16C6606.68,3456.5 6657.1,3455.39 6731,3455C6876.02,3455 6899.11,3456.47 6975.76,3479.47C7025.34,3494.64 7093.13,3512.86 7125.88,3521.05C7179.82,3533.91 7210.19,3542.58 7227.07,3565C7237.82,3579.29 7242.31,3598.5 7246.4,3625.3C7266.05,3753.53 7290.86,3830.06 7349.76,3945.78C7400.96,4047.11 7426.18,4082.9 7469.92,4121.32C7542.13,4184.63 7577.85,4200.93 7662.91,4209.76C7718.86,4216.34 7745.26,4213.56 7822.65,4190.34C7891.09,4168.48 7918.69,4166 8028,4166C8136.56,4166 8160.05,4168.06 8213.83,4188.82C8296.22,4219.37 8376.71,4259.31 8396.15,4280.6L8396.18,4280.63C8396.82,4282.1 8420.09,4335.42 8431.35,4375.61C8445.88,4426.48 8471.9,4496.01 8488.51,4530.27C8503.08,4560.33 8517.92,4601.22 8521.49,4620.86C8531.88,4682.02 8543.06,4705.36 8593.69,4757.17C8619.32,4784.71 8638.03,4800.88 8661.09,4810.05C8692.98,4822.74 8735.53,4821.42 8828.73,4808.68C8890.91,4800.2 8949.39,4793.34 8959.35,4793.03C9071.91,4799.67 9166.78,4815.1 9203.85,4835.05C9230.47,4848.89 9279.45,4869.11 9313.54,4878.7C9337.32,4885.37 9357.68,4894.69 9371.97,4905.32C9377.72,4909.6 9383.95,4917.3 9385.05,4918.69C9385.24,4922.34 9386.06,4927.84 9388.26,4934.68C9392.7,4948.52 9405.02,4976.17 9418.9,5003.05L9419.31,5003.83C9431.68,5026.38 9443.77,5055.27 9445.38,5059.15C9446.01,5064 9447.56,5070.22 9450.58,5077.24C9455.38,5088.4 9464.85,5104.57 9475.63,5119.49C9486.01,5133.87 9497.33,5158.51 9500.62,5174.58C9504.44,5197.19 9523.08,5249.25 9543.34,5289.92C9560.43,5326.98 9580.54,5373.33 9586.23,5394.21C9586.36,5394.68 9586.5,5395.15 9586.65,5395.61C9594.89,5421.5 9607.17,5448.35 9611.88,5455.41C9612.4,5456.19 9612.95,5456.95 9613.53,5457.69C9621.51,5467.79 9636.4,5477.6 9657.75,5483.14C9689.5,5491.39 9739.96,5492.15 9788.58,5483.38C9827.67,5475.89 9843.49,5475.39 9876.71,5486.45C9903.67,5494.75 9943.09,5505.1 9962.83,5509.26C9991.59,5515.28 10064.3,5542.62 10111.6,5563.58C10127.7,5570.7 10140.5,5576.33 10145.7,5580.17C10147.3,5582.71 10157.3,5598.26 10164.4,5611.58C10190,5659.74 10225.2,5738.32 10235.2,5775.24C10251.2,5833.62 10271.8,5868.16 10300.9,5887.68C10329.9,5907.22 10369.6,5913.12 10428.9,5905.78C10479.1,5900.09 10605.1,5909.66 10662.2,5924.87C10704.6,5935.9 10760.9,5974.45 10782.4,6009.69C10794.1,6028.22 10824.3,6081.89 10849.1,6131.4C10878.1,6186.03 10915.2,6238.59 10929.7,6249.74C10929.9,6249.96 10930.2,6250.17 10930.5,6250.37C10951.2,6265.32 10989.7,6276.36 11077.7,6280.93C11150.6,6285.68 11190.1,6289.87 11216.4,6309.07C11232.1,6320.52 11242,6337.58 11253.2,6361.65C11305.9,6475.95 11311.3,6480.22 11349,6505.73C11377.7,6525.71 11410,6535 11450,6535C11483.7,6535 11522.6,6543.11 11553.1,6554.74C11569.5,6560.98 11583.4,6567.59 11590.8,6575.3C11601,6587.57 11619.4,6617.01 11631.7,6640.65C11653.1,6683.46 11671.1,6708.52 11694,6725.02C11717.2,6741.75 11746.1,6750.33 11791.1,6755.65C11822.4,6760.13 11862.8,6769.6 11881.1,6777.7ZM8447.1,4232.63L8447.85,4233.4L8446.75,4232.25L8447.1,4232.63ZM10190.8,5526.65L10191.5,5527.23L10190.3,5526.2L10190.8,5526.65Z" style="fill:url(#_Linear2);"/>
        </g>
    </g>
    <defs>
        <radialGradient id="_Radial1" cx="0" cy="0" r="1" gradientUnits="userSpaceOnUse" gradientTransform="matrix(-12675.6,-5552.92,-3538.16,8076.51,11854.8,7177.68)"><stop offset="0" style="stop-color:white;stop-opacity:1"/><stop offset="0.12" style="stop-color:rgb(28,28,28);stop-opacity:1"/><stop offset="0.28" style="stop-color:rgb(183,183,183);stop-opacity:1"/><stop offset="0.44" style="stop-color:rgb(27,27,27);stop-opacity:1"/><stop offset="0.63" style="stop-color:rgb(242,242,242);stop-opacity:1"/><stop offset="0.75" style="stop-color:rgb(62,62,62);stop-opacity:1"/><stop offset="1" style="stop-color:rgb(125,125,125);stop-opacity:1"/></radialGradient>
        <linearGradient id="_Linear2" x1="0" y1="0" x2="1" y2="0" gradientUnits="userSpaceOnUse" gradientTransform="matrix(5417.56,0,0,3451.91,6631.73,3901.64)"><stop offset="0" style="stop-color:white;stop-opacity:1"/><stop offset="0.47" style="stop-color:rgb(154,154,154);stop-opacity:0"/><stop offset="1" style="stop-color:black;stop-opacity:1"/></linearGradient>
    </defs>
</svg>
